<svg xmlns="http://www.w3.org/2000/svg" width="14.659" height="14.659" viewBox="0 0 14.659 14.659">
  <path id="Icon_awesome-linkedin-in" data-name="Icon awesome-linkedin-in" d="M3.281,14.66H.242V4.873H3.281ZM1.76,3.538A1.768,1.768,0,1,1,3.52,1.761,1.775,1.775,0,0,1,1.76,3.538Zm12.9,11.122H11.623V9.9c0-1.135-.023-2.592-1.58-2.592-1.58,0-1.822,1.234-1.822,2.51V14.66H5.185V4.873H8.1V6.208h.043a3.193,3.193,0,0,1,2.876-1.58c3.076,0,3.641,2.025,3.641,4.656V14.66Z" transform="translate(0 -0.001)" fill="#3474b0"/>
</svg>
