<svg xmlns="http://www.w3.org/2000/svg" width="19.132" height="13.452" viewBox="0 0 19.132 13.452">
  <path id="Icon_awesome-youtube" data-name="Icon awesome-youtube" d="M19.782,6.6a2.4,2.4,0,0,0-1.691-1.7c-1.492-.4-7.475-.4-7.475-.4s-5.983,0-7.475.4A2.4,2.4,0,0,0,1.45,6.6a25.218,25.218,0,0,0-.4,4.635,25.218,25.218,0,0,0,.4,4.635A2.368,2.368,0,0,0,3.141,17.55c1.492.4,7.475.4,7.475.4s5.983,0,7.475-.4a2.368,2.368,0,0,0,1.691-1.675,25.218,25.218,0,0,0,.4-4.635,25.218,25.218,0,0,0-.4-4.635ZM8.659,14.084V8.395l5,2.845-5,2.845Z" transform="translate(-1.05 -4.5)" fill="#ea3323"/>
</svg>
