<svg xmlns="http://www.w3.org/2000/svg" width="26" height="22.001" viewBox="0 0 26 22.001">
  <g id="Group_3398" data-name="Group 3398" transform="translate(-3 -5.999)">
    <g id="Group_2242" data-name="Group 2242">
      <g id="Group_2241" data-name="Group 2241">
        <g id="Group_2240" data-name="Group 2240">
          <g id="Group_2239" data-name="Group 2239">
            <g id="Group_2238" data-name="Group 2238">
              <path id="Path_3770" data-name="Path 3770" d="M20.858,6.485,24.766,13H28a1,1,0,0,1,0,2H26.169L23.984,27.177A1,1,0,0,1,23,28H9a1,1,0,0,1-.984-.823L5.83,15H4a1,1,0,0,1,0-2H7.233l3.91-6.515a1,1,0,0,1,1.715,1.029L9.566,13H22.433l-3.29-5.485a1,1,0,0,1,1.715-1.029ZM24.137,15H7.862L9.837,26H22.163l1.974-11Z" fill="#393939"/>
            </g>
          </g>
        </g>
      </g>
    </g>
  </g>
</svg>
