<svg id="Group_3125" data-name="Group 3125" xmlns="http://www.w3.org/2000/svg" width="24.491" height="20.818" viewBox="0 0 24.491 20.818">
  <path id="Path_19" data-name="Path 19" d="M27.467,36.012a3.67,3.67,0,0,1,2.2-.735H38.65a1.224,1.224,0,0,0,1.224-1.225v-9.8a1.223,1.223,0,0,0-1.224-1.225H21.506a1.224,1.224,0,0,0-1.224,1.225v9.8a1.225,1.225,0,0,0,1.224,1.225h2.45A1.223,1.223,0,0,1,25.18,36.5v1.225Zm-5.96,1.714a3.673,3.673,0,0,1-3.673-3.673v-9.8a3.673,3.673,0,0,1,3.673-3.673H38.65a3.673,3.673,0,0,1,3.673,3.673v9.8a3.673,3.673,0,0,1-3.673,3.673H29.67a1.222,1.222,0,0,0-.733.244L24.69,41.155a1.224,1.224,0,0,1-1.958-.98V37.726Z" transform="translate(-17.833 -20.584)" fill="#fff"/>
  <path id="Path_20" data-name="Path 20" d="M23.642,28.532a1.224,1.224,0,1,0-1.225-1.225,1.225,1.225,0,0,0,1.225,1.225" transform="translate(-16.294 -18.737)" fill="#fff"/>
  <path id="Path_21" data-name="Path 21" d="M27.308,28.532a1.224,1.224,0,1,0-1.225-1.225,1.225,1.225,0,0,0,1.225,1.225" transform="translate(-15.063 -18.737)" fill="#fff"/>
  <path id="Path_22" data-name="Path 22" d="M30.975,28.532a1.224,1.224,0,1,0-1.225-1.225,1.225,1.225,0,0,0,1.225,1.225" transform="translate(-13.831 -18.737)" fill="#fff"/>
</svg>
