<svg id="Group_7" data-name="Group 7" xmlns="http://www.w3.org/2000/svg" width="23.083" height="31.738" viewBox="0 0 23.083 31.738">
  <path id="Path_8" data-name="Path 8" d="M2.885,0A2.885,2.885,0,1,1,0,2.885,2.885,2.885,0,0,1,2.885,0" transform="translate(0 0)" fill="#fff"/>
  <path id="Path_9" data-name="Path 9" d="M2.885,6A2.885,2.885,0,1,1,0,8.885,2.885,2.885,0,0,1,2.885,6" transform="translate(0 2.656)" fill="#fff"/>
  <path id="Path_10" data-name="Path 10" d="M2.885,12A2.885,2.885,0,1,1,0,14.885,2.885,2.885,0,0,1,2.885,12" transform="translate(0 5.312)" fill="#fff"/>
  <path id="Path_11" data-name="Path 11" d="M8.885,0A2.885,2.885,0,1,1,6,2.885,2.885,2.885,0,0,1,8.885,0" transform="translate(2.656 0)" fill="#fff"/>
  <path id="Path_12" data-name="Path 12" d="M8.885,6A2.885,2.885,0,1,1,6,8.885,2.885,2.885,0,0,1,8.885,6" transform="translate(2.656 2.656)" fill="#fff"/>
  <path id="Path_13" data-name="Path 13" d="M8.885,12A2.885,2.885,0,1,1,6,14.885,2.885,2.885,0,0,1,8.885,12" transform="translate(2.656 5.312)" fill="#fff"/>
  <path id="Path_14" data-name="Path 14" d="M8.885,18A2.885,2.885,0,1,1,6,20.885,2.885,2.885,0,0,1,8.885,18" transform="translate(2.656 7.968)" fill="#fff"/>
  <path id="Path_15" data-name="Path 15" d="M14.885,0A2.885,2.885,0,1,1,12,2.885,2.885,2.885,0,0,1,14.885,0" transform="translate(5.312 0)" fill="#fff"/>
  <path id="Path_16" data-name="Path 16" d="M14.885,6A2.885,2.885,0,1,1,12,8.885,2.885,2.885,0,0,1,14.885,6" transform="translate(5.312 2.656)" fill="#fff"/>
  <path id="Path_17" data-name="Path 17" d="M14.885,12A2.885,2.885,0,1,1,12,14.885,2.885,2.885,0,0,1,14.885,12" transform="translate(5.312 5.312)" fill="#fff"/>
</svg>
