<svg xmlns="http://www.w3.org/2000/svg" width="35.948" height="27.249" viewBox="0 0 35.948 27.249">
  <path id="Path_5401" data-name="Path 5401" d="M9.3-44.1A6.609,6.609,0,0,1,5.1-45.2,3.527,3.527,0,0,1,3.74-48.078a27.019,27.019,0,0,1,1.415-8.7,33.042,33.042,0,0,1,3.563-7.494,23.252,23.252,0,0,1,4.4-5.188,6.537,6.537,0,0,1,3.825-1.887,8.227,8.227,0,0,1,1.782.21,4.56,4.56,0,0,1,1.624.681,1.416,1.416,0,0,1,.681,1.205,4.164,4.164,0,0,1-.21,1.205,14.214,14.214,0,0,1-.524,1.415q-.838,1.886-1.729,4.349A34.184,34.184,0,0,0,17.1-56.41a49.435,49.435,0,0,0-.576,8.122,3.786,3.786,0,0,1-1.362,3.039,6.582,6.582,0,0,1-4.3,1.153Zm-18.655,0a6.609,6.609,0,0,1-4.192-1.1,3.527,3.527,0,0,1-1.362-2.882,27.019,27.019,0,0,1,1.415-8.7,33.042,33.042,0,0,1,3.563-7.494,23.252,23.252,0,0,1,4.4-5.188A6.537,6.537,0,0,1-1.71-71.345a8.227,8.227,0,0,1,1.782.21,4.56,4.56,0,0,1,1.624.681,1.416,1.416,0,0,1,.681,1.205,4.164,4.164,0,0,1-.21,1.205,14.213,14.213,0,0,1-.524,1.415Q.806-64.742-.085-62.279A34.185,34.185,0,0,0-1.552-56.41a49.435,49.435,0,0,0-.576,8.122,3.786,3.786,0,0,1-1.362,3.039,6.582,6.582,0,0,1-4.3,1.153Z" transform="translate(14.915 71.345)" fill="#1956a7"/>
</svg>
