<svg xmlns="http://www.w3.org/2000/svg" width="22.845" height="17" viewBox="0 0 22.845 17">
  <g id="Icon_feather-credit-card" data-name="Icon feather-credit-card" transform="translate(-0.75 -5.25)">
    <path id="Path_5491" data-name="Path 5491" d="M3.405,5.25H20.94a2.658,2.658,0,0,1,2.655,2.655v11.69A2.658,2.658,0,0,1,20.94,22.25H3.405A2.658,2.658,0,0,1,.75,19.595V7.905A2.658,2.658,0,0,1,3.405,5.25ZM20.94,20.837a1.243,1.243,0,0,0,1.242-1.242V7.905A1.243,1.243,0,0,0,20.94,6.663H3.405A1.243,1.243,0,0,0,2.163,7.905v11.69a1.243,1.243,0,0,0,1.242,1.242Z" transform="translate(0 0)" fill="#414141"/>
    <path id="Path_5492" data-name="Path 5492" d="M22.888,15.663H1.457a.707.707,0,0,1,0-1.413H22.888a.707.707,0,0,1,0,1.413Z" transform="translate(0 -3.155)" fill="#414141"/>
  </g>
</svg>
