<svg xmlns="http://www.w3.org/2000/svg" width="606.709" height="617.724" viewBox="0 0 606.709 617.724">
  <g id="Group_3501" data-name="Group 3501" transform="translate(16246 4137.5)" opacity="0.045">
    <path id="Path_1" data-name="Path 1" d="M73.11,24.543A23.812,23.812,0,1,1,49.3.6,23.884,23.884,0,0,1,73.11,24.543" transform="translate(-16025.49 -4132.337)" fill="#fff"/>
    <path id="Path_2" data-name="Path 2" d="M66.334,17.161A17.065,17.065,0,1,1,49.27,0,17.109,17.109,0,0,1,66.334,17.161" transform="translate(-15967.362 -4137.5)" fill="#fff"/>
    <path id="Path_3" data-name="Path 3" d="M55.427,9.67A9.02,9.02,0,1,1,46.4.6,9.04,9.04,0,0,1,55.427,9.67" transform="translate(-15922.522 -4132.337)" fill="#fff"/>
    <path id="Path_21" data-name="Path 21" d="M63.084,37.812c-.087-.869-.174-1.728-.251-2.587.077.82.116,1.67.183,2.5l.068.087" transform="translate(-15702.375 -3832.738)" fill="#fff"/>
    <path id="Path_22" data-name="Path 22" d="M62.848,35.113l-.029.01c.039.328.087.647.125.965-.039-.319-.058-.647-.1-.975" transform="translate(-15702.491 -3833.705)" fill="#fff"/>
    <path id="Path_23" data-name="Path 23" d="M62.075,48.277a25.655,25.655,0,1,1-25.655-25.8,25.723,25.723,0,0,1,25.655,25.8" transform="translate(-16152.858 -3943.031)" fill="#fff"/>
    <path id="Path_24" data-name="Path 24" d="M59.374,54.525a25.655,25.655,0,1,1-25.655-25.8,25.723,25.723,0,0,1,25.655,25.8" transform="translate(-16176.229 -3888.97)" fill="#fff"/>
    <path id="Path_25" data-name="Path 25" d="M65.291,54.125A32.141,32.141,0,1,1,33.15,21.8,32.237,32.237,0,0,1,65.291,54.125" transform="translate(-16237.261 -3948.88)" fill="#fff"/>
    <path id="Path_26" data-name="Path 26" d="M69.212,46.672A32.141,32.141,0,1,1,37.071,14.348,32.237,32.237,0,0,1,69.212,46.672" transform="translate(-16203.347 -4013.362)" fill="#fff"/>
    <path id="Path_27" data-name="Path 27" d="M74.757,39.975A32.141,32.141,0,1,1,42.616,7.651,32.237,32.237,0,0,1,74.757,39.975" transform="translate(-16155.376 -4071.305)" fill="#fff"/>
    <path id="Path_28" data-name="Path 28" d="M53.482,37.69A18.725,18.725,0,1,1,34.757,18.859,18.778,18.778,0,0,1,53.482,37.69" transform="translate(-16107.293 -3974.335)" fill="#fff"/>
    <path id="Path_29" data-name="Path 29" d="M45.5,28.945A12.48,12.48,0,1,1,33.02,16.4,12.514,12.514,0,0,1,45.5,28.945" transform="translate(-16068.283 -3995.636)" fill="#fff"/>
    <path id="Path_30" data-name="Path 30" d="M37.222,21.769a6.486,6.486,0,1,1-6.486-6.525,6.508,6.508,0,0,1,6.486,6.525" transform="translate(-16036.19 -4005.612)" fill="#fff"/>
    <path id="Path_31" data-name="Path 31" d="M86.013,36.68A34.526,34.526,0,1,1,51.488,1.962,34.616,34.616,0,0,1,86.013,36.68" transform="translate(-16099.24 -4120.526)" fill="#fff"/>
    <path id="Path_32" data-name="Path 32" d="M47.6,54.622A23.8,23.8,0,1,1,23.8,30.685,23.873,23.873,0,0,1,47.6,54.622" transform="translate(-16246 -3872.017)" fill="#fff"/>
    <path id="Path_33" data-name="Path 33" d="M57.509,61.445a25.655,25.655,0,1,1-25.655-25.8,25.723,25.723,0,0,1,25.655,25.8" transform="translate(-16192.366 -3829.102)" fill="#fff"/>
    <path id="Path_34" data-name="Path 34" d="M57.332,68.117a25.655,25.655,0,1,1-25.655-25.8,25.723,25.723,0,0,1,25.655,25.8" transform="translate(-16193.899 -3771.378)" fill="#fff"/>
    <path id="Path_35" data-name="Path 35" d="M45.625,68.239A18.711,18.711,0,1,1,26.909,49.418,18.767,18.767,0,0,1,45.625,68.239" transform="translate(-16175.021 -3709.941)" fill="#fff"/>
    <path id="Path_36" data-name="Path 36" d="M55.479,72.263A18.711,18.711,0,1,1,36.763,53.442,18.767,18.767,0,0,1,55.479,72.263" transform="translate(-16089.758 -3675.123)" fill="#fff"/>
    <path id="Path_37" data-name="Path 37" d="M59.046,75.715A18.711,18.711,0,1,1,40.33,56.894,18.767,18.767,0,0,1,59.046,75.715" transform="translate(-16058.906 -3645.257)" fill="#fff"/>
    <path id="Path_38" data-name="Path 38" d="M63.2,78.215A18.711,18.711,0,1,1,44.482,59.394,18.767,18.767,0,0,1,63.2,78.215" transform="translate(-16022.974 -3623.627)" fill="#fff"/>
    <path id="Path_39" data-name="Path 39" d="M57.2,74.461A13.112,13.112,0,1,1,44.087,61.267,13.151,13.151,0,0,1,57.2,74.461" transform="translate(-15977.965 -3607.421)" fill="#fff"/>
    <path id="Path_40" data-name="Path 40" d="M52.557,70.844a8.812,8.812,0,1,1-8.812-8.86,8.832,8.832,0,0,1,8.812,8.86" transform="translate(-15943.77 -3601.218)" fill="#fff"/>
    <path id="Path_41" data-name="Path 41" d="M47.823,67.382a4.981,4.981,0,1,1-4.98-5.009,4.993,4.993,0,0,1,4.98,5.009" transform="translate(-15918.423 -3597.855)" fill="#fff"/>
    <path id="Path_42" data-name="Path 42" d="M52.455,68.239A18.711,18.711,0,1,1,33.739,49.418,18.767,18.767,0,0,1,52.455,68.239" transform="translate(-16115.925 -3709.941)" fill="#fff"/>
    <path id="Path_43" data-name="Path 43" d="M24.754,45.872A13.185,13.185,0,1,1,14.793,61.6a13.117,13.117,0,0,1,9.961-15.733" transform="translate(-16120.741 -3743.341)" fill="#fff"/>
    <path id="Path_44" data-name="Path 44" d="M21.25,42.771a8.856,8.856,0,1,1-6.7,10.569,8.812,8.812,0,0,1,6.7-10.569" transform="translate(-16121.917 -3769.293)" fill="#fff"/>
    <path id="Path_45" data-name="Path 45" d="M18.575,40.409a5.011,5.011,0,1,1-3.784,5.975,4.992,4.992,0,0,1,3.784-5.975" transform="translate(-16119.063 -3788.918)" fill="#fff"/>
    <path id="Path_46" data-name="Path 46" d="M21,54.8a13.185,13.185,0,1,1-9.961,15.733A13.117,13.117,0,0,1,21,54.8" transform="translate(-16153.222 -3666.082)" fill="#fff"/>
    <path id="Path_47" data-name="Path 47" d="M18.726,58.468a7.037,7.037,0,1,1-5.318,8.4,7,7,0,0,1,5.318-8.4" transform="translate(-16131.456 -3633.087)" fill="#fff"/>
    <path id="Path_48" data-name="Path 48" d="M12.186,69.485a16.205,16.205,0,0,1,9.092-31.108,16.205,16.205,0,0,1-9.092,31.108" transform="translate(-16240.71 -3811.21)" fill="#fff"/>
    <path id="Path_49" data-name="Path 49" d="M8.218,60.335A8.894,8.894,0,1,1,19.2,54.313,8.911,8.911,0,0,1,8.218,60.335" transform="translate(-16229.864 -3766.335)" fill="#fff"/>
    <path id="Path_50" data-name="Path 50" d="M20.5,25.485l-.029.029Z" transform="translate(-16068.838 -3917.006)" fill="#fff"/>
    <path id="Path_51" data-name="Path 51" d="M56.108,21.213l-.029.029Z" transform="translate(-15760.812 -3953.966)" fill="#fff"/>
    <path id="Path_52" data-name="Path 52" d="M41.769,32.8c.261.029,1.071.077,1.593.087-.2-.01-.405-.01-.627-.029-.4-.029-.811-.039-.965-.058" transform="translate(-15884.62 -3853.734)" fill="#fff"/>
    <path id="Path_53" data-name="Path 53" d="M412.845,237.608c-1.052,1.332-1.419,7.673-3.272,10.8a38.134,38.134,0,0,0-2.809,5.975,12.908,12.908,0,0,1-2.963,3.909,19.3,19.3,0,0,0-3.33,3.832c-.3.608-1.863.791-2.316,1.264-.473.444-2.847,2-3.34,2.925s-2.6,3.417-2.925,3.87a23.661,23.661,0,0,1-2.1,2.037.581.581,0,0,1-.116.183c-.386.589-1.583,2.23-2.654,2.51-1.284.338-.087,2.471-1.052,3.137-.975.637-1.177,1.255-1.245,2.982l-.029.116c-.135,1.525-1.573.3-1.535,2.452s.309,3.108.907,4.015c.56.956.048,1.93.405,4.121a31.727,31.727,0,0,0,1.11,4.218c.319,1.033.589,1.814.589,1.814s-.338.647-.569,4.208c-.222,3.6-.714,3.619-.347,5.415.347,1.8.183,1.95-1.033,3.668a19.033,19.033,0,0,1-3.774,3.465c-.869.7-3.648,1.65-4.363,2.355-.685.685-1.12,1.892-2.172,2.953a16.33,16.33,0,0,1-3.291,2.674c-1.2.734-3.871,1.38-2.075,3.33,1.786,2,1.93,4.218,1.284,7.741-.618,3.513-1.612,5.173-2.761,5.231,0,0-6.766,2.046-5.762,5.231.135.386.232.734.348,1.081.695,2.278.6,3.05-1.564,4.71-2.529,1.93-4.98,3.127-6.071,6.843-1.033,3.726-1.844,4.893-6.032,6.554-4.228,1.651-3.948,5.009-5.984,5.1-2.065.077-5.318,2.075-6.679,2.143-1.37.039-2.847-1.776-5.82.222s-4.874,3.571-6.8-.454,1.458-6.728-.6-9.913c-2.046-3.2-1.766-6.09-1.988-7.152a4.106,4.106,0,0,0-.348-.743c-.9-1.544-3.243-4.575-2.982-7.239.328-3.224-.753-10.453-.753-10.453.039-.019-6.062-10.974-5.473-14.372.106-.463.2-1,.386-1.651,1.023-3.88,3.33-10.077,5.357-12.712,2.326-3.127,2.239-7.056,1.235-7.654-1.042-.589-1.515-4.488-.454-4.575,1.081-.039-.676-.27-1.622-2.838a26.844,26.844,0,0,1-.666-4.314,8.426,8.426,0,0,0-.763-2.616,4.994,4.994,0,0,0-1.506-1.824c-.483-.4-.965-.82-1.535-1.293-2.722-2.432-5.733-5.926-5.367-7.982.463-2.423,1.786-3.272,1.824-4.237a5.835,5.835,0,0,1,.193-1.178,22.375,22.375,0,0,1,.859-2.548,6.036,6.036,0,0,1,.463-.849,2.209,2.209,0,0,0,0-2.857,9.187,9.187,0,0,0-2.123-2.51c-.425-.482-.84-.994-1.226-1.515l-.029-.029a18.843,18.843,0,0,1-3.755,1.062c-1.129.009-2.461.695-3.793.743-1.313.048-2.085.2-1.863-1.235.232-1.457,1.94-1.5-.116-2.741-2.066-1.226-1.863-1.892-3.388-1.853a35.847,35.847,0,0,0-3.909.068l-.145.019c-.782.145-2.056.338-2.838.444a6.087,6.087,0,0,1-.666.126,1.046,1.046,0,0,1-1.178.994c-1.2.029-1.419.869-2.394.888a6.919,6.919,0,0,0-2.78,1.062,11.913,11.913,0,0,1-2.191.695c-.676.261-1.342.483-2.008.724a4.771,4.771,0,0,1-.521.154,3.327,3.327,0,0,1-1.872-.087c-1.178-.473-.174-.985-2.008-.936s-2.4.048-4.672.135c-2.21.048-3.089.907-3.687.907a13.4,13.4,0,0,0-2.683,1.11l-1.786.29c-.183.029-.348.058-.541.106,0,0-.6.685-2.287-.454a34.512,34.512,0,0,0-3.957-2.21c.019,0-3.813-2.423-4.662-3.089-.637-.492-.811-.984-1.486-1.5a3.133,3.133,0,0,0-.869-.463,11.527,11.527,0,0,1-2.558-1.313c-.647-.492-2.181-1.322-2.181-1.824.029-.5.029-2.037.029-2.037l-.3-.666a5.447,5.447,0,0,0-1.679-2.027c-1.293-.83-1.081-1.178-1.95-1.66a6.564,6.564,0,0,1-1.757-1.863,2.974,2.974,0,0,1-.4-.126c-.656-.26-1.892-.888-1.409-1.911,0,0-1.969.531-2.867-.483-.434-.521-.685-.762-.791-.907l-.116-.116s-1.8-.849-1.573-2.046-.222.338.212-1.2c.454-1.583.454-.531.454-1.583v-2.065a5.68,5.68,0,0,1,.454-1.882s1.564-2.374,2.017-2.915a1.378,1.378,0,0,0,.444-1.081V223.13c0-1.863.434-2.384.434-3.928s-.2-.869-.2-2.4,1.1-3.417,0-3.774c-1.129-.357-.917-.174-1.332-1.042-.463-.859-1.129-.859-.907-2.085.222-1.2,0-.512.878-1.873a23.767,23.767,0,0,1,3.118-3.359,5.787,5.787,0,0,1,1.313-2.519,8.64,8.64,0,0,0,1.525-1.834c.463-.676.463-3.436,3.9-4.845s2.4-3.426,3-3.619h.029a7.3,7.3,0,0,0,2.992-1.071,12.364,12.364,0,0,1,2.934-1.592s3.175.289,3.166-.888c-.029-1.187,1.641-2.288,1.641-2.288.058-.434.116-.888.184-1.351a8.114,8.114,0,0,1-.463-2.181c0-1.023.84-1.3,1-2.152.193-.83,1.226-1.631,2.037-2.77.791-1.139,1.824-.936,3.031-1.361,1.274-.425,2.268-.415,2.664-1.023.377-.685,2.027-.6,1.979-1.448,0-.83.792-1.621.965-2.287s.357-1.5.357-1.5-.251-.84,1.168-.589a3.874,3.874,0,0,1,2.259,1.448,6.152,6.152,0,0,0,2.007.772c.821.039,1.824.077,2.577.154a8.244,8.244,0,0,1,2.008.068,7.578,7.578,0,0,0,1.6.608,3.391,3.391,0,0,0,.647.058c.473.019.676-.193,1.1-.666.54-.647-.994-.039.54-.647a7.865,7.865,0,0,1,3.1-.647c.772.039.946-.463,1.7-.888a11.106,11.106,0,0,1,3.06-.695,12.662,12.662,0,0,1,1.892-.241,16.887,16.887,0,0,0,4.382-.087c3.552-.309,5.193-.55,5.193-.55,1.1.058,2.123.116,3.185.174,0,0,1.853-.087,2.413-.058s2.374-.048,2.374-.048c.811-.135,1.583-.251,2.384-.376,0,0,2.181.463,2.239,1.265.039.811,1.622-.106,1.622-.106s-1.544,1.564-1.148,2.056c.376.541,1.361,1.872.859,2.654s-1.39,1.235-1.515,2.191a2.427,2.427,0,0,0,.627,1.815,1.739,1.739,0,0,0,1.506,1.042,1.975,1.975,0,0,1,1.255.763c.454.434.859.927,1.332.965.917.019,2.017.4,3.291.444,1.245.039,4.141.511,4.141.511a2.341,2.341,0,0,1,1.516,1.94c.241,1.621.569,1.621,1.3,1.641.7.048,3.166-.347,4.064.483.936.82.222.647,1.3,1.477,1.081.8,3.214,1.371,4.015.763.859-.608,1.583.193,1.525-.9-.019-1.12-.965-3.04-.145-3.639s1.293-2.027,2.316-1.969,2.519-.859,3.61.28a8.743,8.743,0,0,0,1.95,1.641,11.968,11.968,0,0,0,3.282,1.206,2.327,2.327,0,0,1,.772.212c.56.241.975.647,1.448.656.676.029,3.175-.029,4.035.135.84.2,3.784,2.789,5.415,2.191,1.612-.569,1.708-1.94,3.851-1.9,2.123.058,1.844.994,3.137,1.023,1.3.058,1,.367,2.287.376,1.3.048,1.641.212,2.114.212.348.01,1.168,2.432,1.6,4.45a9.832,9.832,0,0,1,.26,2.23c-.1,1.689,1.419,3.851-.724,2.114-2.152-1.718-1.824-1.554-2.336-2.336s-1.554-2.664-1.9-3.156c-.347-.444.521.965.56,1.737.019.753,2.7,2.828,2.732,4.063.039,1.216-.444.907,1.042,2.606a12.964,12.964,0,0,1,3.214,5.975,8.648,8.648,0,0,0,.9,2.365c.347.608.569.907.328,1.158-.492.425.6-.444,1.293,1.226.666,1.67,2.471,5.125,2.471,5.6a9.088,9.088,0,0,0,.184,2.838c.328.608,0,0,1.6,1.67a7.3,7.3,0,0,0,2,1.4,2.068,2.068,0,0,1,.7,1.313c.454,1.921-.791.29,1.255,2.992,2.046,2.683.637,3.262,2.191,3.552,1.573.309,3.137,1.8,4.189,2.992,1.091,1.168,1.052,1.776,1.834,2.374a2.638,2.638,0,0,1,1.4,2.065c-.029.869-.029,1.622-.029,2.065a.923.923,0,0,0,.029.27c.087.425.367.927.888.927.608,0,.6,1.158,1.515,1.158s2-.174,3.542-.309c1.5-.164.9-1.187,2.577-1.216,1.651,0,1.216-.434,3.34-.434s3.3.116,4.044-.463c.782-.608,2.133-1.486,2.133-1.486s1.641-.6.6.714m-4.421,72.515c-.473.348-2.046-2.085-2.008-.28.039,1.824.666,2.3.666,2.3s1.013,1.322-.541,1.351c-1.564.058-1.467,1.2-1.264,3.214-.077.2-.145.347-.2.521q-3.706,10.048-7.7,20.645s-1.544,1.651-2.664,1.7c-1.129.029-2.741,2.22-4.5.135s-2.123-1.728-1.679-3.311c.463-1.621,1.2-2.857.6-3.552-.589-.656-1.863-.82-.888-2.944.965-2.095,1.235-1.6,2.509-3.89s2.982-1.448,2.181-3.475c-.849-2.036-1.284-2.172-1.129-4.565.164-2.355-.125-2.674.743-3.88.869-1.187,3.137-2.085,3.832-3.108s3.021-.772,3.88-2.1c.849-1.351,1.515-1.863,2.5-3.185,1.042-1.351,1.486-1.351,1.544-2.345a26.9,26.9,0,0,1,.637-3.4s-.251-1.332,1.641,1.062c1.872,2.394,1.911,1.583,2.1,4.16.183,2.616.232,4.6-.261,4.951M214.816,40.988c-1.467.589-2.307,1.361-3.378,1.679-1.081.357-1.573,2.442-5.753,5.183-4.247,2.789-3.977,3.523-3.977,3.5,0,.019,3.764.154,4.449.154.695.029-1.3,1.235-4.285,2.326-2.982,1.11-.772,1.892,1.824.946,2.635-.956,1.7,1.235,1.7,1.235s-2.973,2.413-1.216,1.747c1.737-.656.54.579-.762,1.979a6.862,6.862,0,0,1-3.1,1.66c.714-.077,1.525.019,1.554.531.068.772-1.525.579-2.529.975-1.033.386-1.66.656-3.7,1.438a43.584,43.584,0,0,0-4.112,2.027c-.627.241.946.55,2.49.637,1.535.039,1.757-.193,2.847.328,1.091.463.994.531,2.587,1.332,1.641.791.164,1.776-2.172,2.731-2.345.927-3.06.29-3.388-.512-.3-.791-2.143,1.013-2.143,1.013s-2.635,2.674-1.062,2.143c1.564-.5,6.988-1.641,7.615-1.892.676-.261,1.371-.811-2.307,1.583-3.706,2.423-7.779,5.859-8.928,6.332s-2.143,1.824-4.865,3.629c-2.693,1.8-2.49,1.438-5.067,3.079-2.606,1.631-.83,1.544-2.654,3.513a46.939,46.939,0,0,1-5.685,5.482c-3.87,3.407-3.1,1.612-5.106,2.49s-2.635,2.577-3.127,2.809c-.492.2.135.724.376,1.959.212,1.177-.241,1.65-2.442,4.276-2.191,2.654-2.587,1.158-2.152,2,.4.849-.685,2.751-.685,2.751s-1.042,2.886-1.728,4.179c-.55.772-1.129,1.515-1.679,2.268-2.094.917-2.809,1.235-3.542.8-.734-.454-1.129-1.168-1.515-1a11.417,11.417,0,0,1-3.388,1.081c-1.892.328-2.075-.734-3.311-1.226-1.207-.492-.956-3.957-1.371-5.646-.405-1.641-.888-2.21-1.612-5.222-.753-3.031,2.027-6.139,2.027-6.139a48.048,48.048,0,0,1,4.044-3.253c.917-.56,1.583-2.77,1.236-2.616a12.91,12.91,0,0,1-4.45.7c-1.525-.174.039-1.544,1.332-2.075a9.992,9.992,0,0,1,3.755-.405,11.086,11.086,0,0,1-2.056-2.731c-.261-.84-1.564,1.525-3.774,2.741-2.191,1.245-1.863-.82-1.863-.82a9.37,9.37,0,0,0,3.175-3.1c1-1.834-.608-3.262-.975-5.125s-.936-1.322-4.083-1.573-3.581,2.1-6.245,3.253-2.037.454-5.6,1.091c-3.571.676,4.643-5.077,4.681-5.077-.019,0-3.755,1.284-6.853,2.6-3.089,1.342-1.226-1.7,2.249-3.195S129.918,77.145,132.6,76c2.7-1.149,1.7-2.384-.357-1.959-2.075.4,7.673-6.158,7.7-6.158,0,0,2.481-1.158,2.664-1.718a15.376,15.376,0,0,1,3.89-3.137c.994-.376,3.282-1.332,6.785-2.76,3.5-1.409,2.008-.058,2.008-.058.666-.347,1.284-.714,1.911-1.062.386-.685.782-1.38,1.158-2.066.627-.4,1.284-.8,1.9-1.207.444-.425.888-.82,1.293-1.245a2.2,2.2,0,0,1,.367.29c.425-.125.84-.27,1.245-.405.319-.29.656-.55.965-.82.261-.068.5-.135.762-.222.444-.637.9-1.255,1.351-1.872a5.634,5.634,0,0,0,.685-.058c.637-.28,1.264-.541,1.872-.859a5.963,5.963,0,0,0,.927.048c.415-.434.84-.878,1.284-1.3.309-.376.6-.734.888-1.1.55-.174,1.139-.376,1.718-.541a4.456,4.456,0,0,1,.463.27c.222-.367.434-.714.637-1.052.695-.27,1.428-.531,2.114-.791.261.106.483.193.7.27.319-.222.627-.483.975-.734.521-.386,1.081-.811,1.631-1.216.512-.106,1.062-.183,1.6-.29.135.116.28.222.454.367.54-.251,1.139-.512,1.708-.762.512-.28.994-.54,1.486-.8.338-.1.695-.212,1.042-.29l.039.126c.347-.212.724-.444,1.091-.656.608-.116,1.236-.241,1.853-.357.386-.145.782-.29,1.207-.473a2.618,2.618,0,0,0,.347.589c.473-.386,1.014-.753,1.506-1.149,0,0,1.525.087,1.921.087s1.429-.077,1.757-.087a19.136,19.136,0,0,0,2-.859c.415.261.859.473,1.274.7a11.082,11.082,0,0,1,1.274.058,7.964,7.964,0,0,1,1.033,1.062l-.029.019a3.472,3.472,0,0,0,.454.116c1.757.367-.376,1.882,0,1.757.347-.135,3.677-1.342,4.469-1.737a49.68,49.68,0,0,1,6.853-2.606c3.388-1.042,3.552-.039,3.552-.039a4.756,4.756,0,0,1-2.22,1.679m-3.32,40.48c-2.278,1.187-5.173,3.291-5.164,3.8.01.531-1.361,1.091-2.6,1.6a7.8,7.8,0,0,1-3.986.521c-.676-.222-3.34,1.013-3.34,1.013.463-.656.946-1.351,1.419-2.008-1.149.222-2.278.434-3.407.656a33.224,33.224,0,0,1,2.712-2.577c.405-.164,2.355-1.766.483-.975s-3.388,2.336-4.083,1.863c-.714-.492,3.436-4.314,4.565-3.977,1.129.29.676,1.38,1.718.965a9.357,9.357,0,0,0,3.069-1.93,6.414,6.414,0,0,1,2.954-1.708c1.477-.627,1.477-.135,3.06-1.4,1.573-1.293,5.463-1.593,6.312-.039,0-.01-1.477,3.011-3.716,4.189m-11.746,218.5c-.531,1.9.454,2.838-.241,2.239-.695-.56-2.828-2-1.8.647,1.033,2.6,3.706,9.9,4.247,11.766.56,1.824-.772,1.641-.241,2.983.492,1.361.743,2.374,1.091,3.34.386.975-.492,3.147-.492,3.147.174,1.1.328,2.239.492,3.378,0,0,.183.859-1.766.936-1.94.1-.029,1.5-.058,1.872-.019.405-4.353.473-6.322.319-2-.154-4.72,2.886-5.531,3.822-.791.917-2.307,3.668-3.282,5.106-.975,1.457,1.679,3.089,3.494,4.865,1.8,1.8,1.66,2.21.241,3.7-1.4,1.5-.84,2.22-1.052,4.7-.193,2.471-.926,3.832-.82,2.268a2.1,2.1,0,0,0-1.187-2.123,11.846,11.846,0,0,0-.019,4.005c.4,1.757.985,5.608.608,7.046a.188.188,0,0,0-.029.116c-.463,1.351-1.8,1.332-3.871,2.345-1.979.994-2.857-.637-5.5-.724a25.873,25.873,0,0,0-3.282-.212c-.212.068-.241.232-.077.579.492,1.023,2.22.811,4.556,1.477s-.714,1.313.849,2.76c1.573,1.419,2.191.965,2.761,2.5.569,1.554.666,2.635-.309,4.942-1.014,2.3-7.345,2.278-8.561,2.471-1.187.2,1.544,2.143,2.925,3.475,1.342,1.322.82,1.564.405,2.9-.415,1.361-2.085-.058-4.99.338-2.867.386,1.062,2.239,1.564,3.291.483,1.062,2.587.5,4.189,1.11,1.583.55.376,1.052-.637,2.857-1.013,1.776.608,1.737.84,2.423a2.328,2.328,0,0,1-1.1,3.021c-1.544.618-1.284,2.51,0,4.3a3.261,3.261,0,0,0,3.822,1.612c1.322-.309,2.21-.647,3.32,2.471,1.052,3.137.367,1.824-.483,2.336-.83.512-.367,1.139.212,3.523.55,2.394.444,1.7-.985,2.374-1.4.724.357,1.728,3.04,3.349,2.731,1.6.608.618,5.154,4.314,4.507,3.639,10.183,1.255,10.82,1.255-.637.521-1.274,1.052-1.921,1.583a13,13,0,0,1-1.873.415,8.9,8.9,0,0,0-1.815.589,6.274,6.274,0,0,0-1.236.84l-.241.058c-.7.2-2.76.782-3.33.975a8.231,8.231,0,0,1-3.513,0,7.582,7.582,0,0,0-3.253.54c-.444.154-3.436-1.631-3.436-1.631s-1.187-.212-1.621-.348c-.463-.183-.849-.984-.849-.984a6.188,6.188,0,0,1-2.2-1.313c-.811-.859-1.264-.386-1.264-.386a9.91,9.91,0,0,1-2.992-2.847,7.507,7.507,0,0,0-1.033-1.2v-.048c-.27-.733-2.587-2.394-3.388-2.934a30.49,30.49,0,0,1-3.108-3.2s-.029-2.751.521-2.915c.569-.174.608-2.567.444-3-.125-.434-1.062.154-1.776.212-.753.058-2.693.492-2.693.492a24.776,24.776,0,0,0-.656-3.33c-.347-1.023,1.033-.618,1.033-.618.1-.608.164-1.216.241-1.8a25.277,25.277,0,0,0-1.371-3.7c-.83-1.689-1.631-3.33-1.843-3.89-.193-.579-1.361-2.577-2.085-2.857s-.184,1.284.473,2.8c.656,1.564,1.7,3.147,1.448,3.861-.28.666-1.023-.048-2.085-2.094-1.062-2.085-.618-3.591-1.4-3.378-.8.193-1-2.23-2.606-3.7-1.592-1.419-.666-3.34-1.129-5.058-.454-1.7-2.809-2.51-4.565-4.507-1.766-1.979-.135-2.1-.135-2.1s-1.786-5.965-2.181-7.162c-.405-1.235-1.9-4.836-2.722-7.258a12.781,12.781,0,0,0-1.621-3.34c-.637-1.149-2.9-3.648-1.766-3.031,1.158.589-2-5.183-2-5.183-.01-.058-4.507-11.177-5.695-14.7-1.245-3.648-5.743-14.237-5.781-13.7-.068.415-.589-.261-1.168-.627a2.559,2.559,0,0,0-.454-.193c-.685-.087-2.22-1.679-3.388-2.818-1.139-1.149-3.233-.473-4.565-.946a43.672,43.672,0,0,1-5.328-2.423,7.241,7.241,0,0,1-3.282-3.031s-.811-1.139-1.766-2.22c-.984-1.11-3.455-2.664-4.43-4.894a28.235,28.235,0,0,0-4.189-5.926c-1.622-1.892-2.654-2.4-4.411-2.548-1.747-.058-1.052-1.834-1.226-2.442-.83-2.741-.676-3.764-.405-4.266-.087-.28.521-.454.521-.743,0-.666.569-2.452-.608-1.7s-1.593-1.013-2.123-2.481-.232-1.766-.029-2.143c.183-.347.83-.859-.01-2.336s.319-1.554.782-1.689c.415-.077.6-.965.869-1.457a.49.49,0,0,1,.145-.135c.348-.425,0,0-.415-1.052s.068-1.071,1.12-1.766c1.091-.695.512-2.6.386-2.983s-1.631-6.013-1.979-6.64c-.4-.57-1.409-.782-1.564-1.245a6.119,6.119,0,0,0-1.023-2.152c-.608-.734-1.718.077-2.1.386-.4.29-.376.685-.994,1.554-.135.212-.2.28-.251.357l.106.125c.145.029.473.077.869.734.743,1.187-1.39,1.071-1.65.232s-1.834-1.091-2.838-.811a1.761,1.761,0,0,1-2.114-.425c-.762-.656-.6-.8-2.712-.8-1.544,0-2.23-1.873-2.645-2.876.135-.28,1.371-.251,2.094-.454.791-.232.907.068,1.332-.048.328-.116,1.226.357,1.544.521.222.782.29.637,2.268,1.573,1.448.695,1.853.589,2.22.357a2.36,2.36,0,0,1,.734-.376c.984-.28.695-1.573,2.1-2.056,1.39-.483,1.216-.048,3.147.541s.753,3.793.743,3.793A3.268,3.268,0,0,0,88.762,264c-.463-1.467,2.017-2.307,2.017-2.307s-.434-1.477-.743-2.481,1.216-1.486,1.564-2.191c.386-.676,1.187.888,1.187.888a1.231,1.231,0,0,0,.319-.869c-.039-.473.1-.917,1.023-1.149.917-.212,1.12-.878,1.515-1.564.367-.676.367-.676,1.573-1.284s.647.512.647.512-.512.531-.984.955c-.222.222-.338.348-.29.521a1.9,1.9,0,0,0,.685.734c.8.685-.328,1.873-.029,3.089.261,1.226,1.371,1.264,2.307,1.013.936-.212-.1-1.255-1.274-2.152-1.207-.917.811-2.886,1.457-3.04s2.259-.57,2.934-.734c.656-.154,1.226.685,1.226.685a1.173,1.173,0,0,0,1.506.84c1.235-.3,1.129-.955,2.5-1.274,1.371-.348,2.374.83,3.089.483a4.539,4.539,0,0,0,1.332-1.844c1.535-.145,3.05-.318,4.633-.454,0,0,.483.183-1.245.589-1.7.377.637.656,2.21,1.023,1.554.348,1.477-.145,2.316.3.811.444-.7,1.882-.7,1.882a7.819,7.819,0,0,0,3.195.039.573.573,0,0,0,.164-.039c1.535-.434,3.446,3.108,4.3,2.867.637-.241,2.558.83,3.253,1.245a.612.612,0,0,1,.241.145s1.1-.222,2.664-.541a29.513,29.513,0,0,1,3.909-.019.884.884,0,0,0,.376-.058c1.033-.193,5.965,1.7,5.965,1.7a3.2,3.2,0,0,0,.415.155c.348.125.685.232,1.033.376,0,0,1.525,1.679,2.3,2.76s.164,1.477,2.239,2.259c2.123.743,1.342.01,1.843,1.033s.348,1.274-.936,2.027.338,1.612.338,1.612,2.037-.077,2.944-.222c.859-.106,1.815-.4,2.645.724a1.831,1.831,0,0,1,0,1.834c.164-.309.338-.608.492-.888A2.623,2.623,0,0,1,159.559,272c1.293.164,2.828.608,5.415,1.178s2.741.55,3.166,1.631a15.169,15.169,0,0,1,.666,2.471c.154-.222.357-.521.656-.907,1.892-2.432,4.314-1.139,5.463-.811s2.249-.26,3.677-.454a29.365,29.365,0,0,1,3.34-.3c1.38-.048,4.556,1.718,5.482,2.095a52.519,52.519,0,0,0,6.11,2.577c3.542,1.206,2.645.212,5.019-.048,2.345-.232.483,1.293,1.95,2.857a16.822,16.822,0,0,1,3.533,5.859c1.12,2.876-.067,4.459-1.506,5.8-1.419,1.361-2.326,1.95-2.625,2.818-.28.878.348,1.313-.154,3.2M74.361,236.739c-.782.1-3.214,2.268-3.581,2.384a1.31,1.31,0,0,1,.164-1.264,7.33,7.33,0,0,1,3.32-2.838c1.564-.589,1.5-.425,2.548.048,1.11.512,1.11-.289,5.212.695a45.638,45.638,0,0,1,7.278,2.4c-1.8,1.438-6.476,1.8-6.148,1.573.386-.212.087-1.235.087-1.235s-1.689.348-1.38-.125c.241-.5-.869-1.525-.869-1.525s-1.158,1.149-1.844.656a4.269,4.269,0,0,0-3.108-.039c-.985.29-.9-.811-1.679-.734m42.517-75.092a7.209,7.209,0,0,0,2.326-3.668,12.763,12.763,0,0,1,2.548-3.649,1.8,1.8,0,0,0-.212-.241s0,.01,2.616-1.216c2.239-1.062-1.815,2.992-2.712,3.8a7.892,7.892,0,0,1,2.384-.55c-.261.531-.569,1.071-.83,1.622,0,0,.6.4,1.6-.5a4.508,4.508,0,0,1,2.905-.685c.087.56.154,1.158.212,1.718.125.541.27,1.091.4,1.631a4.8,4.8,0,0,0,.463.608,2.761,2.761,0,0,1-.463,1.66,4.515,4.515,0,0,1-1.65,1.11c-.589-.1-1.187-.154-1.757-.251-.193-.405-.405-.82-.608-1.178a16.45,16.45,0,0,1-5.164,2.982c-3.629,1.409-3.6,1.4-3.629,1.4,0,.01.608-3.88,1.573-4.594m5.318-47.053c-2.664,1.332-1.718,1.872-2.828,3.455-1.042,1.593-1.274,1.313-1.776.405a3.828,3.828,0,0,0-3.417-1.371c-.772.347-1.6,2.22-1.6,2.22,0-.029.154.869,2.394,2.326,2.259,1.448.212,2.143-.4,4.256-.647,2.075-2.191,1.631-3.542.56-1.322-1.091-2.394.27-.039,1.67,2.394,1.342.039,1.959.135,2.461s-2.751.077-3.677.27c-.936.212-3.05.927-3.87-1.834-.849-2.78-4.942.193-5.946.618-1.023.415-.492.743-2.094,1.4s.627-3.195.627-3.224c0,0,1.39-1.11,2.046-1.766.685-.627,2.78-.56,3.822-1a1.662,1.662,0,0,0,1.013-1.564c0,.048.569-3.031,1.911-3.774a3.362,3.362,0,0,0,1.863-3.311c-.232-1.255-2.481-1.052-3.021-2.365-.56-1.322-3.977-1.274-3.957-1.284-.386.627-.753,1.235-1.139,1.853,0,0-2.413.994-4.913,2.037a33.941,33.941,0,0,1-5.9,1.612c-.734.309-1.457.589-2.21.878-.116-.405-.251-.8-.367-1.206.859-.666,1.708-1.351,2.606-2.027-.9.28-1.8.579-2.7.888-.077-.743-.164-1.525-.261-2.278.6-.695,1.2-1.4,1.815-2.123,1.033-1.293,2.037-2.577,3.108-3.9,0,0,2.1.965,1.9,1.641a14.063,14.063,0,0,1-1.187,2.3s1.467,1.969,2.085,1.708c.6-.212-.4-5.588.145-6.245.56-.772,1.129-1.554,1.7-2.326-.328.888-.666,1.757-.985,2.635.492-.492.985-.946,1.506-1.448.791-.386,1.612-.782,2.4-1.187.936-.473,1.892-.946,2.886-1.419.058.463.135.869.2,1.332-.328.618-.647,1.226-.985,1.824-.347.56-.685,1.091-1.033,1.641,0,.01,3.156-1.689,3.581-1.911.492-.2,2.143-1.071,2.143-1.071a3.175,3.175,0,0,0-2.027-.174c-.753.309-2.239-1.689-.27-2.732s5.048-.5,5.5-.714c.483-.183.029,1.206-.569,1.651-.579.463,2.5-.039,1.93.589-.56.647,2.374.386,2.374.386.28.483.521,1,.772,1.486,0,0,3.349.116,1.477.936-1.882.791,2.056.473,4.16-.212,2.085-.714-.56,1.8-.56,1.8s-3.8,1.448-3.455,2.442c.338,1.042,2.065-.685,4.3-.483,2.21.193,1.766.589,4.874.8,3.1.145,2.114,1.525-.55,2.876M83.2,113.61a13,13,0,0,1-1.863.927c-.6.927-1.216,1.815-1.815,2.712-.048.734-.125,1.477-.174,2.249.125.579.241,1.2.386,1.815-.762.28-1.535.579-2.316.869-.444.772-.917,1.506-1.361,2.249-.627.241-1.235.492-1.844.7-.318-.5-.656-1.033-.975-1.544a12.171,12.171,0,0,1,1.747-2.625c.8-.695,1.959-3.3,2.529-3.523s.386-2.732.878-3.349c.531-.579,2.22-3.079,2.857-3.938,0,0,5.125-.627,4.72-.27s-2.075,3.253-2.77,3.726m-11.66,8.484c-1.708.647-1.245-1.486-1.245-1.486-.685-.164-1.3-.319-1.979-.483,0,0,.232-2.442,1.689-2.191l1.448.251c.048-.743.087-1.5.145-2.259.357-.463.724-.956,1.1-1.428l2.172-.84c.724-.261,2.259-2.712,2.76-1.873.454.821-.9,3.349-.9,3.349-.434.183-.859.347-1.3.531.01,0,1.033,2.587.338,3.05s-2.789,1.621-2.789,1.621.261,1.091-1.438,1.757m3.89-15.617c.357-.531.8,1.564,1.1,2.259.28.7.618-1.7.618-1.7-.048-.454-.077-.917-.135-1.409.83-.1,1.66-.232,2.481-.347-.1.6-.183,1.2-.28,1.766,0,0-.1,1.071-.241,1.959-.164.888-1.293.724-2.191,1.071l-2.027.791c-.27-.569-.541-1.139-.83-1.718,0,0,1.149-2.114,1.506-2.674m2.953-7.712c.55-.241,1.11-.463,1.66-.676.541.145,1.12.251,1.679.386.087.743.164,1.486.27,2.268-.511.1-1,.261-1.544.367-.2-.27-.405-.5-.618-.772-.685.309-1.371.676-2.056,1.023-.135-.319-.232-.608-.357-.946-.608.048-1.158.068-1.747.068.888-.579,1.8-1.139,2.712-1.718m6.592,8.436a5.731,5.731,0,0,1-1.872.965,10.274,10.274,0,0,0-2.355.956c.415-.859.82-1.689,1.245-2.567a20.229,20.229,0,0,1,2.307-1.342c.753-.28.676,1.988.676,1.988m1.371-7.422a11.5,11.5,0,0,0,4.488-.386c1.081-.444,1.544-1.467,2.152-1.728s1.535-.627,2.442-1.023,1.641-1.979,2.288-2.22c.608-.27,2.172-.946,2.172-.946a2.414,2.414,0,0,0,1.342.077c.463-.183.454-1.255.454-1.255a5.454,5.454,0,0,0-2.017-.2c-.473.2-2.461,1.255-3.378,1.843a25.411,25.411,0,0,1-3.031,1.5c-.608.251-2.278-.772-2.278-.782-.183-.695-.357-1.419-.531-2.123,0,0,.994-2.818,1.93-3.214.9-.4,3.108-1.313,3.735-1.554a11.685,11.685,0,0,0,1.8-1.226s1.467-.386,2.037.029c.541.425,1.8-.125,1.8-.125a8.72,8.72,0,0,1-.512-1.3c-.125-.6-.2-1.245-.319-1.824a4.63,4.63,0,0,1,2.326-2.577c1.757-.753,3.6-.859,7.635-3.687,4.064-2.867,3.716-2.915,7.828-4.672s3.619-1.525,6.254-2.674c2.683-1.11,3.841-1.612,6.2-2.587,2.336-.985,2.857-1.2,4.71-1.979a45.006,45.006,0,0,1,4.739-1.959,5.767,5.767,0,0,1,4.353.386c-1.071.676-2.123,1.3-3.175,1.959,0,0-3.475,2.316-4.778,3.1-1.322.753-3.745,2.654-5.1,3.224-1.322.56-2.374,3.417-3.484,4.112a31.8,31.8,0,0,1-3.793,1.815c-1.5.627-6.93,2.558-7.857,3.359-.907.82-2,4.073-1.178,3.735.791-.357,3.195-1.583,2.741-1.2-.454.434-5.386,3.166-5.386,3.166-.135.425-.3.859-.473,1.284a21.278,21.278,0,0,1-3.118,1.757c-1.612.685-.907,1.872-.338,2.268.54.4-1.506,1.255-1.486,1.255-1.9.753-3.774,1.477-5.685,2.21,0,0-3.021,1.7-3.484,1.892-.473.222-5.463,2.712-5.444,2.712-.019.01-5.588,4.189-1.062,2.316,4.527-1.892,8.484-4.179,8.928-4.353.454-.2,4.392-1.67,4.392-1.67a3.908,3.908,0,0,1-2.095,3.378c-2.278,1.38-3.108,2.345-4.17,2.789-1.081.454-2.345.782-3.851,1.409s-2.886,1.2-4.218,1.747c-1.38.55-2.7,1.139-3.166,1.3-.444.174-1.544-2.259-.676-2.818s.579-2.944.579-2.944c-1,.415-1.988.811-2.992,1.226,0,.01.569-2.973,1.737-2.818M303.7,157.014a10.6,10.6,0,0,0,1.042-.425s.946-.444,1.236-.077c.318.415,1.042,1.187,1.042,1.187.309.386-.28,4.189-.28,4.189-.405.058-.811.106-1.235.164-.145.338-.319.666-.483.984-.434-.029-.926-.029-1.37-.087-.077-1.322-.164-2.645-.251-3.948-.251-.492-.5-.956-.753-1.419.357-.193.714-.376,1.052-.57m-.126-4.363c.222-.83,2.432-.087,2.519,1.023.067,1.129-.145,2.114-1.506,2.037-1.38-.087-1.013-3.06-1.013-3.06M23.158,249.441c-1.149-.56-2.336-1.062-3.533-1.573a15.141,15.141,0,0,0-.405-2,3.949,3.949,0,0,0-.8-1.564,1.083,1.083,0,0,0-.637-.492c-.068-1.506-.164-3.06-.241-4.6.241.4.483.878.743,1.419.656,1.438,2.094,1.342,2.8,3.031.743,1.679.946,3.793,2.23,4.131a2.219,2.219,0,0,1,1.988,2.674c-.116,1.728-2.143-1.023-2.143-1.023M67.451,127.064a10.016,10.016,0,0,1-3.61,2.075c-.415.125,2.133.743-.251,1.583-2.365.83-1.728,1.544-4.17,1.457-2.442-.145-2.558-1.235-3.118-.483a13.111,13.111,0,0,1-5.608,3.87,37.677,37.677,0,0,0-3.822,1.361c-.193-.492-.4-1.013-.569-1.5,0,0-3.407,1.766-3.629-.048-.183-1.8,2.191-2.509,4.276-3.156,2.1-.627,3.88-1.2,3.88-1.2s-6.235.83-6.891.811c-.6,0,.405-.869,1.8-1.293,1.38-.444-1.187-.405-.695-1.9.521-1.515.888-1.8,2.722-2.394,1.824-.56,2.143-1.071,4.063-1.5,1.873-.425,1.8-1.206,3.118-.859s2.809.222,3.195-.685c.367-.927-.347,1.342.319.656.608-.618,1.033.164,1.245.724l-.058-.164c-.492-1.969,1.264-4.353,2.5-4.411a2.335,2.335,0,0,1,1.882.9c-.135-.849-.29-1.728-.444-2.6,1.042-.386,2.114-.782,3.137-1.149a1.382,1.382,0,0,1-.7,1.042s-2.384,4.247-2.432,6.766c0,2.538,4.816.984,3.861,2.085m189.921-7.056c1.158-.183,2.548-.994,1.235-1.091-1.293-.077-1.988.656-1.805-1.409.212-2.046.6-2.8,2.239-1.776,1.631,1.042,2.471.56,2.471.56s-.994-2.413,1.322-2.239c2.287.183,2.664-.193,3.562.386.878.579,4.237,2.249.82,1.988-3.426-.232-2.548.068-1.071,1.351,1.525,1.284.338.54.338.54-.531.512,1.245,3.967-1.177,4.2a13.208,13.208,0,0,0-4.015.734c-1.689.521-1.66,1.168-3.465.521-1.757-.627-2.22-.685-2.23-1.573a2.168,2.168,0,0,1,1.776-2.191M300.13,49.086c1.815.01,2.326.01,5.936.039,3.581.048,4.237-.763,6.7-.734,2.442,0,4.1.039,6.042.039,1.911.01,5.888.01,5.888.01s1.3,1.245-1.023,2.133c-2.3.927-2.664,1.062-4.469,1.062A23.882,23.882,0,0,1,313.864,51a6.723,6.723,0,0,0-2.1-.347s4.865.956,6.641,2.8a5.606,5.606,0,0,0,4.363,1.834c.907.039.5.936-1.583.907a12.932,12.932,0,0,1-4.2-.956c-.975-.454-.724-2.567-2.876-2.278-2.133.261-1.573-.309-2.8,2.21s-.2,3.417-2.133,2.5c-1.9-.927-1.235,1.168-4.208-.965s-2.847-1.786,1.042-2.674c0,.029,1.351-1.593-.058-1.622-1.409,0-1.959,1.622-3.533,1.593-1.564.019-3.591-.029-3.832-1.8-.222-1.786-.251-3.118,1.544-3.118M452.273,213.633c-.8-1-1.564-2.008-2.345-3.011a4.245,4.245,0,0,0,2.027-.521c-.039-.357-.1-.695-.135-1.043-3.175.386-2.751-1.467-3.938-2.056a1.792,1.792,0,0,0-.9-.2c-2.6,0-2.172-1.313-3.06-2.934-.888-1.641-1.158-.164-5.405-.328a31.138,31.138,0,0,0-5.27.135c-.589.058-1.091.106-1.622.106-1.457,0-3.677-1.062-6.505-1.515-2.809-.483-2.741-3.166-3.629-4.054-.907-.926-3.542,1.728-5.8,1.274a6.624,6.624,0,0,1-3.658-2.915c-3.05-1.081-4.478-3.813-5.772-6.119s-3.909,1.457-3.861,2.5a3.005,3.005,0,0,0,.531,1.351,22.792,22.792,0,0,0,3.417,4.15c1.679,1.67.328,1.525,1.438,3.465.917,1.641,2.924,3.812,3.967,4.189a.572.572,0,0,0,.482.029c.724-.444,3.735.029,4.9-.56,1.2-.569,4.266-4.527,4.266-4.527a18.314,18.314,0,0,0,.367,2.606,3.516,3.516,0,0,0,.27.772,7.779,7.779,0,0,0,2.259,2.124,4.344,4.344,0,0,0,2.519.453c.444,0,1.187,1.322,1.776,1.921s.6.454,1.052,1.187.618,2.49-1.139,3.938c-1.757,1.467-1.023,1.467-2.336,1.467-1.332,0-.444,1.757-.444,2.191s.019,1.612.019,1.612-1.921.6-2.065,1.9-.714,1.023-2.654,1c-1.921,0,.3,2.066-.444,2.22a19.853,19.853,0,0,1-2.973.125c-1.062-.019-1.284-.019-1.641-.019h-.145c-.425,0-1.178,1.187-1.313,2.2-.154,1.042-1.207,1.023-2.683,1.757-1.515.753-1.65,1.766-3.619,1.776a2.166,2.166,0,0,0-2.1,2.065,19.954,19.954,0,0,1-5.791,1.187c-2.577,0-.733.878-3.06,1.631-2.278.782-2.123.029-2.905-.849-.743-.907-.743-1.65-1.081-3.591a21.8,21.8,0,0,1,0-4.3,4.454,4.454,0,0,0-.106-1.65,3.46,3.46,0,0,0-.811-1.149c-1.081-1.206-2.625-1.5-3.909-4.324-1.264-2.857-2.046-2.278-4.092-3.774-2.056-1.515-1.506-6.158-1.506-6.158-1.042-3.639-2.268-2.751-3.88-4.276-1.622-1.544-.695-2.886-3.176-5.975s-1.815-1.718-3.33-4.015a11.387,11.387,0,0,1-1.245-3.475,37.07,37.07,0,0,1-.743-5.82c-.039-1.1-.241-1.882-.29-3.118-.068-1.245.9-1.525,1.66-2.143a1.191,1.191,0,0,0,.174-.135,3,3,0,0,0,.676-2.008,48.787,48.787,0,0,0-.261-5.193,1.642,1.642,0,0,0-.183-.859c-.135-.193-.386-.27-.84-.3a13.9,13.9,0,0,1-3.571-.415c-1.158-.357-.241,1.554-2.2,1.641-1.93.116-1.776-.058-3.311-1.38a2.324,2.324,0,0,0-2.828-.415s-.618.772-1.081,1.226-1.5-.222-1.5-.222c-1.062-.145-2.114-.29-3.176-.444,0,.01-.743-1.448-1.139-2.268a1.922,1.922,0,0,0-1.892-1.033c-.82-.039-1.6-1.515-1.988-2.316a9.4,9.4,0,0,1-.936-3.919c-.1-1.235,0-1.583.1-1.651a7.248,7.248,0,0,1-2.645-1.39c-.077-.087-.154-.116-.193-.2-.637-.473-1.158.164-2.664.415-1.68.222,0,0-.782.917-.8.956-.956,1.419-1.873.251-.936-1.168-.463.791-.463.791.521.772,1,1.544,1.515,2.326.936.956,1.834,1.921,2.731,2.876-.3.28-.637.608-.955.907-.743-.347-1.506-.7-2.268-1.071.492.569.984,1.139,1.457,1.67-.28.058-.55.106-.82.135.068.55.154,1.071.27,1.631,0,0-2.085-.241-2.78-.434a9.582,9.582,0,0,1-1.93-1.081c-.463-.618-.907-1.2-1.332-1.815a13.838,13.838,0,0,0-.7-2.78c-.328-.82-.434-1.293-1-1.371a2.335,2.335,0,0,0-.463-.01c-1.023.106-1.921-2.674-2.3-3.195-.357-.5-.444-3.793-.444-3.793-1.12-.859-2.259-1.757-3.407-2.625a1.383,1.383,0,0,1-.251-.212,11.7,11.7,0,0,1-2.133-.261c-.724-.2-1.129-1.062-2.568-1.621-1.448-.579-2.287-2.288-2.818-2.654A13.861,13.861,0,0,1,316,145.422a4.181,4.181,0,0,0-.946-.849c-.5-.212-.627.444-1.747.376-1.641-.116-.512,2.973-.512,2.973a23.267,23.267,0,0,0,2.857,2.152c1.863,1.284,2.085,2.1,2.085,2.1.328.627.685,1.255,1.023,1.863.9.338,1.814.656,2.722.985,0,0,.241,1.168.811,1.525a14.87,14.87,0,0,1,5.241,2.558c3.475,2.471,1.486,4-.405,1.776s-3.349-.318-2.6.193c.743.541,2.983,2.934,1.94,2.886-1.062-.077-1.506.888-2.162,2.017-.637,1.071-2.587,1.149-2.587,1.149-.348.965-.714,1.911-1.052,2.867.01,0-5.868-2.384-6.457-3.069-.55-.676.116-1.467,1.911-1.371s1.786-.232,4.623-.1c2.857.135.82-1.11,2.384-1.361,1.573-.222-.6-1.168-2.558-4.189-1.969-3.069-3.513-2.326-5.164-2.915-1.66-.56-3.176-1.969-5.26-3.581-2.114-1.6-1.872-.927-2.008-2.915-.154-2.017-1.226-2.095-4.353-2.944-2.635-.714-2.4.145-2.625.907a.77.77,0,0,1-.251.405c-.647.8-1.129,1.8-2.76,2.037-1.641.222-4.189-1.6-6.612-1.747-2.452-.125-1.737,2.239-1.737,2.239-.309,1.149-.618,2.307-.956,3.446a8.079,8.079,0,0,1-2.963.492c-1.535-.1-1.834,1.564-3.861,2.944s.405,4.672-.946,4.585c-1.351-.048-1.4,3.118-2.413,2.9-.956-.232-2.23,1.7-2.23,1.7s-1.371-.077-3.542-.2-2.567.357-4.556.261c-2.008-.106-1.139,1.593-2.326,1.718-1.187.087-1.419-.241-2.075-2.114a2.361,2.361,0,0,0-3.446-1.216l-.241.145c-.434.2-.087-.145-2.22-.261-2.432-.145-2.046-.618-2.046-.618s-.328-4.237-1.342-4.314c-1.042-.048-.241-1.718.318-2.509.6-.8,2.413-1.573,2.336-4.247a29.794,29.794,0,0,0-.367-3.552c-.126-.569-.193-.907-.193-.907-2.287-2.857,3.89-3.455,3.88-3.455,4.778.82,9.526,1.622,14.217,2.452a8.592,8.592,0,0,1,1.651-.5,4.427,4.427,0,0,1,1.361-.154c1.158.068.4-3.513.328-4.845a10.174,10.174,0,0,0-.753-3.127,23.539,23.539,0,0,0-4.044-3.813c-2.2-1.863-3.485-.241-3.5-.917-.019-.695-.125-2.587.811-2.683a19.655,19.655,0,0,1,3.851.627,19.142,19.142,0,0,1,2.654,0c1.342.087.743-.3.27-1.7-.444-1.38-.27-1.747,1.129-.434,1.4,1.284,3.6.589,3.6.589s.29-1.351,1.226-1.293c.936.087,1.013-1.293.955-2.133a.447.447,0,0,1,.29-.463,11.362,11.362,0,0,1-2.287.27,39.536,39.536,0,0,1-4.247-.029c-1.544-.106-1.67.019-3.1-.077s-1.129.3-3.542.116a8.523,8.523,0,0,0-3.7.4c.145-2.3,1.988-2.924,3.832-2.693a2.555,2.555,0,0,0,2.606-1.718c-1.3,1.94-3.253.27-4.121.193-.878-.039-2.065-.907-1.93-1.419.125-.492,2.3.164,3.118-.174.849-.3-1.689-2.162-.985-2.133.714.087.579.048,3.06-.946,2.471-.965.29-1.525.29-1.525a5.271,5.271,0,0,1-1.12-2.664c-.116-1.448-1.322-.888-1.322-.888s-2.664.357-3.253.309c-.56-.039,1.766-1.593,1.766-1.593-.589-.019-1.149-.039-1.708-.106a14,14,0,0,1,2.056-.734c.83-.232-1.824-.154-2.558-.193s1.052-1.361,1.052-1.361-2.288-.415-2.317-1.332c-.106-.917.164-1.554,1.361-2.519a10.027,10.027,0,0,0,2.056-2.49c1.564.241,3.108.473,4.633.714a9.83,9.83,0,0,1-1.853,1.187,1.825,1.825,0,0,0-1.11,1.882c.154.386,1.062-.714,2.181-.637a25,25,0,0,1,3.784.907,3.1,3.1,0,0,1-2.278,2.722c-2.307.888-2.432,1.149-2.432,1.149s1.062-.579,3.648.357a2.541,2.541,0,0,1,1.506,3.475s.656-.579,2.133.56c1.457,1.139.666,1.342,1.351,3.069s-.762,1.255.29,2.085c1.023.83,2.316-.618,3.446-.154s.6.56.155,1.815c-.473,1.255-1.071.714-2.075,2.162-1.023,1.506,0,0,1.737,1.033.541.319.608.541.444.724a8.2,8.2,0,0,0,2-.647c.521-.454-.319-.994,1.969-1.332.116-.01.232-.039.338-.048,2.731-.357,1.6-.762,2.712-2.925,1.091-2.172,1.4-.589,5.3-1.554.174-.048.347-.1.5-.125,3.253-.878,2.3-1.091,2.992-1.033.734.029,1.052-2.2,1.052-2.2a17.855,17.855,0,0,1-2.239-2.924,13.465,13.465,0,0,1-.251-2.452c-.039-.734,2.1-.772,2.1-.772a11.151,11.151,0,0,0,1.313-1.149,2.759,2.759,0,0,1,2.394-.714c.888.029-.048,1.216-.444,2.413-.425,1.216,1.1.425,1.689,1.149.579.762.232.714-1.1,1.525-1.342.791-1.564.4-1.747,2.152-.2,1.728,1.187,1.11,1.747,1.679a4.368,4.368,0,0,0,2.4,1,4.129,4.129,0,0,0,2.577-.7c.463-.492,2.413,1,2.384,1,.463.145.927.3,1.361.434a5.337,5.337,0,0,0,.666.212s2.722-.714,4.063-1.158,3.909-.984,3.909-.984l1.515,1.486s5.193.1,3.581-.512c-.888-.338-.029-.637.724-.975.656-.251,1.245-.541.811-.869-.936-.734.222-1.4-.4-2.123-.57-.762.676-.135-.724-1.979s-1.573-2.046.569-2.8c2.172-.8,3.986,1.988,3.986,1.988a1.774,1.774,0,0,0,1.815.965c1.1-.1,1.255-1.544-.309-3.011a7.509,7.509,0,0,0-1.313-.994c-2.905-1.737,1.486-3.677,1.486-3.677,2.1.029,4.16.077,6.293.135.309-.241.637-.483.927-.685.647-.4,1.255-.811,1.9-1.2-.647-.2-1.284-.444-1.911-.637-.405-.019-.811-.029-1.226-.039-.241-.039-.463-.039-.656-.058,0,0-.734,1.062-1.226,1.226a4.235,4.235,0,0,1-1.7-.1c-.5-.01-2.172.29-2.693.251s-2.239-.116-3.108-.154c-.84-.058-1.641-1.158-2.683-1.4s-1.149-.975-1.149-.975-.782-2.567-1.554-4.778c-.762-2.239,1.872-3.214,1.872-3.214.029,0,3.7-3.378,4.208-3.359.541.039.116-.724.676-1.641.434-.695-1.506-1.062-2.731-1.2-.376-.058-.7-.077-.82-.087-.5-.019-2.172.473-3.031.434s-.917.907-1.873,1.593c-.946.7,1.023,1.361,1.023,1.361a30.379,30.379,0,0,1-3.156,2.616c-1.892,1.361-5.347,1.573-4.382,5.424.917,3.851,3.783,3.272,4.527,5.289.763,2.027-3.793,3.378-3.793,3.378a16.813,16.813,0,0,0,.106,4.43c.4,2.307-.782,2.587-2.027,2.519-1.216-.058-2.616-.145-2.741.569-.1.7-.579.994-1.641.936a2.283,2.283,0,0,1-1.94-1.853,5.785,5.785,0,0,0-.724-3.562c-1.12-2.538-.589-2.509-2.635-3.5-2.056-1.023,1.921-1.853.174-1.979-.2,0-.367-.01-.55-.019-1.235-.077-1.264-.212-1.554-1.515-.319-1.448-1.264,1.535-1.94,1.68-.714.135-1.091,1.535-4.45,1.853s-3.291-1.081-3.291-1.081c-.6-.859-1.139-1.718-1.689-2.567.7-.946,1.342-1.921,2.036-2.905-.927.357-1.834.714-2.76,1.071-.174-1.033-.425-2.027-.637-3.031,1.419-.058,2.857-.106,4.276-.125-1.158-.116-2.278-.261-3.426-.415a5.3,5.3,0,0,1-.878-1.621c-.068-.531.83-.483,2.046-.965a12.653,12.653,0,0,0,2.046-.772c.5-.357.618-2.674.618-2.674s2.654.154,3.2.164c.512.019.859.058,1.593.068.685.058.965-2.094,1.844-2.085.907.058,2.094-1.9,2.76-2.046.685-.164.994-2.152.994-2.152.145-.685.3-1.351.463-2.037a11.338,11.338,0,0,1,1.872-1.8c.492-.145,1.515-.29,1.544-1.593.01-1.313.57-2.23,1.158-1.815.569.386,3.089-.077,3.089-.077s.106-2.085.6-2.268,2.191-.473,2.075-1.428c-.106-.994.859.019,2.23.058,1.39.039,1.506-.347,1.506-.347a16.271,16.271,0,0,1,2.008-.319c.541.029,1.622.637,1.554.068s.483-1.506,1.969-2.075a3.37,3.37,0,0,1,2.384-.116q-.2,1.231-.376,2.519c.54-.589,1.1-1.129,1.66-1.708,0,.627.048,1.293.058,1.95.444-.589.9-1.12,1.332-1.7.531-.376,1.052-.772,1.564-1.149.126.714.29,1.457.444,2.152.068-.328.145-.637.212-.946a9.4,9.4,0,0,1,2.693,1.033,4.158,4.158,0,0,0,1.621.83l-.676-.01c-.685-.01.878,1.757.878,1.757s3.1-1.062,3.832-.473c.753.618,1.3,1.023,3.7,1.091,2.365.058,4.942.541,6.467,2.133s2.732,1.622,4.758,1.9a4.522,4.522,0,0,1,3.774,3.793c.174,1.728-3.774,2.365-6.641,2.085-2.876-.3-6.11-1.94-6.766-1.94-.676-.029-2.616-.666-1.11.521a9.825,9.825,0,0,0,3.359,1.641,2.411,2.411,0,0,0,.618,2.509c1.158,1.361.733,2.066.733,2.066s1.38.241,2.027.27c.685.048,1.786.84,3.069,1.988,1.293,1.177,2.133-.473-.685-1.892-2.857-1.419-.676-3.05.8-1.863s4.324,1.67,5.125,1.3c.782-.338-1.728-1.93-1.3-2.867.386-.956,3.369-2.625,4.565-2.567a3.426,3.426,0,0,1,2.123,1.207s.907.811.791-.357-2.23-2.181-2.8-4.517c-.589-2.355-.1-2.345,1.911-2.287s4.922,2.481,2.606,2.413c-2.345-.058-1.216,1.332-.29,2.114.907.82,4.218.531,4.218.531.145-.608.309-1.168.473-1.737a13.809,13.809,0,0,1,2.413-2.49,7.514,7.514,0,0,1,2.587-.743,17.581,17.581,0,0,1,1.728-.946c.483-.174,2.432-.743,2.374.454a2.848,2.848,0,0,1-.984,1.95c.936-.048,1.863-.106,2.809-.126.309-.4.608-.791.9-1.168,1.216.232,2.461.434,3.687.695a5.092,5.092,0,0,1,1.409-1.554A216.608,216.608,0,0,0,235.288,14.349c-76.125,0-143.09,39.264-182.065,98.71a13.4,13.4,0,0,1,2.4-.83,8.664,8.664,0,0,0,2.809-1.38s-.811,1.911-.28,2.133c.492.212,1.882-.975,2.066-1.129-.521.454-1.062.907-1.544,1.361l3.706-.116c-.56.415-1.158.83-1.718,1.235,0,0,3.262.029,3.34-1.013s.994-3.233,1.7-3.513c.743-.28.782,1.342.782,1.342,1.062-.232,2.1-.5,3.127-.743q-1.535,1.911-3.089,3.8a32.238,32.238,0,0,0-4.006,1.467,12.889,12.889,0,0,1-3.156,1.757c-1.564.55-3.755,1.708-4.228,1.66-.473-.029.666-1.042,2.2-1.766,1.535-.7-2.78-.019-3.89.56-1.081.569-2.847.347-2.307-.029.5-.357.975-.946,1.9-1.641.907-.724-.676-.791-1.5-.319a2.509,2.509,0,0,1-.241.164c-1.206,1.911-2.4,3.832-3.552,5.772.8-.54,1.612-1.226,1.921-1.081a10.5,10.5,0,0,1,1.9,1.93c-.376.531-.743,1.023-1.12,1.535a42.378,42.378,0,0,0-6.148,3.677c.444-.811-5.135,10.221-5.241,10.163.039,0,.068.029.106.058.936.647,1.371-.376,4.314-1.226,2.925-.859,2.616,1.438.753,2.345-1.853.927-.985,1.322-.985,1.342,0,0,4.517-2.22,6.071-2.712,1.554-.473,1.207-.232,1.93.541.743.811.579,1.38,1.149,1.583s.483-.936.454-1.824c0-.9.743-1.641,1.361-2.519.627-.82,1.766-.946,3.581-1.564a2.422,2.422,0,0,1,2.828,1.149s1.573-.917,2.683-1.583a9.359,9.359,0,0,1,1.911-.9c.483-.164,1.853-.656,2.828-1.014s1.361-.106,1.689,1.351c.347,1.457.743,0,1.139-.154.4-.135.058-1.2.531-1.9.483-.685,1.11-1.7,1.641-2.577.569-.869,1.979-1.419,2.809-2.538.859-1.1,2.461-1.757,2.876-2.876.444-1.091.83,1.882,1.023,2.316.2.463.792-.434,1.544-1.959.8-1.506,1.9-.994,3.089.145,1.226,1.129-.2,1.7-1.477,2.345-1.255.627-.251,1.428.405,1.428s-.019,0,.7-.8c.7-.82,1.361-.8,2.075-2.172.724-1.351,1.457-1.091,1.95-1.824.531-.753.318-2.307,1.409-3.6,1.12-1.235,1.766-.685,2.3-.888.5-.222,2.355.106,2.731.888.386.82-.56.521-2.326,2.471-1.757,1.921.569.7,1.013,1.863s-.762,1.255-3.069,2.982c-2.3,1.689-.405,1.351-2.21,1.66-1.776.319-.492.714-1.718.666-1.206-.039-1.3.531-2.4.946-1.11.444-.965.656-1.129,1.9s-.145.82-.753,1.178a7.575,7.575,0,0,1-2.191.724,18.515,18.515,0,0,0-2.095.666s.473.222,1.515.579c1.033.386,2.693-.907,2.828-.328.145.627-.357.946-2.867,3.166-2.481,2.191-.367.637-1.863,1.206-1.448.541-1,.637-2.056,1.139s-4.208,2.3-2.239,1.7.154,2.094-.695,2.384c-5.424,2.017-8.957,12.827-8.928,12.741-.01,0,2.094-.917,2.423.415.3,1.3-.685,3.591-.685,3.591a23.181,23.181,0,0,1,3.33-1.457c1.9-.618,3.475,1.747,4.99,1.226a1.994,1.994,0,0,1,2.316.791c0,.029,4.218-1.129,4.71-1.293.454-.174.454.627-.29,2.278-.743,1.631.56.608-.666,2.384-1.187,1.8-.376,1.052-.28,2.577.058,1.535.347.338.9,1.583.5,1.264.7.531,1.747.174s.647-1.129,1.544-2.1c.878-1,1.052-1.168.666-2.384a18.055,18.055,0,0,1-.2-4.372c6.168-3.87,6.737-7.422,6.853-8.764.145-1.361.029-1.438-1.708-2.567-1.737-1.149.792-3.822,1.766-4.237,1.013-.367.714-1.226.512-2.249-.222-1.033.907-1.332.811-3.957-.1-2.6,2.49-2.239,3.311-2.075.8.193,1.766-.955,3.369-1.853,1.622-.917,2.76-.743,3.05.261.309,1.013.763,1.583,1.689,1.216.946-.376,1.815-.512,2.008.56.212,1,1.679-.2-1.216,2.838s-.1,1.988.357,1.959c.434-.077.849-.232,1.3.907.454,1.168,1,.454,1.274-.386s1.564-1.844,3.243-3.668a18.216,18.216,0,0,0,2.963-5c0,.058,2.847,6.534,2.577,8.667-.27,2.181-.724,1.033-.84,2.181-.135,1.12,1.39,1.11,2.963,1.419,1.554.28,1.023-.058,2.751-.309,1.718-.222,1.757-.048.7.647-1.042.656-.666.637-1.824,1.477a39.458,39.458,0,0,1-3.243,2.268c-1.747,1.052-.164,1.477.8,1.1.955-.4,1.786-1.544,2.857-2.6,1.042-1.033,1.959-1.892,2.22-.56.3,1.284,1.467.087,1.9.492.454.425.261,1.207.222,2.76-.048,1.515-.82,1.834-3.8,3.291s-2.664,1.766-3.851,3.282c-1.168,1.5-1.448,1.728-1.979,1.93a30.15,30.15,0,0,1-2.944,1.168c-.637.135-2.731,1.409-3.967,1.786s-4.131,1.708-4.932,2.037c-.811.289-.357,1.264-.714,1.708a7.085,7.085,0,0,1-1.235,1.158s-.985.927-1.593,1.486c-.637.56-.589.762-1.631,1.718-1.052.927-1.235,1.988-2.181,2.9a9.649,9.649,0,0,0-1.477,1.747,1.073,1.073,0,0,0,1.2.183,1.885,1.885,0,0,0,.28-.251,21.638,21.638,0,0,0,1.284-1.892c.84-1.313,1.776-2.789,2.21-2.963.791-.29,1.911-1.93,3.571-3.233s2.307-.762,4.353-1.573c2.017-.763.386,1.766-.058,2.712a4.358,4.358,0,0,1-1.1,1.544c-.579.637-.318,1.863-.251,2.6.068.763,1.631.463,2.6.338a5.216,5.216,0,0,0,2.114-.917c.29-.222,1.293-.608,1.235-1.351a3.584,3.584,0,0,1,1.525-2.249c.405-.164-.714,2.268.28,1.786,1.033-.521,1.708-.116.743,1.245a8.705,8.705,0,0,1-2.21,2.481c-.415.174-2.23,1.921-3.147,2.268-.888.338-1.834,1.573-3.118,2.037-1.313.463-1.091.367-2.152,2.307-1.052,1.834-2.268-.164-1.554-2.017.7-1.872,3.552-3.7,2.867-3.349-.685.377-1.342,1.264-2.239,1.805a4.387,4.387,0,0,0-1.023.8,1.129,1.129,0,0,0-.386,1.013c.1.415-.473.656-1.187.9-.328.1-.7.232-1.062.367-1.168.4-1.3,1.631-2.558,2.394-1.264.743-1.824,1.583-2.519,4.459-.54,2.027-.068,2.23.2,2.2-.405.145-1.274.434-1.863.627-.734.261-1.486,1.351-3.349,2.287-1.882.936-1.641.647-1.448,1.824.2,1.149-1.438,3.986-1.428,3.986-.357-.01-.666-.039-1.013-.068,0,0,.5.84-.376,3.05-.888,2.162-.647.888-1.554-2.123-.878-3.011-.347.907-.347.907s.454,1.757.656,2.374c.164.647-.927,1.293-1.264,1.506s1.129-.174,1.129-.174c.154.347.3.695.473,1.071-.473.367-.878.782-1.332,1.178.386-.116.772-.222,1.158-.367.106.406.212.782.3,1.168a3.263,3.263,0,0,1-1,.82c-.463.155-.154.647-.685.811s-.3.666-.917,1.93-.666.7-2.008,1.8c-1.342,1.071-1.419,1.8-3.755,4.691a4.351,4.351,0,0,0-.357,5.453,54.64,54.64,0,0,1,1.834,5.173c.8,2.789.608,1.708-.029,3.88-.579,2.152-1.564.463-2.635-.647a9.532,9.532,0,0,1-1.882-3.639c-.425-1.178-.56-1.264-.473-2.017.048-.753-1.429-.724-2.432-1.641-1.033-.946-.695.27-1.274,1.11-.627.859-1.178.251-2.239-.878s-.521.9-3.832,1.12c-3.34.193-2.075,1.255-2.075,1.255a1.9,1.9,0,0,1-.328,1.921c-.743.955-1.38.367-2.162-.068s-1.129.338-2.22.618c-1.013.338-.666.193-3.494,1.013-2.857.782-.907.541-1.544,1.95s-.193.618-1.873,1.776c-1.679,1.139-1.467,1.94-1.293,2.924a12.9,12.9,0,0,1,.222,2.21c.019.251.019.473.048.666.125.734-.579.936-.27,2.751.347,1.8.5,5.029,1.033,6.949.56,1.95,1.882,2.143,2.751,3.2.888,1.081.569.994,1.8.618s.55,1.264,2.336.743c1.757-.531,2.287-2.316,3.417-1.7s1.158-.251.9-.531c-.28-.328-.058-.869.647-1.757.7-.859.7-1.815.241-3.455-.473-1.679,2.954-2.587,5.212-3.233,2.22-.666,1.342,1.1,1.013,1.95a3.485,3.485,0,0,0-.058,2.77,3.3,3.3,0,0,1,.251,1.313c-.039.27-.193.608-.415,1.409-.463,1.66-.039,1.158-.338,2.76-.3,1.622-.212.637-.859,1.988a1.936,1.936,0,0,0-.183.434c-.1.444.589-.2,1.284-.261a.457.457,0,0,1,.357,0c.907.174,1.149-.656,3.552-1.428,2.394-.8,3.262-.174,3.262-.193a9.573,9.573,0,0,1,.859.994,4.947,4.947,0,0,1,.907,1.583,10.652,10.652,0,0,1-.039,1.583c-.1.6.512,1.853.261,3.1a3.417,3.417,0,0,0,.174,2.365c.222.685-.56.579-1.313.309a5.975,5.975,0,0,1-1.67-.994c-.666-.483-.743-.483-1.168-.434-.473.039.232,1.1.6,1.39.27.251-.174.318-.328.367l-.135-.145c-.405-.087-1.863-.83-2.925-1.284-.656-.29-.6-.984-.811-1.438-.068-.1-.135-.212-.251-.241-.174-.126-.415-.135-.83,0-1.66.482-1.091-.174-2.76.318a4.939,4.939,0,0,1-2.1.019,16.286,16.286,0,0,1-2.635-.666c-.29-.1-.512-.193-.647-.241-.54-.241-2.925-2.326-3.89-2.3-.965,0-1.7,1.129-1.94,2.056-.222.955-2.394.145-3.919.222-1.535.106-1.023-.068-2.461-.376-1.467-.328-5.106-1.554-5.106-1.554s-1.757.174-2.722.386c-.946.174-4.131-1.65-5.231-2.22-1.1-.54-.28-1.38.029-2.461.328-1.081.164-1.226-.405-3.185-.569-1.988-3.8-2.683-5.058-4.015-1.226-1.322-1.776-.376-2.452-1.457-.656-1.091.135-1.023-.6-1.3-.743-.309-2.172-1.062-2.442-1.911-.251-.82-1.245-.232-2.056-.733-.8-.454-1-2.191-1.6-3.639-.434-1.139-.434-2.094-1.264-2.616,0-.473-.068-.135-.068-.135,0,121.055,97.591,219.157,217.96,219.157S453.2,354.56,453.2,233.506c0-6.708-.338-13.329-.926-19.873" transform="translate(-16096.079 -4013.353)" fill="#fff"/>
    <path id="Path_54" data-name="Path 54" d="M50.433,26.269c.116.2.232.309.3.454l-.039-.1c-.068-.087-.174-.222-.261-.357" transform="translate(-15809.654 -3910.223)" fill="#fff"/>
    <path id="Path_55" data-name="Path 55" d="M51.249,24.979h.019c-.048-.029-.048-.106-.087-.126.039.019.039.1.068.126" transform="translate(-15803.188 -3922.476)" fill="#fff"/>
  </g>
</svg>
