<svg xmlns="http://www.w3.org/2000/svg" width="13.595" height="13.595" viewBox="0 0 13.595 13.595">
  <g id="Group_3222" data-name="Group 3222" transform="translate(-346.573 -22)">
    <g id="Group_3219" data-name="Group 3219" transform="translate(346.573 22)">
      <path id="Path_3759" data-name="Path 3759" d="M17.008,1.479H.739A.742.742,0,0,1,0,.739H0A.742.742,0,0,1,.739,0H17.008a.742.742,0,0,1,.739.739h0A.742.742,0,0,1,17.008,1.479Z" transform="translate(0 12.549) rotate(-45)" fill="#393939"/>
      <path id="Path_4005" data-name="Path 4005" d="M17.008,1.479H.739A.742.742,0,0,1,0,.739H0A.742.742,0,0,1,.739,0H17.008a.742.742,0,0,1,.739.739h0A.742.742,0,0,1,17.008,1.479Z" transform="translate(1.046 0) rotate(45)" fill="#393939"/>
    </g>
  </g>
</svg>
