<svg xmlns="http://www.w3.org/2000/svg" width="22.407" height="15.125" viewBox="0 0 22.407 15.125">
  <path id="Icon_zocial-email" data-name="Icon zocial-email" d="M.072,17.854V5.408q0-.022.065-.411l7.325,6.266-7.3,7.022a1.831,1.831,0,0,1-.086-.432ZM1.044,4.133a.931.931,0,0,1,.367-.065H21.139a1.224,1.224,0,0,1,.389.065l-7.347,6.288-.972.778-1.923,1.577L9.363,11.2l-.972-.778Zm.022,15,7.368-7.066,2.852,2.312,2.852-2.312,7.368,7.066a1.037,1.037,0,0,1-.367.065H1.412a.979.979,0,0,1-.346-.065Zm14.045-7.865L22.414,5a1.29,1.29,0,0,1,.065.411V17.854a1.656,1.656,0,0,1-.065.432Z" transform="translate(-0.072 -4.068)" fill="#b5b5b5"/>
</svg>
