<svg xmlns="http://www.w3.org/2000/svg" width="18.588" height="15.125" viewBox="0 0 18.588 15.125">
  <path id="Icon_ionic-logo-twitter" data-name="Icon ionic-logo-twitter" d="M20,6.292a7.71,7.71,0,0,1-2.19.6,3.827,3.827,0,0,0,1.678-2.111,7.578,7.578,0,0,1-2.422.926,3.812,3.812,0,0,0-6.6,2.608,3.733,3.733,0,0,0,.1.87A10.807,10.807,0,0,1,2.705,5.2a3.821,3.821,0,0,0,1.186,5.1,3.725,3.725,0,0,1-1.733-.477v.047a3.817,3.817,0,0,0,3.061,3.742,3.839,3.839,0,0,1-1,.134A3.6,3.6,0,0,1,3.5,13.67a3.82,3.82,0,0,0,3.565,2.651,7.646,7.646,0,0,1-4.738,1.635,7.73,7.73,0,0,1-.91-.055,10.659,10.659,0,0,0,5.837,1.725A10.786,10.786,0,0,0,18.11,8.762c0-.165,0-.331-.012-.492A7.763,7.763,0,0,0,20,6.292Z" transform="translate(-1.413 -4.5)" fill="#b5b5b5"/>
</svg>
