<svg xmlns="http://www.w3.org/2000/svg" xmlns:xlink="http://www.w3.org/1999/xlink" width="150.5" height="56.854" viewBox="0 0 150.5 56.854">
  <defs>
    <clipPath id="clip-path">
      <rect id="Rectangle_2" data-name="Rectangle 2" width="150.5" height="56.854" fill="#fff"/>
    </clipPath>
  </defs>
  <g id="Group_3380" data-name="Group 3380" transform="translate(0 0)">
    <g id="Group_1" data-name="Group 1" transform="translate(0 0)" clip-path="url(#clip-path)">
      <path id="Path_1" data-name="Path 1" d="M29.87,2.8A2.192,2.192,0,1,1,27.679.6,2.2,2.2,0,0,1,29.87,2.8" transform="translate(-2.846 -0.066)" fill="#fff"/>
      <path id="Path_2" data-name="Path 2" d="M35.346,1.579A1.571,1.571,0,1,1,33.776,0a1.575,1.575,0,0,1,1.571,1.579" transform="translate(-3.596 0)" fill="#fff"/>
      <path id="Path_3" data-name="Path 3" d="M39.048,1.432A.83.83,0,1,1,38.218.6a.832.832,0,0,1,.831.835" transform="translate(-4.175 -0.066)" fill="#fff"/>
      <path id="Path_4" data-name="Path 4" d="M75.29,23.117a2.761,2.761,0,0,0,.876.593,2.732,2.732,0,0,0,1.075.215h.67a2.743,2.743,0,0,0,2.554-1.69,2.739,2.739,0,0,0,.214-1.08V17.7H77.82v2.2h.669v1.254a.543.543,0,0,1-.165.4.556.556,0,0,1-.413.166h-.67a.567.567,0,0,1-.564-.567V15.784a.557.557,0,0,1,.166-.415.54.54,0,0,1,.4-.167h.67a.568.568,0,0,1,.578.582v.091h2.19v-.091a2.815,2.815,0,0,0-.213-1.087A2.751,2.751,0,0,0,77.911,13h-.67a2.723,2.723,0,0,0-1.075.216,2.772,2.772,0,0,0-1.678,2.568v5.371a2.754,2.754,0,0,0,.213,1.08,2.793,2.793,0,0,0,.589.882" transform="translate(-8.318 -1.451)" fill="#fff"/>
      <path id="Path_5" data-name="Path 5" d="M85.568,13h-2.19V23.923h6.191v-2.2h-4Z" transform="translate(-9.311 -1.451)" fill="#fff"/>
      <path id="Path_6" data-name="Path 6" d="M93.947,15.783a.562.562,0,0,1,.166-.415.536.536,0,0,1,.4-.166h.669a.565.565,0,0,1,.578.581v5.37a.546.546,0,0,1-.164.4.556.556,0,0,1-.414.166h-.669a.536.536,0,0,1-.4-.166.547.547,0,0,1-.166-.4Zm.564,8.14h.669a2.752,2.752,0,0,0,2.769-2.77v-5.37a2.8,2.8,0,0,0-.214-1.087A2.743,2.743,0,0,0,95.18,13h-.669a2.716,2.716,0,0,0-1.075.214A2.733,2.733,0,0,0,91.971,14.7a2.809,2.809,0,0,0-.214,1.087v5.37a2.766,2.766,0,0,0,.214,1.082,2.8,2.8,0,0,0,.588.88,2.754,2.754,0,0,0,.877.593,2.7,2.7,0,0,0,1.075.215" transform="translate(-10.246 -1.451)" fill="#fff"/>
      <path id="Path_7" data-name="Path 7" d="M104.352,16.443a.568.568,0,0,1-.579.581h-1.232V15.2h1.232a.552.552,0,0,1,.413.167.558.558,0,0,1,.166.415Zm0,4.711a.542.542,0,0,1-.166.4.552.552,0,0,1-.413.167h-1.232v-2.5h1.232a.568.568,0,0,1,.579.582Zm1.388-7.346A2.765,2.765,0,0,0,103.773,13h-3.422V23.923h3.422a2.752,2.752,0,0,0,2.769-2.769V19.808a2.689,2.689,0,0,0-.163-.942,2.947,2.947,0,0,0-.4-.735,3.2,3.2,0,0,0,.4-.748,2.684,2.684,0,0,0,.163-.941v-.659a2.8,2.8,0,0,0-.214-1.088,2.764,2.764,0,0,0-.588-.888" transform="translate(-11.206 -1.451)" fill="#fff"/>
      <path id="Path_8" data-name="Path 8" d="M110.935,20.965l.607-3.285.607,3.285Zm1.514,2.958h2.192L112.628,13h-2.173l-2.013,10.923h2.192l.243-1.317h1.33Z" transform="translate(-12.11 -1.451)" fill="#fff"/>
      <path id="Path_9" data-name="Path 9" d="M122.907,21.721h-4V13h-2.19V23.924h6.191Z" transform="translate(-13.034 -1.451)" fill="#fff"/>
      <path id="Path_10" data-name="Path 10" d="M128.425,23.924h6.191v-2.2h-4v-2.5h2.662v-2.2h-2.662V15.2h4V13h-6.191Z" transform="translate(-14.341 -1.452)" fill="#fff"/>
      <path id="Path_11" data-name="Path 11" d="M139.309,19.227h1.812v4.7h2.19V13h-2.19v4.024h-1.812V13H137.12V23.924h2.189Z" transform="translate(-15.312 -1.451)" fill="#fff"/>
      <path id="Path_12" data-name="Path 12" d="M151.21,13.807A2.765,2.765,0,0,0,149.245,13h-.67a2.72,2.72,0,0,0-1.075.215,2.741,2.741,0,0,0-1.466,1.481,2.816,2.816,0,0,0-.213,1.088v.659a2.764,2.764,0,0,0,.8,1.961,2.854,2.854,0,0,0,.875.6,2.621,2.621,0,0,0,1.076.223h.67a.556.556,0,0,1,.412.166.563.563,0,0,1,.165.416v1.346a.544.544,0,0,1-.165.4.553.553,0,0,1-.412.167h-.67a.53.53,0,0,1-.4-.171.562.562,0,0,1-.166-.411v-.091h-2.19v.091a2.77,2.77,0,0,0,1.678,2.567,2.694,2.694,0,0,0,1.076.216h.67a2.76,2.76,0,0,0,1.965-.807,2.8,2.8,0,0,0,.589-.881,2.762,2.762,0,0,0,.213-1.081V19.808a2.791,2.791,0,0,0-.8-1.977,2.765,2.765,0,0,0-1.965-.807h-.67a.539.539,0,0,1-.4-.166.561.561,0,0,1-.165-.415v-.659a.561.561,0,0,1,.165-.415.539.539,0,0,1,.4-.167h.67a.553.553,0,0,1,.412.167.561.561,0,0,1,.165.415v.091h2.19v-.091a2.791,2.791,0,0,0-.8-1.977" transform="translate(-16.284 -1.451)" fill="#fff"/>
      <path id="Path_13" data-name="Path 13" d="M157.128,17.681l.607,3.285h-1.213Zm-.664,4.926h1.33l.242,1.317h2.192L158.215,13h-2.173l-2.013,10.923h2.192Z" transform="translate(-17.2 -1.452)" fill="#fff"/>
      <path id="Path_14" data-name="Path 14" d="M164.64,18.968l1.839,4.955h2.162V13h-2.19v4.956L164.613,13H162.45V23.923h2.19Z" transform="translate(-18.141 -1.451)" fill="#fff"/>
      <path id="Path_15" data-name="Path 15" d="M82.041,35.266a.924.924,0,0,1-.9.9H79.428a.424.424,0,0,1-.423-.426V31.219a.424.424,0,0,1,.423-.426h1.713a.9.9,0,0,1,.64.254.8.8,0,0,1,.26.624Zm2.946-6.33a5.4,5.4,0,0,0-3.846-1.58H74.91a.423.423,0,0,0-.422.425V47.935a.423.423,0,0,0,.422.425h3.672a.424.424,0,0,0,.423-.425V39.919a.424.424,0,0,1,.423-.425h1.713a.873.873,0,0,1,.634.262.838.838,0,0,1,.266.642v7.537a.423.423,0,0,0,.422.425h3.673a.423.423,0,0,0,.422-.425V40.344a5.012,5.012,0,0,0-.334-1.822,5.66,5.66,0,0,0-.541-1.06.42.42,0,0,1,0-.459,5.648,5.648,0,0,0,.558-1.113,5.266,5.266,0,0,0,.319-1.844v-1.27a5.381,5.381,0,0,0-.419-2.117,5.437,5.437,0,0,0-1.152-1.723" transform="translate(-8.318 -3.054)" fill="#fff"/>
      <path id="Path_16" data-name="Path 16" d="M92.52,48.359h11.225a.424.424,0,0,0,.423-.425V44.241a.424.424,0,0,0-.423-.426H97.037a.423.423,0,0,1-.422-.425V39.918a.424.424,0,0,1,.422-.425h4.181a.424.424,0,0,0,.423-.425V35.375a.424.424,0,0,0-.423-.425H97.037a.423.423,0,0,1-.422-.425v-2.2a.423.423,0,0,1,.422-.425h6.708a.424.424,0,0,0,.423-.425V27.78a.424.424,0,0,0-.423-.426H92.52a.424.424,0,0,0-.422.426V47.935a.423.423,0,0,0,.422.425" transform="translate(-10.285 -3.054)" fill="#fff"/>
      <path id="Path_17" data-name="Path 17" d="M114.016,27.355h-3.672a.424.424,0,0,0-.423.425V47.935a.424.424,0,0,0,.423.426h11.225a.424.424,0,0,0,.423-.426V44.241a.424.424,0,0,0-.423-.425h-6.708a.424.424,0,0,1-.423-.425V27.78a.423.423,0,0,0-.422-.425" transform="translate(-12.275 -3.054)" fill="#fff"/>
      <path id="Path_18" data-name="Path 18" d="M128.847,48.359h3.672a.423.423,0,0,0,.423-.425V27.78a.424.424,0,0,0-.423-.426h-3.672a.424.424,0,0,0-.422.426V47.935a.423.423,0,0,0,.422.425" transform="translate(-14.341 -3.054)" fill="#fff"/>
      <path id="Path_19" data-name="Path 19" d="M139.452,48.359h11.226a.423.423,0,0,0,.422-.425V44.241a.424.424,0,0,0-.422-.426H143.97a.424.424,0,0,1-.423-.425V39.918a.424.424,0,0,1,.423-.425h4.18a.423.423,0,0,0,.423-.425V35.375a.423.423,0,0,0-.423-.425h-4.18a.424.424,0,0,1-.423-.425v-2.2a.424.424,0,0,1,.423-.425h6.708a.423.423,0,0,0,.422-.425V27.78a.424.424,0,0,0-.422-.426H139.452a.424.424,0,0,0-.423.426V47.935a.424.424,0,0,0,.423.425" transform="translate(-15.525 -3.054)" fill="#fff"/>
      <path id="Path_20" data-name="Path 20" d="M167.9,31.473V27.78a.424.424,0,0,0-.423-.425H156.253a.424.424,0,0,0-.423.425V47.935a.424.424,0,0,0,.423.425h3.672a.424.424,0,0,0,.423-.425V39.919a.423.423,0,0,1,.422-.425h4.181a.424.424,0,0,0,.423-.426V35.375a.424.424,0,0,0-.423-.425H160.77a.423.423,0,0,1-.422-.425v-2.2a.423.423,0,0,1,.422-.425h6.708a.424.424,0,0,0,.423-.425" transform="translate(-17.401 -3.054)" fill="#fff"/>
      <path id="Path_21" data-name="Path 21" d="M62.856,35.463c-.008-.08-.016-.159-.023-.238.007.076.011.154.017.23l.006.008" transform="translate(-7.017 -3.933)" fill="#fff"/>
      <path id="Path_22" data-name="Path 22" d="M62.822,35.113h0c0,.03.008.06.012.089,0-.029-.005-.06-.009-.09" transform="translate(-7.015 -3.921)" fill="#fff"/>
      <path id="Path_23" data-name="Path 23" d="M15.487,24.852a2.361,2.361,0,1,1-2.361-2.375,2.367,2.367,0,0,1,2.361,2.375" transform="translate(-1.202 -2.51)" fill="#fff"/>
      <path id="Path_24" data-name="Path 24" d="M12.786,31.1a2.361,2.361,0,1,1-2.361-2.375A2.367,2.367,0,0,1,12.786,31.1" transform="translate(-0.901 -3.207)" fill="#fff"/>
      <path id="Path_25" data-name="Path 25" d="M6.925,24.776A2.958,2.958,0,1,1,3.967,21.8a2.967,2.967,0,0,1,2.958,2.975" transform="translate(-0.113 -2.434)" fill="#fff"/>
      <path id="Path_26" data-name="Path 26" d="M10.846,17.323a2.958,2.958,0,1,1-2.958-2.975,2.967,2.967,0,0,1,2.958,2.975" transform="translate(-0.551 -1.602)" fill="#fff"/>
      <path id="Path_27" data-name="Path 27" d="M16.391,10.626a2.958,2.958,0,1,1-2.958-2.975,2.967,2.967,0,0,1,2.958,2.975" transform="translate(-1.17 -0.854)" fill="#fff"/>
      <path id="Path_28" data-name="Path 28" d="M19.479,20.592a1.723,1.723,0,1,1-1.723-1.733,1.728,1.728,0,0,1,1.723,1.733" transform="translate(-1.79 -2.106)" fill="#fff"/>
      <path id="Path_29" data-name="Path 29" d="M22.837,17.552A1.149,1.149,0,1,1,21.689,16.4a1.152,1.152,0,0,1,1.149,1.155" transform="translate(-2.294 -1.831)" fill="#fff"/>
      <path id="Path_30" data-name="Path 30" d="M25.444,15.845a.6.6,0,1,1-.6-.6.6.6,0,0,1,.6.6" transform="translate(-2.708 -1.702)" fill="#fff"/>
      <path id="Path_31" data-name="Path 31" d="M23.318,5.157a3.178,3.178,0,1,1-3.178-3.2,3.186,3.186,0,0,1,3.178,3.2" transform="translate(-1.894 -0.219)" fill="#fff"/>
      <path id="Path_32" data-name="Path 32" d="M4.381,32.888a2.191,2.191,0,1,1-2.191-2.2,2.2,2.2,0,0,1,2.191,2.2" transform="translate(0 -3.426)" fill="#fff"/>
      <path id="Path_33" data-name="Path 33" d="M10.921,38.02A2.361,2.361,0,1,1,8.56,35.645a2.367,2.367,0,0,1,2.361,2.375" transform="translate(-0.692 -3.98)" fill="#fff"/>
      <path id="Path_34" data-name="Path 34" d="M10.744,44.692a2.361,2.361,0,1,1-2.361-2.375,2.367,2.367,0,0,1,2.361,2.375" transform="translate(-0.672 -4.725)" fill="#fff"/>
      <path id="Path_35" data-name="Path 35" d="M11.648,51.15a1.722,1.722,0,1,1-1.722-1.732,1.727,1.727,0,0,1,1.722,1.732" transform="translate(-0.916 -5.518)" fill="#fff"/>
      <path id="Path_36" data-name="Path 36" d="M21.5,55.174a1.722,1.722,0,1,1-1.722-1.732A1.727,1.727,0,0,1,21.5,55.174" transform="translate(-2.017 -5.968)" fill="#fff"/>
      <path id="Path_37" data-name="Path 37" d="M25.069,58.626a1.722,1.722,0,1,1-1.722-1.732,1.727,1.727,0,0,1,1.722,1.732" transform="translate(-2.415 -6.353)" fill="#fff"/>
      <path id="Path_38" data-name="Path 38" d="M29.221,61.126A1.722,1.722,0,1,1,27.5,59.394a1.727,1.727,0,0,1,1.722,1.732" transform="translate(-2.879 -6.632)" fill="#fff"/>
      <path id="Path_39" data-name="Path 39" d="M33.394,62.481a1.207,1.207,0,1,1-1.207-1.214,1.21,1.21,0,0,1,1.207,1.214" transform="translate(-3.46 -6.841)" fill="#fff"/>
      <path id="Path_40" data-name="Path 40" d="M36.554,62.8a.811.811,0,1,1-.811-.815.813.813,0,0,1,.811.815" transform="translate(-3.901 -6.921)" fill="#fff"/>
      <path id="Path_41" data-name="Path 41" d="M38.779,62.834a.458.458,0,1,1-.458-.461.459.459,0,0,1,.458.461" transform="translate(-4.228 -6.965)" fill="#fff"/>
      <path id="Path_42" data-name="Path 42" d="M18.478,51.15a1.722,1.722,0,1,1-1.722-1.732,1.727,1.727,0,0,1,1.722,1.732" transform="translate(-1.679 -5.518)" fill="#fff"/>
      <path id="Path_43" data-name="Path 43" d="M15.423,45.586a1.213,1.213,0,1,1-.917,1.448,1.207,1.207,0,0,1,.917-1.448" transform="translate(-1.617 -5.087)" fill="#fff"/>
      <path id="Path_44" data-name="Path 44" d="M14.977,42.578a.815.815,0,1,1-.617.973.811.811,0,0,1,.617-.973" transform="translate(-1.601 -4.752)" fill="#fff"/>
      <path id="Path_45" data-name="Path 45" d="M15.031,40.3a.461.461,0,1,1-.348.55.459.459,0,0,1,.348-.55" transform="translate(-1.638 -4.499)" fill="#fff"/>
      <path id="Path_46" data-name="Path 46" d="M11.669,54.516a1.213,1.213,0,1,1-.917,1.448,1.207,1.207,0,0,1,.917-1.448" transform="translate(-1.197 -6.084)" fill="#fff"/>
      <path id="Path_47" data-name="Path 47" d="M13.745,58.316a.648.648,0,1,1-.489.773.644.644,0,0,1,.489-.773" transform="translate(-1.478 -6.51)" fill="#fff"/>
      <path id="Path_48" data-name="Path 48" d="M1.676,40.637a1.491,1.491,0,1,1,1.842-1.011,1.493,1.493,0,0,1-1.842,1.011" transform="translate(-0.068 -4.211)" fill="#fff"/>
      <path id="Path_49" data-name="Path 49" d="M2.45,44.5A.819.819,0,1,1,3.46,43.95.82.82,0,0,1,2.45,44.5" transform="translate(-0.208 -4.79)" fill="#fff"/>
      <path id="Path_50" data-name="Path 50" d="M20.479,25.485l0,0Z" transform="translate(-2.287 -2.846)" fill="#fff"/>
      <path id="Path_51" data-name="Path 51" d="M56.082,21.213l0,0Z" transform="translate(-6.262 -2.369)" fill="#fff"/>
      <path id="Path_52" data-name="Path 52" d="M41.769,32.8c.024,0,.1.007.147.008l-.058,0-.089-.005" transform="translate(-4.664 -3.662)" fill="#fff"/>
      <path id="Path_53" data-name="Path 53" d="M53.73,34.9c-.1.123-.131.706-.3.994a3.509,3.509,0,0,0-.259.55,1.188,1.188,0,0,1-.273.36,1.776,1.776,0,0,0-.306.353c-.028.056-.171.073-.213.116a1.727,1.727,0,0,0-.307.269c-.045.084-.239.314-.269.356a2.179,2.179,0,0,1-.194.187.053.053,0,0,1-.011.017c-.036.054-.146.205-.244.231-.118.031-.008.227-.1.289s-.108.115-.115.275l0,.011c-.012.14-.145.028-.141.226a.615.615,0,0,0,.084.37c.052.088,0,.178.037.379a2.92,2.92,0,0,0,.1.388c.029.1.054.167.054.167a1.358,1.358,0,0,0-.052.387c-.02.331-.066.333-.032.5s.017.179-.1.338a1.752,1.752,0,0,1-.347.319c-.08.065-.336.152-.4.217s-.1.174-.2.272a1.5,1.5,0,0,1-.3.246c-.11.068-.356.127-.191.306a.752.752,0,0,1,.118.712c-.057.323-.148.476-.254.481,0,0-.623.188-.53.481.012.036.021.068.032.1.064.21.055.281-.144.434-.233.178-.458.288-.559.63a.717.717,0,0,1-.555.6c-.389.152-.363.461-.551.469s-.489.191-.615.2-.262-.163-.536.02-.449.329-.625-.042.134-.619-.055-.912a1.356,1.356,0,0,1-.183-.658.378.378,0,0,0-.032-.068,1.278,1.278,0,0,1-.274-.666,5.726,5.726,0,0,0-.069-.962,4.17,4.17,0,0,1-.5-1.323c.01-.043.019-.092.036-.152a4.162,4.162,0,0,1,.493-1.17c.214-.288.206-.649.114-.7s-.139-.413-.042-.421-.062-.025-.149-.261a2.471,2.471,0,0,1-.061-.4.775.775,0,0,0-.07-.241A.46.46,0,0,0,44.5,39c-.044-.036-.089-.076-.141-.119-.251-.224-.528-.545-.494-.735.043-.223.164-.3.168-.39a.537.537,0,0,1,.018-.108,2.059,2.059,0,0,1,.079-.235.558.558,0,0,1,.043-.078.2.2,0,0,0,0-.263.846.846,0,0,0-.2-.231c-.039-.044-.077-.091-.113-.139l0,0a1.734,1.734,0,0,1-.346.1c-.1,0-.227.064-.349.068s-.192.019-.171-.114.179-.138-.011-.252-.171-.174-.312-.171a3.3,3.3,0,0,0-.36.006l-.013,0c-.072.013-.189.031-.261.041a.561.561,0,0,1-.061.012.1.1,0,0,1-.108.091c-.11,0-.131.08-.22.082a.637.637,0,0,0-.256.1,1.1,1.1,0,0,1-.2.064c-.062.024-.123.044-.185.067a.44.44,0,0,1-.048.014.306.306,0,0,1-.172-.008c-.108-.044-.016-.091-.185-.086s-.221,0-.43.012a1.188,1.188,0,0,0-.339.084,1.233,1.233,0,0,0-.247.1l-.164.027-.05.01s-.055.063-.211-.042a3.177,3.177,0,0,0-.364-.2s-.351-.223-.429-.284c-.059-.045-.075-.091-.137-.138a.288.288,0,0,0-.08-.043,1.06,1.06,0,0,1-.235-.121c-.06-.045-.2-.122-.2-.168s0-.187,0-.187l-.028-.061a.5.5,0,0,0-.155-.187c-.119-.076-.1-.108-.179-.153a.6.6,0,0,1-.162-.171.273.273,0,0,1-.036-.012c-.06-.024-.174-.082-.13-.176,0,0-.181.049-.264-.044-.04-.048-.063-.07-.073-.083l-.011-.011s-.165-.078-.145-.188-.02.031.02-.11.042-.049.042-.146v-.19a.523.523,0,0,1,.042-.173s.144-.219.186-.268a.127.127,0,0,0,.041-.1v-.121c0-.171.04-.219.04-.362s-.019-.08-.019-.221.1-.314,0-.347-.084-.016-.123-.1-.1-.079-.083-.192,0-.047.081-.172a2.187,2.187,0,0,1,.287-.309.533.533,0,0,1,.121-.232.8.8,0,0,0,.14-.169.622.622,0,0,1,.359-.446c.315-.13.221-.315.276-.333h0a.672.672,0,0,0,.275-.1,1.138,1.138,0,0,1,.27-.147s.292.027.291-.082.151-.211.151-.211c.005-.04.011-.082.017-.124a.747.747,0,0,1-.043-.2c0-.094.077-.12.092-.2s.113-.15.187-.255.168-.086.279-.125.209-.038.245-.094.187-.055.182-.133.073-.149.089-.211.033-.138.033-.138-.023-.077.107-.054a.356.356,0,0,1,.208.133.566.566,0,0,0,.185.071c.076,0,.168.007.237.014a.759.759,0,0,1,.185.006.7.7,0,0,0,.147.056.312.312,0,0,0,.06.005c.044,0,.062-.018.1-.061.05-.06-.091,0,.05-.06a.724.724,0,0,1,.285-.06c.071,0,.087-.043.156-.082a1.022,1.022,0,0,1,.282-.064,1.165,1.165,0,0,1,.174-.022,1.554,1.554,0,0,0,.4-.008c.327-.028.478-.051.478-.051l.293.016s.171-.008.222-.005.219,0,.219,0l.219-.035s.2.043.206.116.149-.01.149-.01-.142.144-.106.189.125.172.079.244-.128.114-.139.2a.223.223,0,0,0,.058.167.16.16,0,0,0,.139.1.182.182,0,0,1,.115.07c.042.04.079.085.123.089.084,0,.186.036.3.041s.381.047.381.047a.215.215,0,0,1,.139.179c.022.149.052.149.12.151s.291-.032.374.044.02.06.12.136.3.126.37.07.146.018.14-.083-.089-.28-.013-.335.119-.187.213-.181.232-.079.332.026a.8.8,0,0,0,.179.151,1.1,1.1,0,0,0,.3.111.214.214,0,0,1,.071.02c.052.022.09.06.133.06.062,0,.292,0,.371.012s.348.257.5.2.157-.179.354-.175.17.091.289.094.092.034.211.035.151.02.195.02a1.053,1.053,0,0,1,.147.41.905.905,0,0,1,.024.205c-.009.155.131.354-.067.195s-.168-.143-.215-.215-.143-.245-.175-.29.048.089.052.16.249.26.251.374-.041.084.1.24a1.193,1.193,0,0,1,.3.55.8.8,0,0,0,.083.218c.032.056.052.083.03.107-.045.039.055-.041.119.113s.227.472.227.515a.837.837,0,0,0,.017.261c.03.056,0,0,.147.154a.672.672,0,0,0,.184.129.19.19,0,0,1,.065.121c.042.177-.073.027.115.275s.059.3.2.327a.81.81,0,0,1,.386.275c.1.107.1.163.169.219a.243.243,0,0,1,.129.19c0,.08,0,.149,0,.19a.085.085,0,0,0,0,.025c.008.039.034.085.082.085s.055.107.139.107.184-.016.326-.028.083-.109.237-.112.112-.04.307-.04.3.011.372-.043.2-.137.2-.137.151-.055.055.066m-.407,6.674c-.044.032-.188-.192-.185-.026s.061.211.061.211.093.122-.05.124-.135.11-.116.3c-.007.019-.013.032-.019.048q-.341.925-.709,1.9s-.142.152-.245.156-.252.2-.414.012-.2-.159-.155-.3.11-.263.055-.327-.171-.076-.082-.271.114-.147.231-.358.274-.133.2-.32a.658.658,0,0,1-.1-.42c.015-.217-.012-.246.068-.357s.289-.192.353-.286.278-.071.357-.194.139-.171.23-.293.137-.124.142-.216A2.475,2.475,0,0,1,53,40.635s-.023-.123.151.1.176.146.194.383.021.424-.024.456M35.5,16.8c-.135.054-.212.125-.311.155s-.145.225-.529.477-.366.324-.366.322.346.014.41.014-.12.114-.394.214-.071.174.168.087.156.114.156.114-.274.222-.112.161.05.053-.07.182a.632.632,0,0,1-.285.153c.066-.007.14,0,.143.049.006.071-.14.053-.233.09s-.153.06-.34.132a4.01,4.01,0,0,0-.378.187c-.058.022.087.051.229.059s.162-.018.262.03.091.049.238.123.015.163-.2.251-.282.027-.312-.047-.2.093-.2.093-.243.246-.1.2.643-.151.7-.174.126-.075-.212.146-.716.539-.822.583-.2.168-.448.334-.229.132-.466.283-.076.142-.244.323a4.321,4.321,0,0,1-.523.5c-.356.314-.285.148-.47.229s-.243.237-.288.259.012.067.035.18-.022.152-.225.394-.238.107-.2.184-.063.253-.063.253-.1.266-.159.385c-.051.071-.1.139-.155.209-.193.084-.259.114-.326.074s-.1-.107-.139-.092a1.051,1.051,0,0,1-.312.1c-.174.03-.191-.068-.3-.113s-.088-.364-.126-.52-.082-.2-.148-.481a.732.732,0,0,1,.187-.565,4.421,4.421,0,0,1,.372-.3c.084-.052.146-.255.114-.241a1.188,1.188,0,0,1-.41.065c-.14-.016,0-.142.123-.191a.92.92,0,0,1,.346-.037,1.02,1.02,0,0,1-.189-.251c-.024-.077-.144.14-.347.252s-.171-.076-.171-.076a.862.862,0,0,0,.292-.285c.092-.169-.056-.3-.09-.472s-.086-.122-.376-.145-.33.194-.575.3-.187.042-.515.1.427-.467.431-.467-.346.118-.631.239-.113-.156.207-.294.533-.407.78-.513.156-.219-.033-.18.706-.567.709-.567.228-.107.245-.158a1.415,1.415,0,0,1,.358-.289c.091-.035.3-.123.624-.254s.185-.005.185-.005c.061-.032.118-.066.176-.1.036-.063.072-.127.107-.19.058-.036.118-.074.175-.111.041-.039.082-.076.119-.115a.2.2,0,0,1,.034.027c.039-.012.077-.025.115-.037s.06-.051.089-.076c.024-.006.046-.012.07-.02.041-.059.083-.115.124-.172a.518.518,0,0,0,.063-.005c.059-.026.116-.05.172-.079a.549.549,0,0,0,.085,0c.038-.04.077-.081.118-.12l.082-.1c.051-.016.1-.035.158-.05a.41.41,0,0,1,.043.025l.059-.1.195-.073.065.025c.029-.02.058-.044.09-.068l.15-.112c.047-.01.1-.017.147-.027l.042.034.157-.07.137-.074c.031-.009.064-.02.1-.027l0,.012.1-.06.171-.033c.036-.013.072-.027.111-.044a.241.241,0,0,0,.032.054c.044-.036.093-.069.139-.106,0,0,.14.008.177.008s.131-.007.162-.008a1.762,1.762,0,0,0,.184-.079c.038.024.079.044.117.065a1.02,1.02,0,0,1,.117.005.733.733,0,0,1,.1.1l0,0a.319.319,0,0,0,.042.011c.162.034-.035.173,0,.162s.338-.123.411-.16a4.573,4.573,0,0,1,.631-.24c.312-.1.327,0,.327,0a.438.438,0,0,1-.2.155M35.2,20.526a1.462,1.462,0,0,0-.475.35c0,.049-.125.1-.239.147a.718.718,0,0,1-.367.048c-.062-.02-.307.093-.307.093.043-.06.087-.124.131-.185l-.314.06a3.058,3.058,0,0,1,.25-.237c.037-.015.217-.163.044-.09s-.312.215-.376.171.316-.4.42-.366.062.127.158.089a.861.861,0,0,0,.282-.178.59.59,0,0,1,.272-.157c.136-.058.136-.012.282-.129s.5-.147.581,0a.993.993,0,0,1-.342.386m-1.081,20.11c-.049.175.042.261-.022.206s-.26-.184-.166.06.341.911.391,1.083-.071.151-.022.275.068.219.1.307a.568.568,0,0,1-.045.29c.016.1.03.206.045.311,0,0,.017.079-.163.086s0,.138-.005.172a1.786,1.786,0,0,1-.582.029c-.184-.014-.434.266-.509.352s-.212.338-.3.47.155.284.322.448.153.2.022.34-.077.2-.1.433-.085.353-.076.209a.194.194,0,0,0-.109-.2,1.09,1.09,0,0,0,0,.369,2.077,2.077,0,0,1,.056.648.017.017,0,0,0,0,.011c-.043.124-.165.123-.356.216s-.263-.059-.506-.067a2.383,2.383,0,0,0-.3-.02c-.02.006-.022.021-.007.053.045.094.2.075.419.136s-.066.121.078.254.2.089.254.23a.522.522,0,0,1-.028.455c-.093.211-.676.21-.788.227s.142.2.269.32.076.144.037.266-.192-.005-.459.031.1.206.144.3.238.046.386.1.035.1-.059.263.056.16.077.223a.214.214,0,0,1-.1.278c-.142.057-.118.231,0,.4a.3.3,0,0,0,.352.148c.122-.028.2-.06.306.227s.034.168-.044.215-.034.1.02.324.041.156-.091.219.033.159.28.308.056.057.474.4a1.114,1.114,0,0,0,1,.115l-.177.146a1.2,1.2,0,0,1-.172.038.819.819,0,0,0-.167.054.577.577,0,0,0-.114.077l-.022.005c-.065.019-.254.072-.306.09a.757.757,0,0,1-.323,0,.7.7,0,0,0-.3.05,1.345,1.345,0,0,1-.316-.15s-.109-.02-.149-.032-.078-.091-.078-.091a.57.57,0,0,1-.2-.121c-.075-.079-.116-.036-.116-.036a.912.912,0,0,1-.275-.262.691.691,0,0,0-.1-.11v0a1.255,1.255,0,0,0-.312-.27,2.806,2.806,0,0,1-.286-.295s0-.253.048-.268.056-.236.041-.276-.1.014-.163.02-.248.045-.248.045a2.28,2.28,0,0,0-.06-.306c-.032-.094.1-.057.1-.057.009-.056.015-.112.022-.165a2.327,2.327,0,0,0-.126-.34c-.076-.155-.15-.306-.17-.358a.644.644,0,0,0-.192-.263c-.066-.026-.017.118.044.258s.156.29.133.355-.094,0-.192-.193-.057-.33-.129-.311-.092-.205-.24-.34-.061-.307-.1-.465-.259-.231-.42-.415-.012-.194-.012-.194-.164-.549-.2-.659-.175-.445-.251-.668a1.177,1.177,0,0,0-.149-.307c-.059-.106-.266-.336-.163-.279s-.184-.477-.184-.477-.415-1.029-.524-1.353a12.484,12.484,0,0,0-.532-1.261c-.006.038-.054-.024-.107-.058a.235.235,0,0,0-.042-.018c-.063-.008-.2-.155-.312-.259s-.3-.044-.42-.087a4.019,4.019,0,0,1-.49-.223.666.666,0,0,1-.3-.279s-.075-.1-.163-.2-.318-.245-.408-.45a2.6,2.6,0,0,0-.386-.545.525.525,0,0,0-.406-.235c-.161-.005-.1-.169-.113-.225-.076-.252-.062-.346-.037-.393-.008-.026.048-.042.048-.068,0-.061.052-.226-.056-.156s-.147-.093-.2-.228-.021-.163,0-.2.076-.079,0-.215.029-.143.072-.155.055-.089.08-.134a.045.045,0,0,1,.013-.012c.032-.039,0,0-.038-.1s.006-.1.1-.163.047-.239.036-.274-.15-.553-.182-.611-.13-.072-.144-.115a.563.563,0,0,0-.094-.2c-.056-.068-.158.007-.194.036s-.035.063-.091.143c-.012.02-.019.026-.023.033l.01.012c.013,0,.044.007.08.068.068.109-.128.1-.152.021s-.169-.1-.261-.075a.162.162,0,0,1-.195-.039c-.07-.06-.055-.074-.25-.074-.142,0-.205-.172-.243-.265.012-.026.126-.023.193-.042s.084.006.123,0,.113.033.142.048c.02.072.027.059.209.145.133.064.171.054.2.033a.217.217,0,0,1,.068-.035c.091-.026.064-.145.194-.189s.112,0,.29.05.069.349.068.349a.3.3,0,0,0,.068-.258c-.043-.135.186-.212.186-.212s-.04-.136-.068-.228.112-.137.144-.2.109.082.109.082a.113.113,0,0,0,.029-.08c0-.044.009-.084.094-.106s.1-.081.139-.144.034-.062.145-.118.06.047.06.047-.047.049-.091.088c-.02.02-.031.032-.027.048a.175.175,0,0,0,.063.068c.074.063-.03.172,0,.284s.126.116.212.093-.009-.115-.117-.2.075-.266.134-.28l.27-.068c.06-.014.113.063.113.063a.108.108,0,0,0,.139.077c.114-.028.1-.088.23-.117s.219.076.284.044a.418.418,0,0,0,.123-.17c.141-.013.281-.029.426-.042,0,0,.044.017-.115.054s.059.06.2.094.136-.013.213.028-.065.173-.065.173a.72.72,0,0,0,.294,0,.053.053,0,0,0,.015,0c.141-.04.317.286.4.264.059-.022.235.076.3.115a.056.056,0,0,1,.022.013l.245-.05a2.717,2.717,0,0,1,.36,0,.081.081,0,0,0,.035-.005,2.5,2.5,0,0,1,.549.156.3.3,0,0,0,.038.014c.032.012.063.021.1.035,0,0,.14.155.211.254s.015.136.206.208.123,0,.17.1.032.117-.086.187.031.148.031.148.187-.007.271-.02.167-.036.243.067a.169.169,0,0,1,0,.169c.015-.028.031-.056.045-.082a.241.241,0,0,1,.244-.108c.119.015.26.056.5.108s.252.051.291.15a1.4,1.4,0,0,1,.061.227c.014-.02.033-.048.06-.084.174-.224.4-.1.5-.075s.207-.024.338-.042a2.7,2.7,0,0,1,.307-.028,1.9,1.9,0,0,1,.5.193,4.832,4.832,0,0,0,.562.237c.326.111.243.02.462,0s.044.119.179.263a1.548,1.548,0,0,1,.325.539.431.431,0,0,1-.139.534c-.131.125-.214.179-.242.259s.032.121-.014.295m-11.54-5.819c-.072.009-.3.209-.33.219a.121.121,0,0,1,.015-.116.675.675,0,0,1,.306-.261c.144-.054.138-.039.235,0s.1-.027.48.064a4.2,4.2,0,0,1,.67.221,1.067,1.067,0,0,1-.566.145c.036-.02.008-.114.008-.114s-.155.032-.127-.012-.08-.14-.08-.14-.107.106-.17.06a.393.393,0,0,0-.286,0c-.091.027-.083-.075-.155-.068m3.913-6.911a.664.664,0,0,0,.214-.338,1.175,1.175,0,0,1,.235-.336.165.165,0,0,0-.02-.022l.241-.112c.206-.1-.167.275-.25.35a.726.726,0,0,1,.219-.051c-.024.049-.052.1-.076.149,0,0,.055.036.147-.046a.415.415,0,0,1,.267-.063c.008.052.014.107.02.158s.025.1.036.15a.441.441,0,0,0,.043.056.254.254,0,0,1-.043.153.416.416,0,0,1-.152.1c-.054-.009-.109-.014-.162-.023-.018-.037-.037-.076-.056-.108a1.514,1.514,0,0,1-.475.274c-.334.13-.331.129-.334.129s.056-.357.145-.423m.489-4.331c-.245.123-.158.172-.26.318s-.117.121-.163.037a.352.352,0,0,0-.314-.126c-.071.032-.147.2-.147.2s.014.08.22.214.02.2-.036.392-.2.15-.326.052-.22.025,0,.154,0,.18.012.227-.253.007-.338.025-.281.085-.356-.169-.455.018-.547.057-.045.068-.193.129.058-.294.058-.3.128-.1.188-.163.256-.052.352-.092a.153.153,0,0,0,.093-.144s.052-.279.176-.347a.309.309,0,0,0,.171-.3c-.021-.115-.228-.1-.278-.218s-.366-.117-.364-.118l-.1.171-.452.187a3.124,3.124,0,0,1-.543.148c-.068.028-.134.054-.2.081-.011-.037-.023-.074-.034-.111.079-.061.157-.124.24-.187-.083.026-.165.053-.249.082-.007-.068-.015-.14-.024-.21l.167-.2c.1-.119.187-.237.286-.359,0,0,.194.089.175.151a1.3,1.3,0,0,1-.109.211s.135.181.192.157-.036-.514.013-.575l.156-.214c-.03.082-.061.162-.091.243.045-.045.091-.087.139-.133.073-.036.148-.072.221-.109s.174-.087.266-.131c.005.043.012.08.019.123-.03.057-.06.113-.091.168l-.1.151.33-.176c.045-.019.2-.1.2-.1a.292.292,0,0,0-.187-.016c-.069.028-.206-.155-.025-.251a1.444,1.444,0,0,1,.506-.066c.044-.017,0,.111-.052.152s.23,0,.178.054.219.036.219.036c.026.044.048.092.071.137,0,0,.308.011.136.086s.189.044.383-.02-.052.165-.052.165-.35.133-.318.225.19-.063.4-.044.163.054.449.074.195.14-.051.265m-3.589-.091a1.2,1.2,0,0,1-.171.085c-.055.085-.112.167-.167.25,0,.068-.012.136-.016.207.012.053.022.11.036.167l-.213.08c-.041.071-.084.139-.125.207-.058.022-.114.045-.17.065l-.09-.142a1.12,1.12,0,0,1,.161-.242c.074-.064.18-.3.233-.324s.036-.251.081-.308.2-.283.263-.362c0,0,.472-.058.434-.025a4.191,4.191,0,0,1-.255.343m-1.073.781c-.157.06-.115-.137-.115-.137l-.182-.044s.021-.225.155-.2l.133.023c0-.068.008-.138.013-.208.033-.043.067-.088.1-.131l.2-.077c.067-.024.208-.25.254-.172s-.083.308-.083.308l-.12.049s.1.238.031.281-.257.149-.257.149.024.1-.132.162m.358-1.437c.033-.049.074.144.1.208s.057-.156.057-.156c0-.042-.007-.084-.012-.13.076-.009.153-.021.228-.032-.009.055-.017.11-.026.163,0,0-.009.1-.022.18s-.119.067-.2.1l-.187.073c-.025-.052-.05-.1-.076-.158,0,0,.106-.195.139-.246m.272-.71c.051-.022.1-.043.153-.062.05.013.1.023.155.036.008.068.015.137.025.209-.047.009-.092.024-.142.034-.019-.025-.037-.046-.057-.071-.063.028-.126.062-.189.094-.012-.029-.021-.056-.033-.087-.056,0-.107.006-.161.006.082-.053.166-.1.25-.158m.607.776a.527.527,0,0,1-.172.089.946.946,0,0,0-.217.088l.115-.236a1.862,1.862,0,0,1,.212-.123c.069-.026.062.183.062.183m.126-.683a1.058,1.058,0,0,0,.413-.036c.1-.041.142-.135.2-.159s.141-.058.225-.094.151-.182.211-.2l.2-.087a.222.222,0,0,0,.123.007c.043-.017.042-.115.042-.115a.5.5,0,0,0-.186-.019c-.044.019-.227.115-.311.17a2.339,2.339,0,0,1-.279.138c-.056.023-.21-.071-.21-.072-.017-.064-.033-.131-.049-.2,0,0,.091-.259.178-.3s.286-.121.344-.143a1.075,1.075,0,0,0,.166-.113s.135-.036.187,0,.166-.012.166-.012a.8.8,0,0,1-.047-.12c-.012-.055-.019-.115-.029-.168a.426.426,0,0,1,.214-.237,2.357,2.357,0,0,0,.7-.339,2.619,2.619,0,0,1,.72-.43c.378-.161.333-.14.576-.246l.57-.238.434-.182a4.143,4.143,0,0,1,.436-.18.531.531,0,0,1,.4.036c-.1.062-.2.12-.292.18,0,0-.32.213-.44.285s-.345.244-.469.3-.219.314-.321.378a2.926,2.926,0,0,1-.349.167,5.836,5.836,0,0,0-.723.309c-.083.076-.184.375-.108.344s.294-.146.252-.11-.5.291-.5.291c-.012.039-.028.079-.044.118a1.958,1.958,0,0,1-.287.162c-.148.063-.083.172-.031.209s-.139.115-.137.115c-.175.069-.347.136-.523.2,0,0-.278.156-.321.174s-.5.25-.5.25-.514.386-.1.213.781-.385.822-.4.4-.154.4-.154a.36.36,0,0,1-.193.311c-.21.127-.286.216-.384.257s-.216.072-.354.13l-.388.161c-.127.051-.249.1-.291.12s-.142-.208-.062-.259.053-.271.053-.271l-.275.113s.052-.274.16-.259m20,5.268a.976.976,0,0,0,.1-.039s.087-.041.114-.007.1.109.1.109a1.618,1.618,0,0,1-.026.386l-.114.015c-.013.031-.029.061-.044.091-.04,0-.085,0-.126-.008-.007-.122-.015-.243-.023-.363-.023-.045-.046-.088-.069-.131l.1-.052m-.012-.4c.02-.076.224-.008.232.094s-.013.195-.139.187-.093-.282-.093-.282M17.865,35.986c-.106-.052-.215-.1-.325-.145a1.393,1.393,0,0,0-.037-.184.364.364,0,0,0-.074-.144.1.1,0,0,0-.059-.045c-.006-.139-.015-.282-.022-.424.022.036.044.081.068.131.06.132.193.123.258.279s.087.349.205.38a.2.2,0,0,1,.183.246c-.011.159-.2-.094-.2-.094m4.077-11.263a.922.922,0,0,1-.332.191c-.038.012.2.068-.023.146s-.159.142-.384.134-.235-.114-.287-.044a1.207,1.207,0,0,1-.516.356,3.468,3.468,0,0,0-.352.125c-.018-.045-.036-.093-.052-.138,0,0-.314.163-.334,0s.2-.231.394-.29.357-.11.357-.11-.574.076-.634.075.037-.08.166-.119-.109-.037-.064-.175.082-.166.251-.22a3.594,3.594,0,0,1,.374-.138c.172-.039.166-.111.287-.079s.259.02.294-.063-.032.123.029.06.1.015.115.067l-.005-.015a.361.361,0,0,1,.23-.406.215.215,0,0,1,.173.083c-.012-.078-.027-.159-.041-.239l.289-.106a.127.127,0,0,1-.065.1,1.86,1.86,0,0,0-.224.623c0,.234.443.091.355.192m17.48-.649c.107-.017.235-.091.114-.1s-.183.06-.166-.13.055-.258.206-.163.227.052.227.052-.091-.222.122-.206.245-.018.328.036.39.207.076.183-.235.006-.1.124.031.05.031.05c-.049.047.115.365-.108.386a1.215,1.215,0,0,0-.37.068c-.155.048-.153.107-.319.048s-.2-.063-.205-.145a.2.2,0,0,1,.163-.2m3.935-6.527.546,0c.33,0,.39-.07.616-.068s.378,0,.556,0h.542s.12.115-.094.2a.825.825,0,0,1-.411.1,2.2,2.2,0,0,1-.491-.059.619.619,0,0,0-.194-.032,1.5,1.5,0,0,1,.611.258.516.516,0,0,0,.4.169c.084,0,.046.086-.146.084a1.19,1.19,0,0,1-.386-.088c-.09-.042-.067-.236-.265-.21s-.145-.028-.258.2-.019.314-.2.23-.114.107-.387-.089-.262-.164.1-.246c0,0,.124-.147-.005-.149s-.18.149-.325.147-.33,0-.353-.165-.023-.287.142-.287m14,15.144c-.074-.092-.144-.185-.216-.277a.391.391,0,0,0,.187-.048c0-.033-.009-.064-.012-.1-.292.036-.253-.135-.362-.189a.165.165,0,0,0-.083-.019c-.239,0-.2-.121-.282-.27s-.107-.015-.5-.03a2.866,2.866,0,0,0-.485.012c-.054.005-.1.01-.149.01-.134,0-.338-.1-.6-.139s-.252-.291-.334-.373-.326.159-.534.117a.61.61,0,0,1-.337-.268,1.06,1.06,0,0,1-.531-.563c-.118-.211-.36.134-.355.23a.277.277,0,0,0,.049.124,2.1,2.1,0,0,0,.314.382c.155.154.03.14.132.319A1.067,1.067,0,0,0,53.63,32a.053.053,0,0,0,.044,0c.067-.041.344,0,.451-.052a2.424,2.424,0,0,0,.393-.417,1.686,1.686,0,0,0,.034.24.323.323,0,0,0,.025.071.716.716,0,0,0,.208.2.4.4,0,0,0,.232.042c.041,0,.109.122.163.177s.055.042.1.109a.289.289,0,0,1-.1.362c-.162.135-.094.135-.215.135s-.041.162-.041.2,0,.148,0,.148-.177.055-.19.175-.066.094-.244.092.028.19-.041.2a1.827,1.827,0,0,1-.274.012l-.151,0H54c-.039,0-.108.109-.121.2s-.111.094-.247.162-.152.163-.333.163a.2.2,0,0,0-.194.19,1.837,1.837,0,0,1-.533.109c-.237,0-.068.081-.282.15s-.2,0-.267-.078-.068-.152-.1-.33a2.007,2.007,0,0,1,0-.4.41.41,0,0,0-.01-.152.318.318,0,0,0-.075-.106c-.1-.111-.242-.138-.36-.4s-.188-.21-.377-.347-.139-.567-.139-.567c-.1-.335-.209-.253-.357-.394s-.064-.266-.292-.55a3.385,3.385,0,0,1-.306-.37,1.048,1.048,0,0,1-.115-.32,3.412,3.412,0,0,1-.068-.536c0-.1-.022-.173-.027-.287s.083-.14.153-.2a.11.11,0,0,0,.016-.012.276.276,0,0,0,.062-.185,4.492,4.492,0,0,0-.024-.478.151.151,0,0,0-.017-.079c-.012-.018-.036-.025-.077-.028a1.28,1.28,0,0,1-.329-.038c-.107-.033-.022.143-.2.151s-.163-.005-.3-.127a.214.214,0,0,0-.26-.038s-.057.071-.1.113-.138-.02-.138-.02l-.292-.041s-.068-.133-.1-.209a.177.177,0,0,0-.174-.1c-.076,0-.147-.139-.183-.213a.865.865,0,0,1-.086-.361c-.009-.114,0-.146.009-.152a.667.667,0,0,1-.243-.128c-.007-.008-.014-.011-.018-.019-.059-.044-.107.015-.245.038-.155.02,0,0-.072.084s-.088.131-.172.023-.043.073-.043.073c.048.071.092.142.139.214.086.088.169.177.251.265l-.088.084-.209-.1c.045.052.091.1.134.154-.026.005-.051.01-.076.012.006.051.014.1.025.15,0,0-.192-.022-.256-.04a.882.882,0,0,1-.178-.1c-.043-.057-.084-.11-.123-.167a1.274,1.274,0,0,0-.065-.256c-.03-.076-.04-.119-.092-.126a.215.215,0,0,0-.043,0c-.094.01-.177-.246-.211-.294a1.5,1.5,0,0,1-.041-.349c-.1-.079-.208-.162-.314-.242a.128.128,0,0,1-.023-.02,1.077,1.077,0,0,1-.2-.024c-.067-.019-.1-.1-.236-.149s-.211-.211-.259-.244a1.276,1.276,0,0,1-.282-.262.384.384,0,0,0-.087-.078c-.046-.02-.058.041-.161.035-.151-.011-.047.274-.047.274a2.142,2.142,0,0,0,.263.2c.171.118.192.194.192.194.03.058.063.115.094.171.083.031.167.06.251.091,0,0,.022.107.075.14a1.369,1.369,0,0,1,.482.235c.32.227.137.368-.037.163s-.308-.029-.239.018.274.27.179.266-.139.082-.2.186-.238.106-.238.106c-.032.089-.066.176-.1.264a4.305,4.305,0,0,1-.594-.282c-.051-.062.011-.135.176-.126s.164-.021.426-.009.076-.1.219-.125-.055-.107-.235-.386-.323-.214-.475-.268a1.957,1.957,0,0,1-.484-.33c-.195-.147-.172-.085-.185-.268s-.113-.193-.4-.271c-.243-.066-.221.013-.242.084a.071.071,0,0,1-.023.037.364.364,0,0,1-.254.187c-.151.02-.386-.147-.609-.161s-.16.206-.16.206c-.028.106-.057.212-.088.317a.744.744,0,0,1-.273.045c-.141-.009-.169.144-.355.271s.037.43-.087.422-.129.287-.222.267-.205.156-.205.156l-.326-.019c-.2-.012-.236.033-.419.024s-.1.147-.214.158-.131-.022-.191-.195a.217.217,0,0,0-.317-.112l-.022.013c-.04.019-.008-.013-.2-.024-.224-.013-.188-.057-.188-.057s-.03-.39-.123-.4-.022-.158.029-.231.222-.145.215-.391a2.741,2.741,0,0,0-.034-.327c-.012-.052-.018-.084-.018-.084-.211-.263.358-.318.357-.318.44.076.877.149,1.309.226a.791.791,0,0,1,.152-.046.407.407,0,0,1,.125-.014c.107.006.036-.323.03-.446a.937.937,0,0,0-.069-.288,2.167,2.167,0,0,0-.372-.351c-.2-.171-.321-.022-.322-.084s-.012-.238.075-.247A1.809,1.809,0,0,1,41,25.29a1.762,1.762,0,0,1,.244,0c.123.008.068-.028.025-.156s-.025-.161.1-.04a.372.372,0,0,0,.331.054s.027-.124.113-.119.093-.119.088-.2a.041.041,0,0,1,.027-.043,1.046,1.046,0,0,1-.211.025,3.638,3.638,0,0,1-.391,0c-.142-.01-.154,0-.285-.007a3.091,3.091,0,0,1-.326.011.784.784,0,0,0-.34.036c.013-.211.183-.269.353-.248a.235.235,0,0,0,.24-.158c-.12.179-.3.025-.379.018s-.19-.083-.178-.131.211.015.287-.016-.155-.2-.091-.2.053,0,.282-.087.027-.14.027-.14a.485.485,0,0,1-.1-.245c-.011-.133-.122-.082-.122-.082s-.245.033-.3.028.163-.147.163-.147c-.054,0-.106,0-.157-.01a1.288,1.288,0,0,1,.189-.068c.076-.021-.168-.014-.235-.018s.1-.125.1-.125-.211-.038-.213-.123.015-.143.125-.232a.923.923,0,0,0,.189-.229l.426.066a.9.9,0,0,1-.171.109.168.168,0,0,0-.1.173c.014.036.1-.066.2-.059a2.3,2.3,0,0,1,.348.084.286.286,0,0,1-.21.251c-.212.082-.224.106-.224.106s.1-.053.336.033a.234.234,0,0,1,.139.32s.06-.053.2.052.061.123.124.282-.07.115.027.192.213-.057.317-.014.055.052.014.167-.1.066-.191.2,0,0,.16.1c.05.029.056.05.041.067a.754.754,0,0,0,.184-.06c.048-.042-.029-.092.181-.123l.031,0c.251-.033.147-.07.25-.269s.129-.054.488-.143l.046-.012c.3-.081.211-.1.275-.1s.1-.2.1-.2a1.644,1.644,0,0,1-.206-.269,1.239,1.239,0,0,1-.023-.226c0-.068.194-.071.194-.071a1.027,1.027,0,0,0,.121-.106.254.254,0,0,1,.22-.066c.082,0,0,.112-.041.222s.1.039.155.106.021.066-.1.14-.144.036-.161.2.109.1.161.155a.4.4,0,0,0,.221.092.38.38,0,0,0,.237-.065c.043-.045.222.092.219.092l.125.04a.492.492,0,0,0,.061.02s.251-.066.374-.107.36-.091.36-.091l.139.137s.478.009.33-.047c-.082-.031,0-.059.067-.09s.115-.05.075-.08c-.086-.068.02-.129-.036-.2s.062-.012-.067-.182-.145-.188.052-.258.367.183.367.183a.163.163,0,0,0,.167.089c.1-.009.115-.142-.028-.277a.691.691,0,0,0-.121-.092c-.267-.16.137-.338.137-.338.194,0,.383.007.579.012.028-.022.059-.044.085-.063.06-.036.115-.075.175-.11-.06-.019-.118-.041-.176-.059l-.113,0c-.022,0-.043,0-.06-.005,0,0-.068.1-.113.113a.39.39,0,0,1-.156-.009c-.046,0-.2.027-.248.023s-.206-.011-.286-.014-.151-.107-.247-.129-.106-.09-.106-.09S45.8,22.2,45.726,22s.172-.3.172-.3a2.812,2.812,0,0,1,.387-.309c.05,0,.011-.067.062-.151.04-.064-.139-.1-.251-.11-.035-.005-.065-.007-.076-.008-.046,0-.2.044-.279.04s-.084.083-.172.147.094.125.094.125a2.8,2.8,0,0,1-.29.241c-.174.125-.492.145-.4.5s.348.3.417.487-.349.311-.349.311a1.547,1.547,0,0,0,.01.408c.036.212-.072.238-.187.232s-.241-.013-.252.052-.053.091-.151.086a.21.21,0,0,1-.179-.171.532.532,0,0,0-.067-.328c-.1-.234-.054-.231-.243-.322s.177-.171.016-.182l-.051,0c-.114-.007-.116-.02-.143-.139s-.116.141-.179.155-.1.141-.41.171-.3-.1-.3-.1c-.055-.079-.1-.158-.155-.236.065-.087.123-.177.187-.267l-.254.1c-.016-.1-.039-.187-.059-.279.131-.005.263-.01.394-.012-.107-.011-.21-.024-.315-.038a.488.488,0,0,1-.081-.149c-.006-.049.076-.044.188-.089a1.165,1.165,0,0,0,.188-.071c.046-.033.057-.246.057-.246s.244.014.295.015.079.005.147.006.089-.193.17-.192.193-.175.254-.188.092-.2.092-.2c.013-.063.028-.124.043-.187a1.043,1.043,0,0,1,.172-.165c.045-.013.139-.027.142-.147s.052-.205.107-.167.284-.007.284-.007.01-.192.055-.209.2-.044.191-.131.079,0,.205.005.139-.032.139-.032a1.5,1.5,0,0,1,.185-.029c.05,0,.149.059.143.006s.044-.139.181-.191a.31.31,0,0,1,.219-.011q-.019.113-.035.232c.05-.054.1-.1.153-.157,0,.058,0,.119.005.179.041-.054.083-.1.123-.156.049-.035.1-.071.144-.106.012.066.027.134.041.2.006-.03.013-.059.02-.087a.865.865,0,0,1,.248.1.383.383,0,0,0,.149.076H46.86c-.063,0,.081.162.081.162s.285-.1.353-.044.12.094.34.1a.856.856,0,0,1,.6.2.6.6,0,0,0,.438.175.416.416,0,0,1,.347.349c.016.159-.347.218-.611.192a4.432,4.432,0,0,1-.623-.179c-.062,0-.241-.061-.1.048a.9.9,0,0,0,.309.151.222.222,0,0,0,.057.231c.107.125.068.19.068.19s.127.022.187.025a.662.662,0,0,1,.282.183c.119.108.2-.044-.063-.174s-.062-.281.074-.171a.65.65,0,0,0,.472.12c.072-.031-.159-.178-.12-.264a.679.679,0,0,1,.42-.236.315.315,0,0,1,.2.111s.083.075.073-.033-.205-.2-.258-.416-.009-.216.176-.211.453.228.24.222-.112.123-.027.195.388.049.388.049c.013-.056.028-.107.044-.16a1.271,1.271,0,0,1,.222-.229.692.692,0,0,1,.238-.068,1.618,1.618,0,0,1,.159-.087c.044-.016.224-.068.219.042a.262.262,0,0,1-.091.179c.086,0,.171-.01.258-.012l.083-.107c.112.021.227.04.339.064a.469.469,0,0,1,.13-.143,19.982,19.982,0,0,0-31.12,2.987,1.234,1.234,0,0,1,.221-.076.8.8,0,0,0,.259-.127s-.075.176-.026.2.173-.09.19-.1c-.048.042-.1.084-.142.125l.341-.011c-.052.038-.107.076-.158.114,0,0,.3,0,.307-.093a.531.531,0,0,1,.156-.323c.068-.026.072.123.072.123.1-.021.194-.046.288-.068q-.141.176-.284.35a2.967,2.967,0,0,0-.369.135,1.186,1.186,0,0,1-.29.162,3.833,3.833,0,0,1-.389.153c-.044,0,.061-.1.2-.163s-.256,0-.358.052-.262.032-.212,0,.09-.087.175-.151-.062-.073-.138-.029l-.022.015c-.111.176-.221.353-.327.531.074-.05.148-.113.177-.1a.966.966,0,0,1,.175.178c-.035.049-.068.094-.1.141a3.9,3.9,0,0,0-.566.338c.041-.075-.473.941-.482.935s.006,0,.01.005c.086.06.126-.035.4-.113s.241.132.069.216-.091.122-.091.123.416-.2.559-.25.111-.021.178.05.053.127.106.146.044-.086.042-.168.068-.151.125-.232.163-.087.33-.144a.223.223,0,0,1,.26.106s.145-.084.247-.146a.862.862,0,0,1,.176-.083l.26-.093c.09-.033.125-.01.155.124s.068,0,.1-.014.005-.11.049-.175.1-.156.151-.237.182-.131.259-.234.227-.162.265-.265.076.173.094.213.073-.04.142-.18.175-.091.284.013-.019.156-.136.216-.023.131.037.131,0,0,.065-.074.125-.074.191-.2.134-.1.179-.168.029-.212.13-.331.163-.063.211-.082.217.01.251.082-.052.048-.214.227.052.065.093.171-.07.115-.282.274-.037.124-.2.153-.045.066-.158.061-.12.049-.221.087-.089.06-.1.175-.013.076-.069.108a.7.7,0,0,1-.2.067,1.7,1.7,0,0,0-.193.061s.044.02.139.053.248-.083.26-.03-.033.087-.264.291-.034.059-.171.111-.092.059-.189.1-.387.211-.206.156.014.193-.064.219c-.5.186-.824,1.181-.822,1.173s.193-.084.223.038a.724.724,0,0,1-.063.33,2.133,2.133,0,0,1,.306-.134c.175-.057.32.161.459.113a.183.183,0,0,1,.213.073s.388-.1.434-.119.042.058-.027.21.052.056-.061.219-.035.1-.026.237.032.031.083.146.065.049.161.016.06-.1.142-.194.1-.107.061-.219a1.662,1.662,0,0,1-.019-.4c.568-.356.62-.683.631-.807s0-.132-.157-.236.073-.352.163-.39.066-.113.047-.207.084-.123.075-.364.229-.206.3-.191.163-.088.31-.171.254-.068.281.024.07.146.155.112.167-.047.185.052.155-.019-.112.261-.009.183.033.18.078-.021.12.084.092.042.117-.036.144-.17.3-.338a1.677,1.677,0,0,0,.273-.46,2.891,2.891,0,0,1,.237.8c-.025.2-.067.1-.077.2s.128.1.273.131.094-.005.253-.028.162,0,.065.06-.061.059-.168.136a3.631,3.631,0,0,1-.3.209c-.161.1-.015.136.074.1a1.117,1.117,0,0,0,.263-.239c.1-.1.18-.174.2-.052s.135.008.175.045.024.111.02.254-.076.169-.35.3a.644.644,0,0,0-.354.3c-.107.138-.133.159-.182.178a2.776,2.776,0,0,1-.271.107c-.059.012-.251.13-.365.164s-.38.157-.454.187-.033.116-.066.157a.652.652,0,0,1-.114.107l-.147.137c-.059.052-.054.07-.15.158s-.114.183-.2.266a.888.888,0,0,0-.136.161.1.1,0,0,0,.11.017.173.173,0,0,0,.026-.023,1.992,1.992,0,0,0,.118-.174,1.12,1.12,0,0,1,.2-.273c.073-.027.176-.178.329-.3s.212-.07.4-.145.036.163-.005.25a.4.4,0,0,1-.1.142c-.053.059-.029.171-.023.239s.15.043.239.031a.48.48,0,0,0,.195-.084c.027-.02.119-.056.114-.124a.33.33,0,0,1,.14-.207c.037-.015-.066.209.026.164s.157-.011.068.115a.8.8,0,0,1-.2.228,3,3,0,0,1-.29.209c-.082.031-.169.145-.287.187s-.1.034-.2.212-.209-.015-.143-.186.327-.34.264-.308-.123.116-.206.166a.4.4,0,0,0-.094.074.1.1,0,0,0-.036.093c.009.038-.044.06-.109.083-.03.009-.065.021-.1.034-.107.036-.12.15-.235.22s-.168.146-.232.41c-.05.187-.006.205.019.2l-.171.058c-.068.024-.137.124-.308.211s-.151.06-.133.168-.132.367-.131.367c-.033,0-.061,0-.093-.006,0,0,.046.077-.035.281s-.06.082-.143-.2-.032.083-.032.083.042.162.06.219-.085.119-.116.139.1-.016.1-.016c.014.032.028.064.044.1-.044.034-.081.072-.123.108.036-.011.071-.02.107-.034.01.037.02.072.028.107a.3.3,0,0,1-.092.076c-.043.014-.014.06-.063.075s-.028.061-.084.178-.061.065-.185.166-.131.166-.346.432a.4.4,0,0,0-.033.5,5.028,5.028,0,0,1,.169.476c.074.257.056.157,0,.357s-.144.043-.243-.06a.877.877,0,0,1-.173-.335c-.039-.108-.052-.116-.044-.186s-.131-.067-.224-.151-.064.025-.117.1-.108.023-.206-.081-.048.083-.353.1-.191.115-.191.115a.175.175,0,0,1-.03.177c-.068.088-.127.034-.2-.006s-.1.031-.2.057-.061.018-.322.093-.084.05-.142.179-.018.057-.172.163-.135.179-.119.269a1.187,1.187,0,0,1,.02.2c0,.023,0,.044,0,.061.012.068-.053.086-.025.253s.046.463.1.64.173.2.253.295.052.091.166.057.051.116.215.068.211-.213.314-.156.107-.023.083-.049-.005-.08.06-.162.065-.167.022-.318.272-.238.48-.3.123.1.093.179a.321.321,0,0,0-.005.255.3.3,0,0,1,.023.121c0,.025-.018.056-.038.13-.043.153,0,.107-.031.254s-.02.059-.079.183a.178.178,0,0,0-.017.04c-.009.041.054-.019.118-.024a.042.042,0,0,1,.033,0c.083.016.106-.06.327-.131s.3-.016.3-.018a.881.881,0,0,1,.079.091.455.455,0,0,1,.083.146.981.981,0,0,1,0,.146c-.009.055.047.171.024.285a.314.314,0,0,0,.016.218c.02.063-.052.053-.121.028a.55.55,0,0,1-.154-.091c-.061-.044-.068-.044-.107-.04s.021.1.055.128-.016.029-.03.034l-.012-.013c-.037-.008-.171-.076-.269-.118-.06-.027-.055-.091-.075-.132-.006-.009-.012-.02-.023-.022s-.038-.012-.076,0c-.153.044-.1-.016-.254.029a.455.455,0,0,1-.194,0,1.5,1.5,0,0,1-.243-.061c-.027-.009-.047-.018-.06-.022-.05-.022-.269-.214-.358-.211s-.156.1-.179.189-.22.013-.361.02-.094-.006-.227-.035-.47-.143-.47-.143-.162.016-.251.036a1.594,1.594,0,0,1-.481-.2c-.1-.05-.026-.127,0-.227s.015-.113-.037-.293-.35-.247-.465-.37-.163-.035-.226-.134.012-.094-.055-.12-.2-.1-.225-.176-.115-.021-.189-.068-.092-.2-.147-.335c-.04-.1-.04-.193-.116-.241,0-.044-.006-.012-.006-.012a20.058,20.058,0,1,0,40.116,0c0-.617-.031-1.227-.085-1.829" transform="translate(-1.935 -1.602)" fill="#fff"/>
      <path id="Path_54" data-name="Path 54" d="M50.433,26.269c.011.019.021.028.028.042l0-.009c-.006-.008-.016-.02-.024-.033" transform="translate(-5.632 -2.933)" fill="#fff"/>
      <path id="Path_55" data-name="Path 55" d="M51.187,24.865h0s0-.01-.008-.012,0,.009.006.012" transform="translate(-5.715 -2.775)" fill="#fff"/>
    </g>
  </g>
</svg>
