<svg xmlns="http://www.w3.org/2000/svg" xmlns:xlink="http://www.w3.org/1999/xlink" width="118.653" height="44.823" viewBox="0 0 118.653 44.823">
  <defs>
    <clipPath id="clip-path">
      <rect id="Rectangle_2" data-name="Rectangle 2" width="118.653" height="44.823" fill="#1956a7"/>
    </clipPath>
  </defs>
  <g id="Group_1" data-name="Group 1" clip-path="url(#clip-path)">
    <path id="Path_1" data-name="Path 1" d="M28.943,2.335A1.728,1.728,0,1,1,27.215.6a1.733,1.733,0,0,1,1.728,1.738" transform="translate(-7.637 -0.179)" fill="#1956a7"/>
    <path id="Path_2" data-name="Path 2" d="M34.681,1.245A1.238,1.238,0,1,1,33.443,0a1.241,1.241,0,0,1,1.238,1.245" transform="translate(-9.65 0)" fill="#1956a7"/>
    <path id="Path_3" data-name="Path 3" d="M38.7,1.255A.654.654,0,1,1,38.042.6a.656.656,0,0,1,.655.658" transform="translate(-11.203 -0.179)" fill="#1956a7"/>
    <path id="Path_4" data-name="Path 4" d="M75.12,20.976a2.176,2.176,0,0,0,.691.467,2.154,2.154,0,0,0,.847.169h.528A2.163,2.163,0,0,0,79.2,20.281a2.159,2.159,0,0,0,.169-.852V16.7H77.115V18.44h.527v.989a.428.428,0,0,1-.13.316.438.438,0,0,1-.326.131h-.528a.447.447,0,0,1-.445-.447V15.195a.439.439,0,0,1,.131-.327.426.426,0,0,1,.314-.132h.528a.448.448,0,0,1,.456.459v.072h1.726v-.072a2.219,2.219,0,0,0-.168-.857A2.169,2.169,0,0,0,77.186,13h-.528a2.147,2.147,0,0,0-.847.17,2.186,2.186,0,0,0-1.323,2.025v4.234a2.171,2.171,0,0,0,.168.852,2.2,2.2,0,0,0,.464.7" transform="translate(-22.32 -3.895)" fill="#1956a7"/>
    <path id="Path_5" data-name="Path 5" d="M85.1,13H83.378v8.611h4.881V19.876H85.1Z" transform="translate(-24.984 -3.895)" fill="#1956a7"/>
    <path id="Path_6" data-name="Path 6" d="M93.483,15.194a.443.443,0,0,1,.131-.327.423.423,0,0,1,.314-.131h.527a.445.445,0,0,1,.456.458v4.234a.43.43,0,0,1-.13.317.439.439,0,0,1-.326.131h-.527a.423.423,0,0,1-.314-.131.431.431,0,0,1-.131-.317Zm.445,6.417h.527a2.17,2.17,0,0,0,2.183-2.184V15.194a2.207,2.207,0,0,0-.169-.857A2.163,2.163,0,0,0,94.455,13h-.527a2.141,2.141,0,0,0-.847.169,2.155,2.155,0,0,0-1.155,1.168,2.214,2.214,0,0,0-.169.857v4.234a2.181,2.181,0,0,0,.169.853,2.209,2.209,0,0,0,.464.694,2.172,2.172,0,0,0,.691.467,2.129,2.129,0,0,0,.847.169" transform="translate(-27.495 -3.895)" fill="#1956a7"/>
    <path id="Path_7" data-name="Path 7" d="M103.505,15.715a.448.448,0,0,1-.457.458h-.971V14.736h.971a.435.435,0,0,1,.326.132.44.44,0,0,1,.131.327Zm0,3.714a.427.427,0,0,1-.131.316.435.435,0,0,1-.326.132h-.971V17.909h.971a.448.448,0,0,1,.457.459Zm1.094-5.792A2.18,2.18,0,0,0,103.049,13h-2.7v8.611h2.7a2.17,2.17,0,0,0,2.183-2.183V18.367a2.12,2.12,0,0,0-.128-.742,2.323,2.323,0,0,0-.314-.579,2.523,2.523,0,0,0,.314-.59,2.116,2.116,0,0,0,.128-.742v-.52a2.208,2.208,0,0,0-.169-.858,2.179,2.179,0,0,0-.464-.7" transform="translate(-30.07 -3.895)" fill="#1956a7"/>
    <path id="Path_8" data-name="Path 8" d="M110.407,19.279l.478-2.59.478,2.59Zm1.193,2.332h1.728L111.742,13h-1.713l-1.587,8.611h1.728l.191-1.039h1.048Z" transform="translate(-32.495 -3.895)" fill="#1956a7"/>
    <path id="Path_9" data-name="Path 9" d="M121.6,19.876h-3.154V13h-1.726v8.612H121.6Z" transform="translate(-34.974 -3.895)" fill="#1956a7"/>
    <path id="Path_10" data-name="Path 10" d="M128.425,21.613h4.881V19.877h-3.154V17.909h2.1V16.174h-2.1V14.737h3.154V13h-4.881Z" transform="translate(-38.483 -3.896)" fill="#1956a7"/>
    <path id="Path_11" data-name="Path 11" d="M138.846,17.909h1.429v3.7H142V13h-1.726v3.173h-1.429V13H137.12v8.612h1.726Z" transform="translate(-41.088 -3.895)" fill="#1956a7"/>
    <path id="Path_12" data-name="Path 12" d="M150.069,13.637A2.18,2.18,0,0,0,148.52,13h-.528a2.144,2.144,0,0,0-.847.169,2.161,2.161,0,0,0-1.156,1.167,2.22,2.22,0,0,0-.168.858v.52a2.179,2.179,0,0,0,.633,1.546,2.25,2.25,0,0,0,.69.472,2.067,2.067,0,0,0,.848.176h.528a.438.438,0,0,1,.325.131.444.444,0,0,1,.13.328v1.061a.429.429,0,0,1-.13.316.436.436,0,0,1-.325.132h-.528a.418.418,0,0,1-.314-.134.443.443,0,0,1-.131-.324v-.072h-1.726v.072a2.184,2.184,0,0,0,1.323,2.024,2.124,2.124,0,0,0,.848.17h.528a2.176,2.176,0,0,0,1.549-.636,2.206,2.206,0,0,0,.464-.695,2.177,2.177,0,0,0,.168-.852V18.367a2.2,2.2,0,0,0-.632-1.558,2.18,2.18,0,0,0-1.549-.637h-.528a.425.425,0,0,1-.314-.131.442.442,0,0,1-.13-.327v-.52a.442.442,0,0,1,.13-.327.425.425,0,0,1,.314-.132h.528a.436.436,0,0,1,.325.132.442.442,0,0,1,.13.327v.072H150.7v-.072a2.2,2.2,0,0,0-.632-1.558" transform="translate(-43.695 -3.895)" fill="#1956a7"/>
    <path id="Path_13" data-name="Path 13" d="M156.473,16.69l.478,2.59h-.957Zm-.524,3.883H157l.191,1.039h1.728L157.329,13h-1.713l-1.587,8.612h1.728Z" transform="translate(-46.155 -3.896)" fill="#1956a7"/>
    <path id="Path_14" data-name="Path 14" d="M164.177,17.705l1.45,3.907h1.7V13H165.6v3.907L164.155,13h-1.7v8.612h1.726Z" transform="translate(-48.678 -3.895)" fill="#1956a7"/>
    <path id="Path_15" data-name="Path 15" d="M80.442,33.592a.729.729,0,0,1-.709.713h-1.35a.334.334,0,0,1-.333-.335V30.4a.334.334,0,0,1,.333-.335h1.35a.71.71,0,0,1,.5.2.63.63,0,0,1,.205.492ZM82.765,28.6a4.258,4.258,0,0,0-3.032-1.246H74.821a.334.334,0,0,0-.333.335V43.58a.334.334,0,0,0,.333.335h2.9a.334.334,0,0,0,.333-.335V37.26a.334.334,0,0,1,.333-.335h1.35a.688.688,0,0,1,.5.207.661.661,0,0,1,.209.506V43.58a.334.334,0,0,0,.333.335h2.9A.333.333,0,0,0,84,43.58V37.6a3.952,3.952,0,0,0-.263-1.436,4.463,4.463,0,0,0-.427-.836.331.331,0,0,1,0-.362,4.453,4.453,0,0,0,.44-.878A4.151,4.151,0,0,0,84,32.63v-1a4.242,4.242,0,0,0-.331-1.669,4.287,4.287,0,0,0-.908-1.359" transform="translate(-22.32 -8.197)" fill="#1956a7"/>
    <path id="Path_16" data-name="Path 16" d="M92.431,43.914h8.85a.334.334,0,0,0,.333-.335V40.668a.335.335,0,0,0-.333-.335H95.992A.334.334,0,0,1,95.659,40V37.259a.334.334,0,0,1,.333-.335h3.3a.334.334,0,0,0,.333-.335V33.677a.334.334,0,0,0-.333-.335h-3.3a.334.334,0,0,1-.333-.335V31.271a.334.334,0,0,1,.333-.335h5.288a.334.334,0,0,0,.333-.335V27.689a.335.335,0,0,0-.333-.335h-8.85a.334.334,0,0,0-.333.335V43.58a.333.333,0,0,0,.333.335" transform="translate(-27.597 -8.196)" fill="#1956a7"/>
    <path id="Path_17" data-name="Path 17" d="M113.15,27.355h-2.9a.334.334,0,0,0-.333.335V43.58a.335.335,0,0,0,.333.335h8.85a.335.335,0,0,0,.333-.335V40.668a.334.334,0,0,0-.333-.335h-5.288a.334.334,0,0,1-.333-.335V27.69a.333.333,0,0,0-.333-.335" transform="translate(-32.938 -8.197)" fill="#1956a7"/>
    <path id="Path_18" data-name="Path 18" d="M128.758,43.914h2.9a.334.334,0,0,0,.333-.335V27.689a.334.334,0,0,0-.333-.335h-2.9a.334.334,0,0,0-.333.335V43.58a.334.334,0,0,0,.333.335" transform="translate(-38.483 -8.196)" fill="#1956a7"/>
    <path id="Path_19" data-name="Path 19" d="M139.362,43.914h8.85a.333.333,0,0,0,.333-.335V40.668a.334.334,0,0,0-.333-.335h-5.288a.334.334,0,0,1-.333-.335V37.259a.334.334,0,0,1,.333-.335h3.3a.334.334,0,0,0,.333-.335V33.677a.334.334,0,0,0-.333-.335h-3.3a.334.334,0,0,1-.333-.335V31.271a.334.334,0,0,1,.333-.335h5.288a.333.333,0,0,0,.333-.335V27.689a.334.334,0,0,0-.333-.335h-8.85a.335.335,0,0,0-.333.335V43.58a.334.334,0,0,0,.333.335" transform="translate(-41.66 -8.196)" fill="#1956a7"/>
    <path id="Path_20" data-name="Path 20" d="M165.346,30.6V27.69a.334.334,0,0,0-.333-.335h-8.85a.334.334,0,0,0-.333.335V43.58a.334.334,0,0,0,.333.335h2.9a.334.334,0,0,0,.333-.335V37.26a.334.334,0,0,1,.333-.335h3.3a.335.335,0,0,0,.333-.335V33.678a.334.334,0,0,0-.333-.335h-3.3a.334.334,0,0,1-.333-.335V31.271a.334.334,0,0,1,.333-.335h5.288a.334.334,0,0,0,.333-.335" transform="translate(-46.694 -8.197)" fill="#1956a7"/>
    <path id="Path_21" data-name="Path 21" d="M62.851,35.413c-.006-.063-.013-.125-.018-.188.006.06.008.121.013.181l0,.006" transform="translate(-18.828 -10.555)" fill="#1956a7"/>
    <path id="Path_22" data-name="Path 22" d="M62.821,35.113h0c0,.024.006.047.009.07,0-.023,0-.047-.007-.071" transform="translate(-18.824 -10.521)" fill="#1956a7"/>
    <path id="Path_23" data-name="Path 23" d="M14.488,24.349a1.862,1.862,0,1,1-1.862-1.872,1.866,1.866,0,0,1,1.862,1.872" transform="translate(-3.226 -6.735)" fill="#1956a7"/>
    <path id="Path_24" data-name="Path 24" d="M11.787,30.6a1.862,1.862,0,1,1-1.862-1.872A1.866,1.866,0,0,1,11.787,30.6" transform="translate(-2.416 -8.607)" fill="#1956a7"/>
    <path id="Path_25" data-name="Path 25" d="M5.673,24.146A2.332,2.332,0,1,1,3.341,21.8a2.339,2.339,0,0,1,2.332,2.345" transform="translate(-0.302 -6.532)" fill="#1956a7"/>
    <path id="Path_26" data-name="Path 26" d="M9.594,16.693a2.332,2.332,0,1,1-2.332-2.345,2.339,2.339,0,0,1,2.332,2.345" transform="translate(-1.477 -4.299)" fill="#1956a7"/>
    <path id="Path_27" data-name="Path 27" d="M15.139,10a2.332,2.332,0,1,1-2.332-2.345A2.339,2.339,0,0,1,15.139,10" transform="translate(-3.139 -2.292)" fill="#1956a7"/>
    <path id="Path_28" data-name="Path 28" d="M18.749,20.225a1.359,1.359,0,1,1-1.359-1.366,1.363,1.363,0,0,1,1.359,1.366" transform="translate(-4.804 -5.651)" fill="#1956a7"/>
    <path id="Path_29" data-name="Path 29" d="M22.351,17.307a.906.906,0,1,1-.906-.91.908.908,0,0,1,.906.91" transform="translate(-6.155 -4.913)" fill="#1956a7"/>
    <path id="Path_30" data-name="Path 30" d="M25.191,15.717a.471.471,0,1,1-.471-.473.472.472,0,0,1,.471.473" transform="translate(-7.267 -4.568)" fill="#1956a7"/>
    <path id="Path_31" data-name="Path 31" d="M21.973,4.481a2.505,2.505,0,1,1-2.505-2.519,2.512,2.512,0,0,1,2.505,2.519" transform="translate(-5.083 -0.588)" fill="#1956a7"/>
    <path id="Path_32" data-name="Path 32" d="M3.454,32.422a1.727,1.727,0,1,1-1.727-1.737,1.732,1.732,0,0,1,1.727,1.737" transform="translate(0 -9.195)" fill="#1956a7"/>
    <path id="Path_33" data-name="Path 33" d="M9.922,37.517a1.862,1.862,0,1,1-1.862-1.872,1.866,1.866,0,0,1,1.862,1.872" transform="translate(-1.858 -10.681)" fill="#1956a7"/>
    <path id="Path_34" data-name="Path 34" d="M9.745,44.189a1.862,1.862,0,1,1-1.862-1.872,1.866,1.866,0,0,1,1.862,1.872" transform="translate(-1.804 -12.68)" fill="#1956a7"/>
    <path id="Path_35" data-name="Path 35" d="M10.919,50.784a1.358,1.358,0,1,1-1.358-1.366,1.362,1.362,0,0,1,1.358,1.366" transform="translate(-2.458 -14.808)" fill="#1956a7"/>
    <path id="Path_36" data-name="Path 36" d="M20.773,54.808a1.358,1.358,0,1,1-1.358-1.366,1.362,1.362,0,0,1,1.358,1.366" transform="translate(-5.411 -16.014)" fill="#1956a7"/>
    <path id="Path_37" data-name="Path 37" d="M24.34,58.26a1.358,1.358,0,1,1-1.358-1.366A1.362,1.362,0,0,1,24.34,58.26" transform="translate(-6.48 -17.048)" fill="#1956a7"/>
    <path id="Path_38" data-name="Path 38" d="M28.492,60.76a1.358,1.358,0,1,1-1.358-1.366,1.362,1.362,0,0,1,1.358,1.366" transform="translate(-7.724 -17.797)" fill="#1956a7"/>
    <path id="Path_39" data-name="Path 39" d="M32.883,62.224a.951.951,0,1,1-.952-.957.954.954,0,0,1,.952.957" transform="translate(-9.283 -18.358)" fill="#1956a7"/>
    <path id="Path_40" data-name="Path 40" d="M36.211,62.627a.639.639,0,1,1-.639-.643.641.641,0,0,1,.639.643" transform="translate(-10.467 -18.573)" fill="#1956a7"/>
    <path id="Path_41" data-name="Path 41" d="M38.585,62.736a.361.361,0,1,1-.361-.363.362.362,0,0,1,.361.363" transform="translate(-11.345 -18.69)" fill="#1956a7"/>
    <path id="Path_42" data-name="Path 42" d="M17.749,50.784a1.358,1.358,0,1,1-1.358-1.366,1.362,1.362,0,0,1,1.358,1.366" transform="translate(-4.505 -14.808)" fill="#1956a7"/>
    <path id="Path_43" data-name="Path 43" d="M15.223,45.58a.957.957,0,1,1-.723,1.142.952.952,0,0,1,.723-1.142" transform="translate(-4.338 -13.651)" fill="#1956a7"/>
    <path id="Path_44" data-name="Path 44" d="M14.843,42.573a.643.643,0,1,1-.486.767.639.639,0,0,1,.486-.767" transform="translate(-4.297 -12.752)" fill="#1956a7"/>
    <path id="Path_45" data-name="Path 45" d="M14.955,40.3a.364.364,0,1,1-.275.434.362.362,0,0,1,.275-.434" transform="translate(-4.396 -12.073)" fill="#1956a7"/>
    <path id="Path_46" data-name="Path 46" d="M11.469,54.51a.957.957,0,1,1-.723,1.142.952.952,0,0,1,.723-1.142" transform="translate(-3.213 -16.327)" fill="#1956a7"/>
    <path id="Path_47" data-name="Path 47" d="M13.638,58.313a.511.511,0,1,1-.386.609.508.508,0,0,1,.386-.609" transform="translate(-3.967 -17.47)" fill="#1956a7"/>
    <path id="Path_48" data-name="Path 48" d="M1.451,40.019a1.176,1.176,0,1,1,1.452-.8,1.177,1.177,0,0,1-1.452.8" transform="translate(-0.183 -11.301)" fill="#1956a7"/>
    <path id="Path_49" data-name="Path 49" d="M2.326,44.165a.645.645,0,1,1,.8-.437.647.647,0,0,1-.8.437" transform="translate(-0.559 -12.855)" fill="#1956a7"/>
    <path id="Path_50" data-name="Path 50" d="M20.478,25.485l0,0Z" transform="translate(-6.136 -7.636)" fill="#1956a7"/>
    <path id="Path_51" data-name="Path 51" d="M56.081,21.213l0,0Z" transform="translate(-16.804 -6.356)" fill="#1956a7"/>
    <path id="Path_52" data-name="Path 52" d="M41.769,32.8c.019,0,.078.006.116.006l-.046,0-.07,0" transform="translate(-12.516 -9.828)" fill="#1956a7"/>
    <path id="Path_53" data-name="Path 53" d="M46.027,30.549c-.076.1-.1.557-.237.784a2.765,2.765,0,0,0-.2.434.937.937,0,0,1-.215.284,1.4,1.4,0,0,0-.242.278c-.022.044-.135.057-.168.092a1.361,1.361,0,0,0-.242.212c-.036.067-.188.248-.212.281a1.719,1.719,0,0,1-.153.148.042.042,0,0,1-.008.013c-.028.043-.115.162-.193.182-.093.025-.006.179-.076.228s-.085.091-.09.216l0,.008c-.01.111-.114.022-.111.178a.485.485,0,0,0,.066.291c.041.069,0,.14.029.3a2.3,2.3,0,0,0,.081.306c.023.075.043.132.043.132a1.071,1.071,0,0,0-.041.305c-.016.261-.052.263-.025.393s.013.141-.075.266a1.381,1.381,0,0,1-.274.251c-.063.051-.265.12-.317.171s-.081.137-.158.214a1.185,1.185,0,0,1-.239.194c-.087.053-.281.1-.151.242a.593.593,0,0,1,.093.562c-.045.255-.117.375-.2.38,0,0-.491.148-.418.38.01.028.017.053.025.078.05.165.043.221-.113.342-.183.14-.361.227-.441.5a.565.565,0,0,1-.438.476c-.307.12-.286.363-.434.37s-.386.151-.485.155-.207-.129-.422.016-.354.259-.493-.033.106-.488-.043-.719a1.069,1.069,0,0,1-.144-.519.3.3,0,0,0-.025-.054,1.007,1.007,0,0,1-.216-.525A4.514,4.514,0,0,0,39,37.6a3.287,3.287,0,0,1-.4-1.043c.008-.034.015-.073.028-.12a3.281,3.281,0,0,1,.389-.922c.169-.227.162-.512.09-.555s-.11-.326-.033-.332-.049-.02-.118-.206a1.949,1.949,0,0,1-.048-.313.611.611,0,0,0-.055-.19.362.362,0,0,0-.109-.132l-.111-.094c-.2-.176-.416-.43-.389-.579.034-.176.13-.237.132-.307a.424.424,0,0,1,.014-.085,1.624,1.624,0,0,1,.062-.185.44.44,0,0,1,.034-.062.16.16,0,0,0,0-.207.667.667,0,0,0-.154-.182c-.031-.035-.061-.072-.089-.11l0,0a1.367,1.367,0,0,1-.272.077c-.082,0-.179.05-.275.054s-.151.015-.135-.09.141-.109-.008-.2-.135-.137-.246-.134a2.6,2.6,0,0,0-.284,0h-.011c-.057.011-.149.025-.206.032a.443.443,0,0,1-.048.009.076.076,0,0,1-.085.072c-.087,0-.1.063-.174.064a.5.5,0,0,0-.2.077.864.864,0,0,1-.159.05c-.049.019-.1.035-.146.053a.347.347,0,0,1-.038.011.241.241,0,0,1-.136-.006c-.085-.034-.013-.071-.146-.068s-.174,0-.339.01a.936.936,0,0,0-.268.066.973.973,0,0,0-.195.081l-.13.021-.039.008s-.043.05-.166-.033a2.5,2.5,0,0,0-.287-.16s-.277-.176-.338-.224c-.046-.036-.059-.071-.108-.109a.227.227,0,0,0-.063-.034.836.836,0,0,1-.186-.1c-.047-.036-.158-.1-.158-.132s0-.148,0-.148l-.022-.048a.4.4,0,0,0-.122-.147c-.094-.06-.078-.085-.141-.12a.476.476,0,0,1-.127-.135.216.216,0,0,1-.029-.009c-.048-.019-.137-.064-.1-.139,0,0-.143.039-.208-.035-.032-.038-.05-.055-.057-.066l-.008-.008s-.13-.062-.114-.148-.016.025.015-.087.033-.039.033-.115v-.15a.412.412,0,0,1,.033-.137s.113-.172.146-.212a.1.1,0,0,0,.032-.078v-.1c0-.135.032-.173.032-.285s-.015-.063-.015-.174.08-.248,0-.274-.067-.013-.1-.076-.082-.062-.066-.151,0-.037.064-.136a1.724,1.724,0,0,1,.226-.244.42.42,0,0,1,.1-.183.627.627,0,0,0,.111-.133.49.49,0,0,1,.283-.352c.249-.1.174-.249.218-.263h0a.53.53,0,0,0,.217-.078.9.9,0,0,1,.213-.116s.23.021.23-.064.119-.166.119-.166c0-.032.008-.064.013-.1a.589.589,0,0,1-.034-.158c0-.074.061-.095.073-.156s.089-.118.148-.2.132-.068.22-.1.165-.03.193-.074.147-.043.144-.105.057-.118.07-.166.026-.109.026-.109-.018-.061.085-.043a.281.281,0,0,1,.164.105.446.446,0,0,0,.146.056c.06,0,.132.006.187.011a.6.6,0,0,1,.146,0,.55.55,0,0,0,.116.044.246.246,0,0,0,.047,0c.034,0,.049-.014.08-.048s-.072,0,.039-.047a.571.571,0,0,1,.225-.047c.056,0,.069-.034.123-.064a.806.806,0,0,1,.222-.05.919.919,0,0,1,.137-.018,1.226,1.226,0,0,0,.318-.006c.258-.022.377-.04.377-.04l.231.013s.134-.006.175,0,.172,0,.172,0l.173-.027s.158.034.162.092.118-.008.118-.008-.112.113-.083.149.1.136.062.193-.1.09-.11.159a.176.176,0,0,0,.046.132.126.126,0,0,0,.109.076.143.143,0,0,1,.091.055c.033.032.062.067.1.07.067,0,.146.029.239.032s.3.037.3.037a.17.17,0,0,1,.11.141c.018.118.041.118.095.119s.23-.025.295.035.016.047.095.107.233.1.291.055.115.014.111-.065-.07-.221-.011-.264.094-.147.168-.143.183-.062.262.02a.634.634,0,0,0,.141.119.868.868,0,0,0,.238.088.169.169,0,0,1,.056.015c.041.018.071.047.105.048s.23,0,.293.01.275.2.393.159.124-.141.279-.138.134.072.228.074.073.027.166.027.119.015.153.015a.83.83,0,0,1,.116.323.714.714,0,0,1,.019.162c-.007.123.1.279-.053.153s-.132-.113-.169-.169-.113-.193-.138-.229.038.07.041.126.2.205.2.295-.032.066.076.189a.941.941,0,0,1,.233.434.627.627,0,0,0,.065.172c.025.044.041.066.024.084-.036.031.043-.032.094.089s.179.372.179.406a.66.66,0,0,0,.013.206c.024.044,0,0,.116.121a.53.53,0,0,0,.145.1.15.15,0,0,1,.051.1c.033.139-.057.021.091.217s.046.237.159.258a.639.639,0,0,1,.3.217c.079.085.076.129.133.172a.191.191,0,0,1,.1.15c0,.063,0,.118,0,.15a.067.067,0,0,0,0,.02c.006.031.027.067.064.067s.043.084.11.084.145-.013.257-.022.065-.086.187-.088.088-.032.242-.032.24.008.293-.034.155-.108.155-.108.119-.043.043.052m-.321,5.262c-.034.025-.148-.151-.146-.02s.048.167.048.167.074.1-.039.1-.106.087-.092.233c-.006.015-.011.025-.015.038q-.269.729-.559,1.5s-.112.12-.193.123-.2.161-.326.01-.154-.125-.122-.24.087-.207.043-.258-.135-.06-.064-.214.09-.116.182-.282.216-.105.158-.252a.519.519,0,0,1-.082-.331c.012-.171-.009-.194.054-.282s.228-.151.278-.226.219-.056.282-.153.11-.135.181-.231.108-.1.112-.17a1.952,1.952,0,0,1,.046-.247s-.018-.1.119.077.139.115.153.3.017.334-.019.359M31.658,16.282c-.106.043-.167.1-.245.122s-.114.177-.417.376-.289.256-.289.254.273.011.323.011-.095.09-.311.169-.056.137.132.069.123.09.123.09-.216.175-.088.127.039.042-.055.144a.5.5,0,0,1-.225.12c.052-.006.111,0,.113.039,0,.056-.111.042-.183.071s-.12.048-.268.1a3.163,3.163,0,0,0-.3.147c-.046.018.069.04.181.046s.127-.014.207.024.072.039.188.1.012.129-.158.2-.222.021-.246-.037-.155.074-.155.074-.191.194-.077.155.507-.119.553-.137.1-.059-.167.115-.564.425-.648.459-.155.132-.353.263-.181.1-.368.223-.06.112-.193.255a3.406,3.406,0,0,1-.413.4c-.281.247-.225.117-.37.181s-.191.187-.227.2.01.053.027.142-.018.12-.177.31-.188.084-.156.145-.05.2-.05.2-.076.209-.125.3c-.04.056-.082.11-.122.165-.152.067-.2.09-.257.058s-.082-.085-.11-.073a.828.828,0,0,1-.246.078c-.137.024-.151-.053-.24-.089s-.069-.287-.1-.41-.064-.16-.117-.379a.577.577,0,0,1,.147-.445,3.486,3.486,0,0,1,.293-.236c.067-.041.115-.2.09-.19a.937.937,0,0,1-.323.051c-.111-.013,0-.112.1-.151a.725.725,0,0,1,.272-.029.8.8,0,0,1-.149-.2c-.019-.061-.113.111-.274.2s-.135-.06-.135-.06a.68.68,0,0,0,.23-.225c.073-.133-.044-.237-.071-.372s-.068-.1-.3-.114-.26.153-.453.236-.148.033-.406.079.337-.368.34-.368-.272.093-.5.188-.089-.123.163-.232.42-.321.615-.4.123-.173-.026-.142.557-.447.559-.447.18-.084.193-.125a1.116,1.116,0,0,1,.282-.228c.072-.027.238-.1.492-.2s.146,0,.146,0c.048-.025.093-.052.139-.077.028-.05.057-.1.084-.15l.138-.088c.032-.031.064-.06.094-.09a.16.16,0,0,1,.027.021l.09-.029c.023-.021.048-.04.07-.06l.055-.016c.032-.046.065-.091.1-.136a.408.408,0,0,0,.05,0c.046-.02.092-.039.136-.062a.433.433,0,0,0,.067,0c.03-.032.061-.064.093-.095l.064-.08c.04-.013.083-.027.125-.039a.324.324,0,0,1,.034.02l.046-.076.153-.057.051.02c.023-.016.046-.035.071-.053l.118-.088.116-.021.033.027.124-.055.108-.058c.025-.007.05-.015.076-.021l0,.009.079-.048.134-.026c.028-.011.057-.021.088-.034a.19.19,0,0,0,.025.043c.034-.028.074-.055.109-.083,0,0,.111.006.139.006s.1-.006.127-.006a1.389,1.389,0,0,0,.145-.062c.03.019.062.034.092.051a.8.8,0,0,1,.092,0,.578.578,0,0,1,.075.077h0a.252.252,0,0,0,.033.008c.127.027-.027.137,0,.127s.267-.1.324-.126a3.605,3.605,0,0,1,.5-.189c.246-.076.258,0,.258,0a.345.345,0,0,1-.161.122m-.241,2.937a1.153,1.153,0,0,0-.375.276c0,.039-.1.079-.188.116a.566.566,0,0,1-.289.038c-.049-.016-.242.074-.242.074l.1-.146-.247.048a2.41,2.41,0,0,1,.2-.187c.029-.012.171-.128.035-.071s-.246.169-.3.135.249-.313.331-.289.049.1.125.07a.679.679,0,0,0,.223-.14.465.465,0,0,1,.214-.124c.107-.046.107-.01.222-.1s.4-.116.458,0a.783.783,0,0,1-.27.3m-.852,15.855c-.039.138.033.206-.018.162s-.205-.145-.131.047.269.719.308.854-.056.119-.018.216.054.172.079.242a.448.448,0,0,1-.036.228c.013.08.024.162.036.245,0,0,.013.062-.128.068s0,.109,0,.136a1.408,1.408,0,0,1-.459.023c-.145-.011-.342.209-.4.277s-.167.266-.238.37.122.224.254.353.12.16.018.268-.061.161-.076.341-.067.278-.06.165a.153.153,0,0,0-.086-.154.86.86,0,0,0,0,.291,1.638,1.638,0,0,1,.044.511.014.014,0,0,0,0,.008c-.034.1-.13.1-.281.17s-.207-.046-.4-.053a1.879,1.879,0,0,0-.238-.015c-.015,0-.018.017-.006.042.036.074.161.059.331.107s-.052.1.062.2.159.07.2.181a.411.411,0,0,1-.022.359c-.074.167-.533.165-.621.179s.112.155.212.252.06.113.029.21-.151,0-.362.025.077.162.113.239.188.036.3.081.027.076-.046.207.044.126.061.176a.169.169,0,0,1-.08.219c-.112.045-.093.182,0,.312a.237.237,0,0,0,.277.117c.1-.022.16-.047.241.179s.027.132-.035.169-.027.083.015.256.032.123-.071.172.026.125.221.243.044.045.374.313a.878.878,0,0,0,.785.091l-.139.115a.945.945,0,0,1-.136.03.646.646,0,0,0-.132.043.455.455,0,0,0-.09.061l-.018,0c-.051.015-.2.057-.242.071a.6.6,0,0,1-.255,0,.55.55,0,0,0-.236.039,1.061,1.061,0,0,1-.249-.118s-.086-.015-.118-.025-.062-.071-.062-.071a.449.449,0,0,1-.16-.1c-.059-.062-.092-.028-.092-.028a.719.719,0,0,1-.217-.207.545.545,0,0,0-.075-.087v0a.989.989,0,0,0-.246-.213,2.211,2.211,0,0,1-.226-.233s0-.2.038-.212.044-.186.032-.218-.077.011-.129.015-.2.036-.2.036a1.8,1.8,0,0,0-.048-.242c-.025-.074.075-.045.075-.045.007-.044.012-.088.018-.13a1.835,1.835,0,0,0-.1-.268c-.06-.123-.118-.242-.134-.282a.508.508,0,0,0-.151-.207c-.052-.02-.013.093.034.2s.123.228.105.28-.074,0-.151-.152-.045-.261-.1-.245-.073-.162-.189-.268-.048-.242-.082-.367-.2-.182-.331-.327-.01-.153-.01-.153-.13-.433-.158-.52-.138-.351-.2-.527a.927.927,0,0,0-.118-.242c-.046-.083-.21-.265-.128-.22s-.145-.376-.145-.376-.327-.811-.413-1.067a9.844,9.844,0,0,0-.42-.994c0,.03-.043-.019-.085-.046A.185.185,0,0,0,25,36.855c-.05-.006-.161-.122-.246-.2s-.235-.034-.331-.069a3.17,3.17,0,0,1-.387-.176.525.525,0,0,1-.238-.22s-.059-.083-.128-.161-.251-.193-.321-.355a2.049,2.049,0,0,0-.3-.43.414.414,0,0,0-.32-.185c-.127,0-.076-.133-.089-.177-.06-.2-.049-.273-.029-.31-.006-.02.038-.033.038-.054,0-.048.041-.178-.044-.123s-.116-.074-.154-.18-.017-.128,0-.155.06-.062,0-.169.023-.113.057-.123.043-.07.063-.106a.036.036,0,0,1,.011-.01c.025-.031,0,0-.03-.076s0-.078.081-.128.037-.188.028-.216-.118-.436-.144-.482-.1-.057-.113-.09a.444.444,0,0,0-.074-.156c-.044-.053-.125.006-.153.028s-.027.05-.072.113c-.01.015-.015.02-.018.026l.008.009c.011,0,.034.006.063.053.054.086-.1.078-.12.017s-.133-.079-.206-.059a.128.128,0,0,1-.153-.031c-.055-.048-.043-.058-.2-.058-.112,0-.162-.136-.192-.209.01-.02.1-.018.152-.033s.066,0,.1,0,.089.026.112.038c.016.057.021.046.165.114.105.05.134.043.161.026a.171.171,0,0,1,.053-.027c.071-.02.05-.114.153-.149s.088,0,.228.039.055.275.054.275a.237.237,0,0,0,.053-.2c-.034-.106.146-.167.146-.167s-.032-.107-.054-.18.088-.108.113-.159.086.064.086.064a.089.089,0,0,0,.023-.063c0-.034.007-.067.074-.083s.081-.064.11-.113.027-.049.114-.093.047.037.047.037-.037.039-.071.069c-.016.016-.025.025-.021.038a.138.138,0,0,0,.05.053c.058.05-.024.136,0,.224s.1.092.167.074-.007-.091-.092-.156.059-.209.106-.221l.213-.053c.048-.011.089.05.089.05a.085.085,0,0,0,.109.061c.09-.022.082-.069.181-.092s.172.06.224.035a.329.329,0,0,0,.1-.134c.111-.011.221-.023.336-.033,0,0,.035.013-.09.043s.046.048.16.074.107-.011.168.022-.051.137-.051.137a.567.567,0,0,0,.232,0l.012,0c.111-.032.25.226.312.208.046-.018.186.06.236.09a.044.044,0,0,1,.018.011l.193-.039a2.142,2.142,0,0,1,.284,0,.064.064,0,0,0,.027,0,1.967,1.967,0,0,1,.433.123.233.233,0,0,0,.03.011c.025.009.05.017.075.027,0,0,.111.122.167.2s.012.107.162.164.1,0,.134.075.025.092-.068.147.025.117.025.117.148-.006.214-.016.132-.029.192.053a.133.133,0,0,1,0,.133l.036-.064a.19.19,0,0,1,.193-.085c.094.012.205.044.393.085s.2.04.23.118a1.1,1.1,0,0,1,.048.179c.011-.016.026-.038.048-.066.137-.176.313-.083.4-.059s.163-.019.267-.033a2.131,2.131,0,0,1,.242-.022,1.5,1.5,0,0,1,.4.152,3.81,3.81,0,0,0,.443.187c.257.088.192.015.364,0s.035.094.141.207a1.221,1.221,0,0,1,.256.425.34.34,0,0,1-.109.421c-.1.1-.169.141-.19.2s.025.1-.011.233m-9.1-4.588c-.057.007-.233.165-.26.173a.1.1,0,0,1,.012-.092.532.532,0,0,1,.241-.206c.113-.043.109-.031.185,0s.081-.021.378.05a3.311,3.311,0,0,1,.528.174.841.841,0,0,1-.446.114c.028-.015.006-.09.006-.09s-.123.025-.1-.009-.063-.111-.063-.111-.084.083-.134.048a.31.31,0,0,0-.226,0c-.071.021-.065-.059-.122-.053m3.085-5.449a.523.523,0,0,0,.169-.266.926.926,0,0,1,.185-.265.13.13,0,0,0-.015-.018l.19-.088c.162-.077-.132.217-.2.276a.573.573,0,0,1,.173-.04c-.019.039-.041.078-.06.118,0,0,.043.029.116-.036a.327.327,0,0,1,.211-.05c.006.041.011.084.015.125s.02.079.029.118a.349.349,0,0,0,.034.044.2.2,0,0,1-.034.12.328.328,0,0,1-.12.081c-.043-.007-.086-.011-.127-.018-.014-.029-.029-.06-.044-.085a1.194,1.194,0,0,1-.375.216l-.263.1s.044-.282.114-.333m.386-3.414c-.193.1-.125.136-.205.251s-.092.1-.129.029a.278.278,0,0,0-.248-.1c-.056.025-.116.161-.116.161s.011.063.174.169.015.155-.029.309-.159.118-.257.041-.174.02,0,.121,0,.142.01.179-.2.006-.267.02-.221.067-.281-.133-.359.014-.431.045-.036.054-.152.1.046-.232.046-.234.1-.081.148-.128.2-.041.277-.073a.121.121,0,0,0,.074-.113s.041-.22.139-.274a.244.244,0,0,0,.135-.24c-.017-.091-.18-.076-.219-.172s-.289-.092-.287-.093l-.083.134-.356.148a2.463,2.463,0,0,1-.428.117c-.053.022-.106.043-.16.064-.008-.029-.018-.058-.027-.088.062-.048.124-.1.189-.147-.065.02-.13.042-.2.064-.006-.054-.012-.111-.019-.165l.132-.154c.075-.094.148-.187.226-.283,0,0,.153.07.138.119a1.021,1.021,0,0,1-.086.167s.106.143.151.124-.029-.406.011-.453l.123-.169c-.024.064-.048.127-.071.191.036-.036.071-.069.109-.105.057-.028.117-.057.174-.086s.137-.069.209-.1c0,.034.01.063.015.1-.024.045-.047.089-.071.132l-.075.119.26-.139c.036-.015.155-.078.155-.078a.23.23,0,0,0-.147-.013c-.055.022-.162-.123-.02-.2a1.139,1.139,0,0,1,.4-.052c.035-.013,0,.088-.041.12s.181,0,.14.043.172.028.172.028c.02.035.038.073.056.108,0,0,.243.008.107.068s.149.034.3-.015-.041.13-.041.13-.276.105-.251.177.15-.05.312-.035.128.043.354.058.153.111-.04.209m-2.829-.071a.944.944,0,0,1-.135.067c-.043.067-.088.132-.132.2,0,.053-.009.107-.013.163s.018.087.028.132l-.168.063c-.032.056-.067.109-.1.163-.046.018-.09.036-.134.051l-.071-.112a.883.883,0,0,1,.127-.19c.058-.05.142-.24.183-.256s.028-.2.064-.243.161-.223.207-.286c0,0,.372-.046.342-.02a3.306,3.306,0,0,1-.2.27m-.846.616c-.124.047-.09-.108-.09-.108l-.144-.035s.017-.177.123-.159l.105.018c0-.054.006-.109.011-.164.026-.034.053-.069.08-.1l.158-.061c.053-.019.164-.2.2-.136s-.065.243-.065.243l-.095.039s.075.188.025.221-.2.118-.2.118.019.079-.1.127m.282-1.133c.026-.039.058.113.08.164s.045-.123.045-.123c0-.033-.006-.067-.01-.1.06-.007.12-.017.18-.025-.007.043-.013.087-.02.128,0,0-.007.078-.018.142s-.094.053-.159.078l-.147.057c-.02-.041-.039-.083-.06-.125,0,0,.083-.153.109-.194m.214-.56c.04-.018.081-.034.12-.049.039.011.081.018.122.028.006.054.012.108.02.165-.037.007-.073.019-.112.027-.015-.02-.029-.036-.045-.056-.05.022-.1.049-.149.074-.01-.023-.017-.044-.026-.069-.044,0-.084,0-.127,0,.064-.042.131-.083.2-.125m.478.612a.416.416,0,0,1-.136.07.745.745,0,0,0-.171.069l.09-.186a1.467,1.467,0,0,1,.167-.1c.055-.02.049.144.049.144m.1-.539a.834.834,0,0,0,.326-.028c.078-.032.112-.106.156-.125s.111-.046.177-.074.119-.144.166-.161l.158-.069a.175.175,0,0,0,.1.006c.034-.013.033-.091.033-.091a.4.4,0,0,0-.146-.015c-.034.015-.179.091-.245.134a1.845,1.845,0,0,1-.22.109c-.044.018-.165-.056-.165-.057-.013-.05-.026-.1-.039-.154,0,0,.072-.2.14-.233s.226-.1.271-.113a.848.848,0,0,0,.131-.089s.106-.028.148,0,.131-.009.131-.009a.632.632,0,0,1-.037-.095c-.009-.043-.015-.09-.023-.132a.336.336,0,0,1,.169-.187,1.858,1.858,0,0,0,.554-.268,2.065,2.065,0,0,1,.568-.339c.3-.127.263-.111.454-.194l.45-.188.342-.144a3.266,3.266,0,0,1,.344-.142.418.418,0,0,1,.316.028c-.078.049-.154.095-.23.142,0,0-.252.168-.347.225s-.272.193-.37.234-.172.248-.253.3a2.307,2.307,0,0,1-.275.132,4.6,4.6,0,0,0-.57.244c-.066.06-.145.3-.085.271s.232-.115.2-.087-.391.23-.391.23c-.01.031-.022.062-.034.093a1.544,1.544,0,0,1-.226.127c-.117.05-.066.136-.025.165s-.109.091-.108.091l-.413.16s-.219.123-.253.137l-.395.2s-.406.3-.077.168.616-.3.648-.316.319-.121.319-.121a.284.284,0,0,1-.152.245c-.165.1-.226.17-.3.2s-.17.057-.279.1l-.306.127c-.1.04-.2.083-.23.095s-.112-.164-.049-.2.042-.214.042-.214l-.217.089s.041-.216.126-.2M38.107,24.7a.771.771,0,0,0,.076-.031s.069-.032.09-.006.076.086.076.086a1.276,1.276,0,0,1-.02.3l-.09.012c-.011.025-.023.048-.035.071-.032,0-.067,0-.1-.006-.006-.1-.012-.192-.018-.286-.018-.036-.036-.069-.055-.1l.076-.041m-.009-.317c.016-.06.176-.006.183.074s-.011.153-.109.148-.074-.222-.074-.222M17.751,31.407c-.083-.041-.169-.077-.256-.114a1.1,1.1,0,0,0-.029-.145.287.287,0,0,0-.058-.113A.079.079,0,0,0,17.361,31c0-.109-.012-.222-.018-.334.018.029.035.064.054.1.048.1.152.1.2.22s.069.275.162.3a.161.161,0,0,1,.144.194c-.008.125-.155-.074-.155-.074m3.214-8.88a.727.727,0,0,1-.262.151c-.03.009.155.054-.018.115s-.125.112-.3.106-.186-.09-.226-.035a.951.951,0,0,1-.407.281,2.733,2.733,0,0,0-.277.1c-.014-.036-.029-.074-.041-.109,0,0-.247.128-.263,0s.159-.182.31-.229.282-.087.282-.087-.452.06-.5.059.029-.063.131-.094-.086-.029-.05-.138.064-.131.2-.174a2.833,2.833,0,0,1,.295-.109c.136-.031.131-.088.226-.062s.2.016.232-.05-.025.1.023.048.075.012.09.053l0-.012a.285.285,0,0,1,.181-.32.169.169,0,0,1,.137.065c-.01-.062-.021-.125-.032-.188l.228-.083a.1.1,0,0,1-.051.076,1.466,1.466,0,0,0-.176.491c0,.184.349.071.28.151m13.781-.512c.084-.013.185-.072.09-.079s-.144.048-.131-.1.043-.2.162-.129.179.041.179.041-.072-.175.1-.162.193-.014.258.028.307.163.06.144-.185,0-.078.1.025.039.025.039c-.039.037.09.288-.085.3a.958.958,0,0,0-.291.053c-.123.038-.12.085-.251.038s-.161-.05-.162-.114a.157.157,0,0,1,.129-.159m3.1-5.146.431,0c.26,0,.307-.055.486-.053s.3,0,.438,0h.427s.095.09-.074.155a.651.651,0,0,1-.324.077,1.733,1.733,0,0,1-.387-.046.488.488,0,0,0-.153-.025,1.186,1.186,0,0,1,.482.2.407.407,0,0,0,.317.133c.066,0,.036.068-.115.066a.938.938,0,0,1-.3-.069c-.071-.033-.053-.186-.209-.165s-.114-.022-.2.16-.015.248-.155.181-.09.085-.305-.07-.207-.13.076-.194c0,0,.1-.116,0-.118s-.142.118-.256.116-.261,0-.278-.13-.018-.226.112-.226m11.04,11.94c-.058-.073-.113-.146-.17-.219a.308.308,0,0,0,.147-.038c0-.026-.007-.05-.01-.076-.23.028-.2-.106-.286-.149a.13.13,0,0,0-.065-.015c-.188,0-.158-.1-.222-.213s-.084-.012-.392-.024a2.259,2.259,0,0,0-.382.01c-.043,0-.079.008-.118.008-.106,0-.267-.077-.472-.11s-.2-.23-.263-.294-.257.125-.421.092a.481.481,0,0,1-.265-.212.836.836,0,0,1-.419-.444c-.093-.167-.284.106-.28.181a.218.218,0,0,0,.039.1,1.654,1.654,0,0,0,.248.3c.122.121.024.111.1.251a.842.842,0,0,0,.288.3.042.042,0,0,0,.035,0c.053-.032.271,0,.356-.041a1.911,1.911,0,0,0,.31-.328,1.33,1.33,0,0,0,.027.189.255.255,0,0,0,.02.056.565.565,0,0,0,.164.154.315.315,0,0,0,.183.033c.032,0,.086.1.129.139s.043.033.076.086a.228.228,0,0,1-.083.286c-.127.106-.074.106-.169.106s-.032.127-.032.159,0,.117,0,.117-.139.043-.15.138-.052.074-.193.073.022.15-.032.161a1.44,1.44,0,0,1-.216.009h-.13c-.031,0-.085.086-.1.16s-.088.074-.195.127-.12.128-.263.129a.157.157,0,0,0-.153.15,1.448,1.448,0,0,1-.42.086c-.187,0-.053.064-.222.118s-.154,0-.211-.062-.054-.12-.078-.261a1.582,1.582,0,0,1,0-.312.323.323,0,0,0-.008-.12.251.251,0,0,0-.059-.083c-.078-.088-.19-.109-.284-.314s-.148-.165-.3-.274-.109-.447-.109-.447c-.076-.264-.165-.2-.282-.31s-.05-.209-.23-.434a2.669,2.669,0,0,1-.242-.291.826.826,0,0,1-.09-.252,2.69,2.69,0,0,1-.054-.422c0-.08-.018-.137-.021-.226s.065-.111.12-.155a.087.087,0,0,0,.013-.01.217.217,0,0,0,.049-.146,3.544,3.544,0,0,0-.019-.377.119.119,0,0,0-.013-.062c-.01-.014-.028-.02-.061-.022a1.009,1.009,0,0,1-.259-.03c-.084-.026-.018.113-.16.119s-.129,0-.24-.1a.169.169,0,0,0-.205-.03s-.045.056-.078.089-.109-.016-.109-.016l-.23-.032s-.054-.105-.083-.165a.139.139,0,0,0-.137-.075c-.06,0-.116-.11-.144-.168a.682.682,0,0,1-.068-.284c-.007-.09,0-.115.007-.12a.526.526,0,0,1-.192-.1c-.006-.006-.011-.008-.014-.015-.046-.034-.084.012-.193.03s0,0-.057.067-.069.1-.136.018-.034.057-.034.057c.038.056.073.112.11.169.068.069.133.139.2.209l-.069.066-.165-.078.106.121c-.02,0-.04.008-.06.01,0,.04.011.078.02.118,0,0-.151-.018-.2-.032a.7.7,0,0,1-.14-.078c-.034-.045-.066-.087-.1-.132a1,1,0,0,0-.051-.2c-.024-.06-.032-.094-.073-.1a.169.169,0,0,0-.034,0c-.074.008-.139-.194-.167-.232a1.181,1.181,0,0,1-.032-.275c-.081-.062-.164-.127-.247-.19a.1.1,0,0,1-.018-.015.849.849,0,0,1-.155-.019c-.053-.015-.082-.077-.186-.118s-.166-.166-.2-.193A1.006,1.006,0,0,1,39,23.86a.3.3,0,0,0-.069-.062c-.036-.015-.046.032-.127.027-.119-.008-.037.216-.037.216a1.688,1.688,0,0,0,.207.156c.135.093.151.153.151.153.024.046.05.091.074.135l.2.071s.018.085.059.111a1.079,1.079,0,0,1,.38.186c.252.179.108.29-.029.129s-.243-.023-.188.014.216.213.141.209-.109.064-.157.146-.188.083-.188.083c-.025.07-.052.139-.076.208a3.394,3.394,0,0,1-.469-.223c-.04-.049.008-.106.139-.1s.13-.017.335-.007.06-.081.173-.1-.043-.085-.186-.3-.255-.169-.375-.212a1.543,1.543,0,0,1-.382-.26c-.153-.116-.136-.067-.146-.212s-.089-.152-.316-.214c-.191-.052-.174.011-.19.066a.056.056,0,0,1-.018.029.287.287,0,0,1-.2.148c-.119.016-.3-.116-.48-.127s-.126.162-.126.162c-.022.083-.045.167-.069.25a.586.586,0,0,1-.215.036c-.111-.007-.133.113-.28.214s.029.339-.069.333-.1.226-.175.21-.162.123-.162.123l-.257-.015c-.157-.009-.186.026-.331.019s-.083.116-.169.125-.1-.018-.151-.153a.171.171,0,0,0-.25-.088l-.018.011c-.032.015-.006-.011-.161-.019-.176-.011-.148-.045-.148-.045s-.024-.307-.1-.313-.018-.125.023-.182.175-.114.169-.308a2.161,2.161,0,0,0-.027-.258c-.009-.041-.014-.066-.014-.066-.166-.207.282-.251.282-.251.347.06.691.118,1.032.178a.623.623,0,0,1,.12-.036.321.321,0,0,1,.1-.011c.084,0,.029-.255.024-.352a.738.738,0,0,0-.055-.227,1.708,1.708,0,0,0-.293-.277c-.16-.135-.253-.018-.254-.067s-.009-.188.059-.195a1.426,1.426,0,0,1,.279.046,1.389,1.389,0,0,1,.193,0c.1.006.054-.022.02-.123s-.02-.127.082-.032a.294.294,0,0,0,.261.043s.021-.1.089-.094.074-.094.069-.155a.032.032,0,0,1,.021-.034.825.825,0,0,1-.166.02,2.868,2.868,0,0,1-.308,0c-.112-.008-.121,0-.225-.006a2.437,2.437,0,0,1-.257.008.618.618,0,0,0-.268.029c.011-.167.144-.212.278-.2a.185.185,0,0,0,.189-.125c-.095.141-.236.02-.3.014s-.15-.066-.14-.1.167.012.226-.013-.123-.157-.071-.155.042,0,.222-.069.021-.111.021-.111a.382.382,0,0,1-.081-.193c-.008-.105-.1-.064-.1-.064s-.193.026-.236.022.128-.116.128-.116c-.043,0-.083,0-.124-.008a1.016,1.016,0,0,1,.149-.053c.06-.017-.132-.011-.186-.014s.076-.1.076-.1-.166-.03-.168-.1.012-.113.1-.183a.728.728,0,0,0,.149-.181l.336.052a.713.713,0,0,1-.134.086.132.132,0,0,0-.081.137c.011.028.077-.052.158-.046a1.814,1.814,0,0,1,.275.066.225.225,0,0,1-.165.2c-.167.064-.176.083-.176.083s.077-.042.265.026a.184.184,0,0,1,.109.252s.048-.042.155.041.048.1.1.223-.055.091.021.151.168-.045.25-.011.043.041.011.132-.078.052-.151.157,0,0,.126.075c.039.023.044.039.032.053a.6.6,0,0,0,.145-.047c.038-.033-.023-.072.143-.1l.025,0c.2-.026.116-.055.2-.212s.1-.043.384-.113l.036-.009c.236-.064.167-.079.217-.075s.076-.16.076-.16a1.3,1.3,0,0,1-.162-.212.977.977,0,0,1-.018-.178c0-.053.153-.056.153-.056a.809.809,0,0,0,.1-.083.2.2,0,0,1,.174-.052c.064,0,0,.088-.032.175s.08.031.123.083.017.052-.08.111-.113.029-.127.156.086.081.127.122a.317.317,0,0,0,.174.073.3.3,0,0,0,.187-.051c.034-.036.175.073.173.073l.1.032a.388.388,0,0,0,.048.015s.2-.052.295-.084.284-.071.284-.071l.11.108s.377.007.26-.037c-.064-.025,0-.046.053-.071s.09-.039.059-.063c-.068-.053.016-.1-.029-.154s.049-.01-.053-.144-.114-.148.041-.2.289.144.289.144a.129.129,0,0,0,.132.07c.08-.007.091-.112-.022-.219a.545.545,0,0,0-.1-.072c-.211-.126.108-.267.108-.267.153,0,.3.006.457.01l.067-.05c.047-.029.091-.059.138-.087-.047-.015-.093-.032-.139-.046l-.089,0c-.018,0-.034,0-.048,0s-.053.077-.089.089a.307.307,0,0,1-.123-.007c-.036,0-.158.021-.2.018l-.226-.011c-.061,0-.119-.084-.195-.1s-.083-.071-.083-.071-.057-.186-.113-.347.136-.233.136-.233a2.217,2.217,0,0,1,.305-.244c.039,0,.008-.053.049-.119.032-.05-.109-.077-.2-.087-.027,0-.051-.006-.06-.006-.036,0-.158.034-.22.032s-.067.066-.136.116.074.1.074.1a2.205,2.205,0,0,1-.229.19c-.137.1-.388.114-.318.394s.275.237.328.384-.275.245-.275.245a1.22,1.22,0,0,0,.008.321c.029.167-.057.188-.147.183s-.19-.011-.2.041-.042.072-.119.068a.166.166,0,0,1-.141-.134.42.42,0,0,0-.053-.258c-.081-.184-.043-.182-.191-.254s.139-.134.013-.144H38.3c-.09-.006-.092-.015-.113-.11s-.092.111-.141.122-.079.111-.323.134-.239-.078-.239-.078c-.043-.062-.083-.125-.123-.186.051-.069.1-.139.148-.211l-.2.078c-.013-.075-.031-.147-.046-.22.1,0,.207-.008.31-.009-.084-.008-.165-.019-.249-.03a.385.385,0,0,1-.064-.118c0-.039.06-.035.148-.07a.919.919,0,0,0,.148-.056c.036-.026.045-.194.045-.194s.193.011.233.012.062,0,.116,0,.07-.152.134-.151.152-.138.2-.148.072-.156.072-.156c.011-.05.022-.1.034-.148a.823.823,0,0,1,.136-.13c.036-.011.11-.021.112-.116s.041-.162.084-.132.224-.006.224-.006.008-.151.043-.165.159-.034.151-.1.062,0,.162,0,.109-.025.109-.025a1.181,1.181,0,0,1,.146-.023c.039,0,.118.046.113,0s.035-.109.143-.151a.244.244,0,0,1,.173-.008q-.015.089-.027.183c.039-.043.08-.082.12-.124,0,.046,0,.094,0,.141.032-.043.065-.081.1-.123l.113-.083c.009.052.021.106.032.156,0-.024.011-.046.015-.069a.682.682,0,0,1,.2.075.3.3,0,0,0,.118.06H40.61c-.05,0,.064.127.064.127s.225-.077.278-.034.095.074.268.079a.675.675,0,0,1,.469.155.469.469,0,0,0,.345.138.328.328,0,0,1,.274.275c.013.125-.274.172-.482.151a3.494,3.494,0,0,1-.491-.141c-.049,0-.19-.048-.081.038a.713.713,0,0,0,.244.119.175.175,0,0,0,.045.182c.084.1.053.15.053.15s.1.018.147.02a.522.522,0,0,1,.223.144c.094.085.155-.034-.05-.137s-.049-.221.058-.135a.512.512,0,0,0,.372.095c.057-.025-.125-.14-.095-.208a.535.535,0,0,1,.331-.186.249.249,0,0,1,.154.088s.066.059.057-.026-.162-.158-.2-.328-.007-.17.139-.166.357.18.189.175-.088.1-.021.153.306.039.306.039c.011-.044.022-.085.034-.126a1,1,0,0,1,.175-.181.545.545,0,0,1,.188-.054,1.275,1.275,0,0,1,.125-.069c.035-.013.176-.054.172.033a.207.207,0,0,1-.071.141c.068,0,.135-.008.2-.009l.065-.085c.088.017.179.032.268.05a.37.37,0,0,1,.1-.113,15.753,15.753,0,0,0-24.535,2.355.973.973,0,0,1,.174-.06.629.629,0,0,0,.2-.1s-.059.139-.02.155.137-.071.15-.082c-.038.033-.077.066-.112.1l.269-.008-.125.09s.237,0,.242-.074a.419.419,0,0,1,.123-.255c.054-.02.057.1.057.1.077-.017.153-.036.227-.054q-.111.139-.224.276a2.339,2.339,0,0,0-.291.106.935.935,0,0,1-.229.127,3.022,3.022,0,0,1-.307.12c-.034,0,.048-.076.16-.128s-.2,0-.282.041-.207.025-.167,0,.071-.069.138-.119-.049-.057-.109-.023l-.018.012c-.088.139-.174.278-.258.419.058-.039.117-.089.139-.078a.762.762,0,0,1,.138.14c-.027.039-.054.074-.081.111a3.075,3.075,0,0,0-.446.267c.032-.059-.373.742-.38.737s0,0,.008,0c.068.047.1-.027.313-.089s.19.1.055.17-.071.1-.071.1.328-.161.441-.2.088-.017.14.039.042.1.083.115.035-.068.033-.132.054-.119.1-.183.128-.069.26-.113a.176.176,0,0,1,.205.083l.195-.115a.679.679,0,0,1,.139-.065l.205-.074c.071-.026.1-.008.123.1s.054,0,.083-.011,0-.087.039-.138.081-.123.119-.187.144-.1.2-.184.179-.127.209-.209.06.137.074.168.057-.032.112-.142.138-.072.224.011-.015.123-.107.17-.018.1.029.1,0,0,.051-.058.1-.058.151-.158.106-.079.141-.132.023-.167.1-.261.128-.05.167-.064.171.008.2.064-.041.038-.169.179.041.051.074.135-.055.091-.223.216-.029.1-.16.12-.036.052-.125.048-.095.039-.174.069-.07.048-.082.138-.011.06-.055.085a.55.55,0,0,1-.159.053,1.343,1.343,0,0,0-.152.048s.034.016.11.042.2-.066.205-.024-.026.069-.208.23-.027.046-.135.088-.073.046-.149.083-.305.167-.162.123.011.152-.05.173c-.394.146-.65.931-.648.924s.152-.067.176.03a.571.571,0,0,1-.05.261,1.682,1.682,0,0,1,.242-.106c.138-.045.252.127.362.089a.145.145,0,0,1,.168.057s.306-.082.342-.094.033.046-.021.165.041.044-.048.173-.027.076-.02.187.025.025.065.115.051.039.127.013.047-.082.112-.153.076-.085.048-.173a1.31,1.31,0,0,1-.015-.317c.448-.281.489-.539.5-.636s0-.1-.124-.186.057-.277.128-.307.052-.089.037-.163.066-.1.059-.287.181-.162.24-.151.128-.069.244-.134.2-.054.221.019.055.115.123.088.132-.037.146.041.122-.015-.088.206-.007.144.026.142.062-.017.095.066.073.033.092-.028.113-.134.235-.266a1.322,1.322,0,0,0,.215-.363,2.279,2.279,0,0,1,.187.629c-.02.158-.053.075-.061.158s.1.081.215.1.074,0,.2-.022.127,0,.051.047-.048.046-.132.107a2.863,2.863,0,0,1-.235.165c-.127.076-.012.107.058.08a.88.88,0,0,0,.207-.188c.076-.075.142-.137.161-.041s.106.006.138.036.019.088.016.2-.06.133-.276.239a.508.508,0,0,0-.279.238c-.085.109-.105.125-.144.14a2.188,2.188,0,0,1-.214.085c-.046.01-.2.1-.288.13s-.3.124-.358.148-.026.092-.052.124a.514.514,0,0,1-.09.084l-.116.108c-.046.041-.043.055-.118.125s-.09.144-.158.21a.7.7,0,0,0-.107.127A.078.078,0,0,0,22.99,26a.137.137,0,0,0,.02-.018,1.571,1.571,0,0,0,.093-.137.883.883,0,0,1,.16-.215c.057-.021.139-.14.259-.235s.167-.055.316-.114.028.128,0,.2a.316.316,0,0,1-.08.112c-.042.046-.023.135-.018.188s.118.034.188.025a.378.378,0,0,0,.153-.067c.021-.016.094-.044.09-.1a.26.26,0,0,1,.111-.163c.029-.012-.052.165.02.13s.124-.008.054.09a.632.632,0,0,1-.16.18,2.364,2.364,0,0,1-.228.165c-.064.025-.133.114-.226.148s-.079.027-.156.167-.165-.012-.113-.146.258-.268.208-.243-.1.092-.162.131a.318.318,0,0,0-.074.058.082.082,0,0,0-.028.074c.007.03-.034.048-.086.065-.024.007-.051.017-.077.027-.085.029-.095.118-.186.174s-.132.115-.183.324c-.039.147,0,.162.015.16l-.135.046c-.053.019-.108.1-.243.166s-.119.047-.105.132-.1.289-.1.289c-.026,0-.048,0-.074,0,0,0,.036.061-.027.221s-.047.064-.113-.154-.025.066-.025.066.033.127.048.172-.067.094-.092.109.082-.013.082-.013c.011.025.022.05.034.078-.034.027-.064.057-.1.085.028-.008.056-.016.084-.027.008.029.015.057.022.085a.237.237,0,0,1-.073.06c-.034.011-.011.047-.05.059s-.022.048-.067.14-.048.051-.146.131-.1.131-.272.34a.316.316,0,0,0-.026.4,3.963,3.963,0,0,1,.133.375c.058.2.044.124,0,.282s-.113.034-.191-.047a.692.692,0,0,1-.137-.264c-.031-.085-.041-.092-.034-.146s-.1-.053-.176-.119-.05.02-.092.081-.085.018-.162-.064-.038.065-.278.081-.151.091-.151.091a.138.138,0,0,1-.024.139c-.054.069-.1.027-.157,0s-.082.025-.161.045-.048.014-.254.074-.066.039-.112.141-.014.045-.136.129-.106.141-.094.212a.936.936,0,0,1,.016.16c0,.018,0,.034,0,.048.009.053-.042.068-.02.2s.036.365.075.5.137.155.2.233.041.072.131.045.04.092.169.054.166-.168.248-.123.084-.018.065-.039,0-.063.047-.127.051-.132.018-.251.214-.188.378-.235.1.08.074.141a.253.253,0,0,0,0,.2.24.24,0,0,1,.018.1c0,.02-.014.044-.03.1-.034.12,0,.084-.025.2s-.015.046-.062.144a.14.14,0,0,0-.013.032c-.007.032.043-.015.093-.019a.033.033,0,0,1,.026,0c.066.013.083-.048.258-.1s.237-.013.237-.014a.7.7,0,0,1,.062.072.359.359,0,0,1,.066.115.773.773,0,0,1,0,.115c-.007.043.037.134.019.225a.248.248,0,0,0,.013.172c.016.05-.041.042-.1.022a.433.433,0,0,1-.121-.072c-.048-.035-.054-.035-.085-.032s.017.08.043.1-.013.023-.024.027l-.01-.011c-.029-.006-.135-.06-.212-.093-.048-.021-.043-.071-.059-.1,0-.007-.01-.015-.018-.018s-.03-.01-.06,0c-.12.035-.079-.013-.2.023a.358.358,0,0,1-.153,0,1.181,1.181,0,0,1-.191-.048l-.047-.018c-.039-.018-.212-.169-.282-.167s-.123.082-.141.149-.174.011-.284.016-.074,0-.179-.027-.37-.113-.37-.113-.127.013-.2.028a1.257,1.257,0,0,1-.38-.161c-.08-.039-.02-.1,0-.179s.012-.089-.029-.231-.276-.195-.367-.291-.129-.027-.178-.106.01-.074-.043-.095-.158-.077-.177-.139-.09-.017-.149-.053-.073-.159-.116-.264c-.032-.083-.032-.152-.092-.19,0-.034,0-.01,0-.01a15.814,15.814,0,1,0,31.627,0c0-.487-.025-.967-.067-1.442" transform="translate(-5.192 -4.299)" fill="#1956a7"/>
    <path id="Path_54" data-name="Path 54" d="M50.433,26.269c.008.015.017.022.022.033l0-.007c0-.006-.013-.016-.019-.026" transform="translate(-15.112 -7.871)" fill="#1956a7"/>
    <path id="Path_55" data-name="Path 55" d="M51.186,24.862h0s0-.008-.006-.009,0,.007,0,.009" transform="translate(-15.336 -7.447)" fill="#1956a7"/>
  </g>
</svg>
