<svg xmlns="http://www.w3.org/2000/svg" width="17.77" height="22.204" viewBox="0 0 17.77 22.204">
  <g id="Group_3572" data-name="Group 3572" transform="translate(-465.353 -157.242)">
    <path id="Path_5441" data-name="Path 5441" d="M510.317,50.659q0,4.225,0,8.45a2.581,2.581,0,0,1-2.172,2.621,2.375,2.375,0,0,1-.436.03q-6.28,0-12.559,0a2.572,2.572,0,0,1-2.6-2.591q0-8.508,0-17.015a2.57,2.57,0,0,1,2.6-2.593q6.291-.005,12.582,0a2.569,2.569,0,0,1,2.586,2.579q.007,4.26,0,8.519m-17-.009q0,4.179,0,8.357a1.857,1.857,0,0,0,1.96,1.981q6.153.005,12.305,0a1.853,1.853,0,0,0,1.957-1.961q0-8.369,0-16.738a1.852,1.852,0,0,0-1.96-1.958q-6.153-.005-12.305,0a1.978,1.978,0,0,0-.854.165,1.849,1.849,0,0,0-1.1,1.819q0,4.167,0,8.334" transform="translate(-27.195 117.684)" fill="#1956a7"/>
    <path id="Path_5442" data-name="Path 5442" d="M523.921,68.732h-6.188A1.112,1.112,0,0,1,516.5,67.5q0-1.409,0-2.817a1.1,1.1,0,0,1,1.159-1.159q6.246,0,12.492,0a1.1,1.1,0,0,1,1.161,1.158q0,1.443,0,2.886a1.1,1.1,0,0,1-1.16,1.16q-3.117,0-6.234,0m-.029-.771h6.116c.414,0,.535-.123.536-.538q0-1.293,0-2.585c0-.416-.122-.539-.535-.539H517.8c-.4,0-.523.125-.524.526q0,1.281,0,2.562c0,.463.11.574.57.574h6.047" transform="translate(-49.67 95.194)" fill="#1956a7"/>
    <path id="Path_5443" data-name="Path 5443" d="M684.177,247.214c0-.962,0-1.924,0-2.886a1.1,1.1,0,0,1,1.173-1.168q1.074,0,2.147,0a1.094,1.094,0,0,1,1.145,1.15q0,2.932,0,5.864a1.1,1.1,0,0,1-1.15,1.146q-1.085,0-2.17,0a1.1,1.1,0,0,1-1.144-1.151c0-.985,0-1.97,0-2.955m.771,0c0,.946,0,1.892,0,2.837,0,.357.134.492.486.494q.969,0,1.938,0c.367,0,.5-.134.5-.506q0-2.8,0-5.606c0-.379-.132-.5-.521-.506q-.934,0-1.868,0c-.412,0-.532.123-.533.54q0,1.373,0,2.745" transform="translate(-207 -73.354)" fill="#1956a7"/>
    <path id="Path_5444" data-name="Path 5444" d="M518.7,175c-.369,0-.739,0-1.108,0a1.1,1.1,0,0,1-1.111-1.114q-.007-.762,0-1.523a1.091,1.091,0,0,1,1.089-1.087q1.142-.01,2.285,0a1.089,1.089,0,0,1,1.088,1.088q.01.773,0,1.547a1.1,1.1,0,0,1-1.09,1.088c-.385.006-.769,0-1.154,0m.019-2.955c-.338,0-.676,0-1.014,0-.311.005-.448.144-.452.456q-.008.634,0,1.267c0,.313.141.454.451.457q1,.008,2,0c.324,0,.46-.141.464-.468q.007-.622,0-1.244c0-.328-.139-.464-.463-.469s-.661,0-.991,0" transform="translate(-49.646 -5.903)" fill="#1956a7"/>
    <path id="Path_5445" data-name="Path 5445" d="M602.536,175.013c-.369,0-.739,0-1.108,0a1.1,1.1,0,0,1-1.108-1.117q-.007-.75,0-1.5a1.093,1.093,0,0,1,1.116-1.108q1.12-.007,2.239,0a1.092,1.092,0,0,1,1.109,1.115q.007.75,0,1.5a1.1,1.1,0,0,1-1.117,1.109c-.377,0-.754,0-1.131,0m.017-.772c.338,0,.676,0,1.014,0a.393.393,0,0,0,.445-.44q.01-.645,0-1.29c0-.31-.144-.448-.458-.45q-1-.007-2,0c-.313,0-.452.141-.457.451-.006.422-.005.845,0,1.267,0,.324.142.458.47.463s.661,0,.991,0" transform="translate(-128.315 -5.914)" fill="#1956a7"/>
    <path id="Path_5446" data-name="Path 5446" d="M686.377,175c-.377,0-.754,0-1.131,0a1.094,1.094,0,0,1-1.1-1.1q-.008-.773,0-1.547a1.089,1.089,0,0,1,1.077-1.075q1.154-.012,2.308,0a1.088,1.088,0,0,1,1.077,1.076q.012.785,0,1.57A1.094,1.094,0,0,1,687.532,175c-.385.007-.769,0-1.154,0m-.005-.771c.338,0,.676,0,1.014,0,.31-.005.448-.144.452-.457q.008-.634,0-1.267c0-.313-.142-.454-.452-.456q-1-.008-2,0c-.325,0-.46.141-.464.468q-.007.622,0,1.244c0,.327.139.464.463.469s.661,0,.991,0" transform="translate(-206.967 -5.898)" fill="#1956a7"/>
    <path id="Path_5447" data-name="Path 5447" d="M518.705,246.855c-.369,0-.739,0-1.108,0a1.1,1.1,0,0,1-1.118-1.107q-.008-.762,0-1.523a1.091,1.091,0,0,1,1.082-1.094q1.154-.012,2.308,0a1.087,1.087,0,0,1,1.072,1.081c.008.523.008,1.047,0,1.57a1.094,1.094,0,0,1-1.082,1.072c-.385.007-.769,0-1.154,0m-.009-.771c.33,0,.661,0,.991,0s.481-.136.484-.472q.007-.622,0-1.244c0-.326-.14-.464-.466-.466q-.991-.006-1.982,0c-.329,0-.468.137-.472.459q-.008.634,0,1.267c0,.311.143.449.454.455.33.006.661,0,.991,0" transform="translate(-49.646 -73.322)" fill="#1956a7"/>
    <path id="Path_5448" data-name="Path 5448" d="M602.536,246.872c-.369,0-.739,0-1.108,0a1.1,1.1,0,0,1-1.108-1.117q-.007-.75,0-1.5a1.094,1.094,0,0,1,1.116-1.107q1.12-.007,2.239,0a1.092,1.092,0,0,1,1.109,1.115q.007.75,0,1.5a1.1,1.1,0,0,1-1.117,1.109c-.377,0-.754,0-1.131,0m0-.772c.338,0,.676,0,1.014,0,.316,0,.458-.138.463-.445q.01-.645,0-1.29a.391.391,0,0,0-.44-.444q-1.014-.009-2.028,0c-.31,0-.448.143-.452.456q-.008.634,0,1.267c0,.313.141.451.451.457.33.006.661,0,.991,0" transform="translate(-128.315 -73.339)" fill="#1956a7"/>
    <path id="Path_5449" data-name="Path 5449" d="M518.7,318.722c-.369,0-.739,0-1.108,0a1.1,1.1,0,0,1-1.11-1.115q-.007-.762,0-1.524A1.091,1.091,0,0,1,517.57,315q1.143-.01,2.285,0a1.089,1.089,0,0,1,1.087,1.089q.01.773,0,1.547a1.1,1.1,0,0,1-1.091,1.088c-.385.006-.769,0-1.154,0m.031-2.955c-.338,0-.676,0-1.014,0-.316,0-.458.138-.463.445q-.01.645,0,1.29a.391.391,0,0,0,.44.444q1.014.009,2.028,0c.31,0,.448-.144.452-.457q.008-.633,0-1.267c0-.313-.142-.451-.452-.456-.33-.006-.661,0-.991,0" transform="translate(-49.646 -140.755)" fill="#1956a7"/>
    <path id="Path_5450" data-name="Path 5450" d="M602.536,318.722c-.369,0-.739,0-1.108,0a1.1,1.1,0,0,1-1.112-1.113q-.007-.762,0-1.524A1.09,1.09,0,0,1,601.4,315q1.143-.011,2.285,0a1.089,1.089,0,0,1,1.089,1.087q.01.773,0,1.547a1.1,1.1,0,0,1-1.089,1.09c-.385.006-.769,0-1.154,0m.011-2.955c-.338,0-.676,0-1.014,0a.392.392,0,0,0-.445.439c-.007.43-.006.86,0,1.29,0,.31.144.448.457.451q1,.007,2,0c.313,0,.453-.141.457-.451.006-.422.005-.845,0-1.267,0-.324-.142-.458-.47-.463s-.661,0-.991,0" transform="translate(-128.309 -140.755)" fill="#1956a7"/>
    <path id="Path_5451" data-name="Path 5451" d="M702.146,82.98c0-.138,0-.277,0-.415a1.125,1.125,0,0,1,2.245-.013c.01.292.009.585,0,.877a1.124,1.124,0,0,1-2.245-.01c0-.146,0-.292,0-.438m.778.011h0a3.334,3.334,0,0,0,0,.369.341.341,0,0,0,.339.344.328.328,0,0,0,.348-.331,5.218,5.218,0,0,0,0-.76.325.325,0,0,0-.333-.322.337.337,0,0,0-.35.331,2.877,2.877,0,0,0,0,.369" transform="translate(-223.859 78.326)" fill="#1956a7"/>
  </g>
</svg>
