<svg xmlns="http://www.w3.org/2000/svg" width="21.326" height="23.663" viewBox="0 0 21.326 23.663">
  <g id="Group_3566" data-name="Group 3566" transform="translate(-461.162 -248.092)">
    <path id="Path_5429" data-name="Path 5429" d="M357.733,23.661a.392.392,0,0,1-.175-.48c.073-.2.243-.236.433-.23.146,0,.294-.01.439,0,.2.018.279-.048.269-.257-.015-.3-.007-.6,0-.9a1.229,1.229,0,0,1,1.279-1.283c.9-.005,1.8,0,2.7,0a1.4,1.4,0,0,1,.184.009c.352.047.352.048.352-.318,0-.177,0-.354,0-.531a1.21,1.21,0,0,1,1.22-1.238q.439-.011.878,0a.272.272,0,0,0,.288-.175c.462-.982.935-1.959,1.393-2.942a2.584,2.584,0,0,0,.094-.911c.055-.659.051-1.323.112-1.981a9.868,9.868,0,0,1,.38-1.472c.047-.186.1-.372.163-.553a.364.364,0,0,1,.443-.27.368.368,0,0,1,.264.469c-.066.277-.152.549-.228.823a.349.349,0,0,0-.02.268l1.384-.57a.23.23,0,0,0,.122-.16l.447-1.36c.03-.092.064-.18-.085-.2a.353.353,0,0,1-.319-.318A.4.4,0,0,1,370,8.675c1.014-.615,2.024-1.235,3.04-1.845a1.53,1.53,0,0,0,.77-.962c.014-.057.06-.125,0-.169s-.1.018-.146.043Q371.578,6.87,369.5,8a.887.887,0,0,0-.435.516c-.076.226-.142.455-.215.682-.08.249-.256.374-.454.325a.377.377,0,0,1-.262-.509,4.21,4.21,0,0,1,.377-1.063c.064-.111.029-.166-.048-.254a4.052,4.052,0,0,1-.746-1.393.855.855,0,0,1,.017-.5,1.57,1.57,0,0,1,1.305-.993,1.166,1.166,0,0,1,1.135.717c.143.281.284.563.412.851.053.119.109.128.211.073q1.256-.686,2.515-1.369c.132-.071.116-.186.116-.3q0-2.1,0-4.2A1.32,1.32,0,0,1,373.442.3a.344.344,0,0,1,.329-.3.323.323,0,0,1,.379.263c.033.233.158.25.349.249,1.232-.006,2.463,0,3.7,0a.723.723,0,0,1,.441.105.51.51,0,0,1,.045.8c-.255.246-.518.484-.795.7-.178.142-.16.231,0,.365.263.213.511.444.764.67a.5.5,0,0,1,.16.6.522.522,0,0,1-.53.333q-1.905,0-3.811,0c-.1,0-.27-.06-.276.115s-.11.381.112.5a.5.5,0,0,1,.245.37,2.128,2.128,0,0,1-.265,1.555.755.755,0,0,0-.106.392c0,1.848,0,3.7,0,5.543,0,.216.071.277.28.272.562-.012,1.125.021,1.685-.01a1.256,1.256,0,0,1,1.322,1.334c-.015.916,0,1.832,0,2.748q0,2.864,0,5.728c0,.314,0,.314.32.315.139,0,.277,0,.416,0,.194-.007.372.012.467.217s-.023.352-.148.493Zm18.974-5.26q0-2.1,0-4.2c0-.476-.161-.638-.636-.638q-1.224,0-2.447,0c-.518,0-.678.158-.678.674q0,2.4,0,4.8c0,.316-.13.482-.368.481s-.357-.157-.358-.486c0-.5,0-1,0-1.5-.005-.4-.175-.562-.566-.563q-1.316,0-2.632,0c-.416,0-.56.142-.56.552,0,1.724,0,3.448,0,5.171,0,.2.053.268.26.266q1.616-.013,3.232,0c.21,0,.282-.055.277-.272-.014-.577,0-1.154-.005-1.731a.392.392,0,0,1,.156-.364.335.335,0,0,1,.37-.026.378.378,0,0,1,.2.363c0,.585.008,1.17,0,1.754,0,.21.056.278.272.276,1.062-.01,2.124,0,3.186,0,.306,0,.307,0,.307-.3q0-2.124,0-4.248m-10.9,4.551c.539,0,1.078-.009,1.617,0,.209,0,.281-.055.279-.272-.01-.978,0-1.955-.005-2.933,0-.4-.158-.56-.559-.561q-1.3,0-2.61,0c-.412,0-.589.174-.591.589,0,.978,0,1.956-.005,2.933,0,.2.076.245.258.242.539-.009,1.078,0,1.617,0m7.617-12.8c0-.823,0-1.646,0-2.469,0-.175-.037-.2-.19-.107q-.931.578-1.873,1.139a.5.5,0,0,0-.233.3c-.216.673-.431,1.347-.667,2.014a.445.445,0,0,0,.1.5q.661.77,1.3,1.56a1.141,1.141,0,0,1,.281.833c-.026.283-.069.564-.1.846-.053.419-.1.838-.161,1.257-.024.18.082.236.225.248.186.015.107-.136.108-.212.007-.677,0-1.354.006-2.031a1.157,1.157,0,0,1,.98-1.167c.2-.03.23-.113.228-.283-.006-.808,0-1.615,0-2.423m-12.1,12.8h1.683c.1,0,.208,0,.207-.146,0-.361.012-.723-.01-1.083a.449.449,0,0,0-.483-.452q-1.394-.006-2.789,0a.439.439,0,0,0-.476.475c-.007.322.005.645-.006.968-.006.179.055.243.238.24.545-.009,1.091,0,1.636,0m16.383-21.66a.953.953,0,0,0-.128-.025c-1.062,0-2.124,0-3.185,0-.165,0-.212.072-.211.224,0,.515.012,1.031,0,1.546-.006.23.061.308.3.306.992-.012,1.985,0,2.977-.007.07,0,.153.033.22-.052-.175-.154-.347-.306-.52-.456-.434-.376-.433-.676,0-1.045.178-.152.351-.31.553-.487m-8.259,10.868c.024-.152-.051-.154-.161-.109-.4.164-.795.33-1.2.488a.28.28,0,0,0-.18.289c-.032.69-.069,1.381-.1,2.071a2.155,2.155,0,0,1-.207.866c-.4.824-.786,1.652-1.176,2.479-.024.051-.093.119-.031.164s.119-.033.162-.083c.015-.017.028-.037.042-.055q1.061-1.41,2.121-2.82a.8.8,0,0,0,.168-.325q.279-1.482.555-2.966m.766.072a.636.636,0,0,0-.04.086c-.047.249-.094.5-.138.748-.065.368-.067.373.253.561a.849.849,0,0,1,.444.708c.044.528.1,1.055.165,1.581.012.1-.053.276.119.277s.117-.179.131-.277c.088-.631.163-1.264.24-1.9a.575.575,0,0,0-.09-.462l-1.082-1.325m-1.031-6.671a.987.987,0,0,0-.517.183.385.385,0,0,0-.178.53c.119.258.25.511.39.758a.36.36,0,0,0,.509.168,2.317,2.317,0,0,0,.267-.136.389.389,0,0,0,.184-.548c-.117-.259-.254-.509-.387-.76a.326.326,0,0,0-.268-.2m.41,10.648c.125,0,.226-.008.325,0,.187.018.251-.063.228-.242s-.033-.336-.049-.5q-.047-.493-.094-.987c-.008-.086-.019-.191-.119-.2-.116-.01-.074.111-.1.175s-.024.136-.041.2a2.763,2.763,0,0,1-.346,1.135c-.091.12-.287.269-.234.367.071.132.295.023.425.051" transform="translate(103.631 248.093)" fill="#1956a7"/>
  </g>
</svg>
