<svg xmlns="http://www.w3.org/2000/svg" width="20.333" height="18.518" viewBox="0 0 20.333 18.518">
  <g id="Group_3569" data-name="Group 3569" transform="translate(-388.977 -253.799)">
    <path id="Path_5428" data-name="Path 5428" d="M20.333,37.262q0,2.088,0,4.176a1.372,1.372,0,0,1-1.526,1.515q-2.088,0-4.176,0a1.909,1.909,0,0,1-.223-.005.482.482,0,0,1-.432-.416.493.493,0,0,1,.327-.547.994.994,0,0,1,.353-.039h4.109c.469,0,.534-.064.534-.523q0-3.841,0-7.682c0-.084.049-.2-.04-.245-.071-.034-.137.069-.2.118q-3,2.358-6.007,4.716a1.689,1.689,0,0,1-2.369-.009q-2.217-1.75-4.441-3.493c-.035-.027-.083-.048-.1-.085-.145-.273-.319-.2-.511-.056a1.626,1.626,0,0,1-.29.168,1.134,1.134,0,0,0-.6,1.368,1.6,1.6,0,0,0,.22.557q1.027,1.766,2.054,3.533a1.538,1.538,0,0,0,1.125.763.8.8,0,0,0,.534-.117c.253-.143.5-.293.754-.435a1.786,1.786,0,0,1,2.291.191,7.3,7.3,0,0,1,2.258,3.819,1.2,1.2,0,0,1-.6,1.31,5.954,5.954,0,0,1-3.569.933,6.708,6.708,0,0,1-3.925-1.594,8.973,8.973,0,0,1-2.014-2.255c-.986-1.6-1.942-3.21-2.82-4.868A8.508,8.508,0,0,1,0,33.835a6.08,6.08,0,0,1,2.555-4.951,5.167,5.167,0,0,1,.888-.512,1.18,1.18,0,0,1,1.273.217,4.7,4.7,0,0,1,1.243,1.56,11.59,11.59,0,0,1,.631,1.231.219.219,0,0,0,.237.16c.074,0,.149,0,.223,0q5.818,0,11.635,0a2.492,2.492,0,0,1,.576.056,1.332,1.332,0,0,1,1.067,1.379c0,1.429,0,2.858,0,4.288M10.19,45.787a5.043,5.043,0,0,0,2.283-.6c.562-.317.6-.431.363-1.04a9.1,9.1,0,0,0-1.376-2.287,2.444,2.444,0,0,0-.448-.434.819.819,0,0,0-1.031-.066c-.274.178-.567.328-.852.489a1.668,1.668,0,0,1-1.007.231,2.509,2.509,0,0,1-2-1.284c-.672-1.159-1.336-2.322-2.02-3.474a2.659,2.659,0,0,1-.4-1.663,1.942,1.942,0,0,1,.973-1.59c.238-.138.478-.274.716-.413A.868.868,0,0,0,5.9,32.5a7.684,7.684,0,0,0-.943-2.062,3.428,3.428,0,0,0-.823-1.019c-.1-.083-.209-.179-.36-.088a7.584,7.584,0,0,0-.668.4,5.154,5.154,0,0,0-2.042,5.034,9.053,9.053,0,0,0,1.272,3.569c.591,1.008,1.185,2.015,1.758,3.033a10.321,10.321,0,0,0,2.323,2.946,5.833,5.833,0,0,0,3.771,1.472M18.71,32.6l-.017-.052H7.223c-.037,0-.075,0-.112,0-.126-.008-.173.048-.162.174a1.731,1.731,0,0,1-.227,1.029c-.053.092-.055.141.041.216Q9.025,35.73,11.28,37.5c.488.382.7.382,1.184,0q2.468-1.935,4.934-3.873.657-.516,1.312-1.034" transform="translate(388.977 225.532)" fill="#1956a7"/>
  </g>
</svg>
