<svg id="Group_3559" data-name="Group 3559" xmlns="http://www.w3.org/2000/svg" width="23.574" height="23.531" viewBox="0 0 23.574 23.531">
  <path id="Path_5411" data-name="Path 5411" d="M237.376,56.085a1.026,1.026,0,0,1-.517-.561c-.049-.139-.127-.169-.264-.105a.856.856,0,0,1-.51.1.81.81,0,0,1-.633-1.144c.2-.505.412-1.006.628-1.505.078-.179.056-.241-.156-.236-1.424.031-2.843.133-4.26.272-1.127.111-2.251.245-3.369.431a.72.72,0,0,1-.791-.374,2.843,2.843,0,0,1-.392-1.048,16.472,16.472,0,0,1,0-5.778,2.8,2.8,0,0,1,.388-1.05.735.735,0,0,1,.806-.384c1.2.2,2.409.341,3.619.457.83.08,1.662.141,2.494.193,2.073.129,4.149.123,6.225.089,1.469-.024,2.936-.119,4.4-.254q2.058-.19,4.1-.5a.636.636,0,0,1,.633.333,3.117,3.117,0,0,1,.478,1.329c.074.437.118.878.176,1.317v2.712c-.064.431-.083.867-.17,1.294a3.547,3.547,0,0,1-.473,1.332.669.669,0,0,1-.72.334c-.376-.068-.756-.115-1.134-.167-1.242-.172-2.488-.309-3.74-.391-.671-.045-1.343-.08-2.014-.128-.18-.013-.242.012-.158.2q.327.746.629,1.5a.811.811,0,0,1-.309,1.046.8.8,0,0,1-.811.019c-.136-.067-.228-.064-.282.1a1,1,0,0,1-.518.558h-.506a1,1,0,0,1-.563-.6c-.189-.472-.392-.939-.607-1.452-.217.516-.421.983-.609,1.456a.97.97,0,0,1-.565.593ZM249.6,49.5a13.624,13.624,0,0,0-.019-1.59,8.946,8.946,0,0,0-.3-2.039c-.091-.313-.123-.333-.434-.287a60.666,60.666,0,0,1-7.815.677c-.205,0-.267.054-.223.268a8.816,8.816,0,0,1,.211,1.959.38.38,0,0,0,.1.271,2.688,2.688,0,0,1,.515,2.829c-.059.164-.031.212.145.221.71.034,1.421.083,2.131.124,1.636.094,3.26.291,4.882.519.4.056.41.059.511-.34a11.079,11.079,0,0,0,.3-2.61m-12.931-.852a10.342,10.342,0,0,0-.264-2.183.223.223,0,0,0-.248-.206c-.467-.009-.934-.023-1.4-.05-.741-.043-1.483-.087-2.222-.151-1.151-.1-2.3-.216-3.444-.382-.144-.021-.177.035-.14.169a12.093,12.093,0,0,1,.319,3.3,11.415,11.415,0,0,1-.323,3.074c-.035.125,0,.167.134.149.478-.064.957-.118,1.435-.177,1.117-.137,2.238-.231,3.36-.3.8-.05,1.6-.105,2.409-.1.187,0,.243-.056.17-.249a2.56,2.56,0,0,1,.055-2.033,1.717,1.717,0,0,0,.158-.865m2.387.008a1.939,1.939,0,1,0,1.933,1.955,1.96,1.96,0,0,0-1.933-1.955M238.6,46.3h0c-.375,0-.75,0-1.124,0-.169,0-.233.039-.192.227a8.114,8.114,0,0,1,.2,1.589c0,.152.044.17.172.1a2.672,2.672,0,0,1,2.316-.228c.162.056.213.007.2-.151a10.321,10.321,0,0,0-.213-1.334.221.221,0,0,0-.254-.2c-.367.006-.734,0-1.1,0m-10.523-.419a13.123,13.123,0,0,0,0,6.3,13.281,13.281,0,0,0,0-6.3m13.742,8.756c.009-.036.019-.053.015-.064-.259-.628-.521-1.256-.78-1.885-.047-.113-.1-.086-.167-.022a2.522,2.522,0,0,1-1.054.581c-.146.039-.155.1-.1.228.221.512.43,1.029.646,1.543.021.051.026.122.118.132l.113-.245c.039-.083.075-.168.117-.249a.415.415,0,0,1,.588-.225c.168.065.334.137.5.207m-4.192.52c.03-.01.042-.01.044-.015l.741-1.728c.053-.124-.037-.141-.121-.165a2.471,2.471,0,0,1-1.019-.554c-.126-.115-.173-.1-.233.052-.229.568-.469,1.131-.7,1.7-.023.056-.084.114-.02.195.161-.07.32-.143.482-.208a.416.416,0,0,1,.6.238c.079.162.152.326.226.486" transform="translate(-226.859 -32.554)" fill="#1956a7"/>
  <path id="Path_5412" data-name="Path 5412" d="M250.491,4.958a1.131,1.131,0,0,1-.727.585c-.488.155-.965.346-1.451.512-.178.061-.236.124-.2.342a5.826,5.826,0,0,1,.018,1.6.748.748,0,0,1-.734.645c-.29.014-.582.014-.873,0a.817.817,0,0,1-.777-.839c-.008-.214,0-.429,0-.643,0-.122-.042-.17-.168-.124-.273.1-.547.2-.823.29-.134.045-.137.143-.137.255,0,.7-.012,1.394.006,2.091a.889.889,0,0,1-.43.808,3.764,3.764,0,0,1-1.274.5,16.462,16.462,0,0,1-2.841.371,20.837,20.837,0,0,1-2.731,0,14.369,14.369,0,0,1-3.3-.505,2.79,2.79,0,0,1-.828-.388.876.876,0,0,1-.4-.776c.016-.689,0-1.379.009-2.068a.291.291,0,0,0-.234-.328c-1.66-.586-3.317-1.183-4.976-1.772a.851.851,0,0,1-.675-.774.777.777,0,0,1,.551-.81c.942-.344,1.887-.679,2.832-1.016q3.947-1.411,7.893-2.824a1.425,1.425,0,0,1,1.023,0q5.252,1.887,10.511,3.754a1.131,1.131,0,0,1,.74.6Zm-22.616-.275a.449.449,0,0,0,.245.126c.569.205,1.139.407,1.708.611q1.374.491,2.747.982c.231.083.245.072.246-.175,0-.222.009-.445,0-.666a.794.794,0,0,1,.338-.692,2.639,2.639,0,0,1,.859-.427,13.52,13.52,0,0,1,3.257-.506,22.463,22.463,0,0,1,2.777-.006,17.478,17.478,0,0,1,2.731.335,4.222,4.222,0,0,1,1.352.495.9.9,0,0,1,.492.889c-.018.2,0,.4-.005.6-.009.18.043.238.224.168.293-.113.59-.215.887-.317a.634.634,0,0,0,.318-.212.95.95,0,0,1,.318-.261.29.29,0,0,0,.166-.3c-.005-.505-.008-1.011,0-1.516a.272.272,0,0,0-.219-.3q-3.678-1.31-7.353-2.63a.654.654,0,0,0-.467,0q-4.844,1.733-9.689,3.461c-.307.11-.613.222-.932.338m5.762,2.5V8.47c0,.415,0,.412.4.286a15.279,15.279,0,0,1,3.99-.541,21.417,21.417,0,0,1,2.936.093,10.319,10.319,0,0,1,2.628.511c.18.067.223.038.221-.151-.007-.827,0-1.654,0-2.481,0-.783,0-.78-.776-1a13.811,13.811,0,0,0-3.2-.441,21.116,21.116,0,0,0-4.4.22,6.316,6.316,0,0,0-1.591.426.322.322,0,0,0-.211.339c.01.482,0,.965,0,1.447m4.952,1.869a17.82,17.82,0,0,0-3.467.288,6.006,6.006,0,0,0-1.214.341c-.06.025-.148.043-.146.126s.083.084.138.106c.121.049.242.1.366.135a14.067,14.067,0,0,0,3.583.5,20.779,20.779,0,0,0,4.121-.223,7.252,7.252,0,0,0,1.4-.341c.111-.042.293-.056.3-.175s-.179-.14-.288-.182a4.028,4.028,0,0,0-.482-.151,17.307,17.307,0,0,0-4.313-.42m10.961-4.324c0-.019,0-.039,0-.058l-2.024-.718c-.122-.044-.148.019-.148.122q0,.63,0,1.26c0,.109.032.16.15.118l2.021-.723m-2.233,2.419h0c0-.153.005-.306,0-.458-.011-.247-.145-.387-.36-.385s-.348.143-.355.392,0,.489,0,.733c0,.375,0,.375.373.374.347,0,.347,0,.347-.358v-.3" transform="translate(-226.917 -0.001)" fill="#1956a7"/>
</svg>
