<svg id="Group_3560" data-name="Group 3560" xmlns="http://www.w3.org/2000/svg" width="23.806" height="23.816" viewBox="0 0 23.806 23.816">
  <path id="Path_5413" data-name="Path 5413" d="M6.1,215.055a13.959,13.959,0,0,1-1.474,1.373,4.277,4.277,0,0,1-1.71.883,1.921,1.921,0,0,1-2.253-1.923,2.035,2.035,0,0,1,.883-1.345c.357-.275.361-.274-.044-.487a3.663,3.663,0,0,1-1.018-.75A1.734,1.734,0,0,1,.65,210.25a.474.474,0,0,0,.165-.42c0-2.758,0-5.517-.006-8.275a1.159,1.159,0,0,1,.252-.749c.69-.9,1.363-1.815,2.049-2.72a.741.741,0,0,0,.16-.485c-.008-.616,0-1.231,0-1.847,0-.511.15-.657.66-.657H10.86c.531,0,.667.137.668.668,0,.6.006,1.2,0,1.8a.8.8,0,0,0,.174.529c.692.91,1.372,1.829,2.063,2.74a1,1,0,0,1,.222.662c-.013.647,0,1.295-.007,1.943,0,.167.044.236.224.254a5.115,5.115,0,0,1,2.377.954c.064.044.127.135.2.1.1-.043.053-.157.049-.238a5.115,5.115,0,0,0-.324-1.468,10.68,10.68,0,0,1-.552-1.833,4.165,4.165,0,0,1,.4-2.446c.056-.12.126-.158.243-.086l.022.01c.576.255.581.257.364.837a3.241,3.241,0,0,0-.013,2.206,19.454,19.454,0,0,1,.62,1.915,2.443,2.443,0,0,1,.073.376c.011.2.1.2.246.124a4.281,4.281,0,0,1,1.6-.46,3.317,3.317,0,0,1,2.946,1.4,6.65,6.65,0,0,1,1.249,3.128,6.951,6.951,0,0,1-.7,4.418,6.032,6.032,0,0,1-1.982,2.271c-.181.122-.167.181,0,.3a8.447,8.447,0,0,1,1.325,1.1,2.819,2.819,0,0,1,.461.611,1.008,1.008,0,0,1-.429,1.468,4.446,4.446,0,0,1-1.705.441,19.191,19.191,0,0,1-3.351.043,40.341,40.341,0,0,1-7.461-1.05,11.5,11.5,0,0,1-1.523-.508A3.294,3.294,0,0,1,6.1,215.055m11.441-8.788c.2-.014.207-.338.427-.258a5.223,5.223,0,0,1,.481.267c.163.081.145.167.054.3a2.082,2.082,0,0,1-3.25.153c-.279-.327-.278-.332.1-.545a1.187,1.187,0,0,1,.359-.184c.156-.024.188.169.288.254.422.363.543.329.674-.207.011-.046.018-.094.03-.141a.12.12,0,0,0-.059-.141,8.865,8.865,0,0,0-1.485-.919,2.535,2.535,0,0,0-3.4.934,6.523,6.523,0,0,0-1.019,4.32c.016.24.127.317.346.365a9.527,9.527,0,0,1,1.083.306,41.092,41.092,0,0,1,7.568,3.584.449.449,0,0,0,.524.007,5.323,5.323,0,0,0,2.08-2.354,6.533,6.533,0,0,0-.451-6.225,2.488,2.488,0,0,0-2.417-1.211,3.847,3.847,0,0,0-1.664.633.255.255,0,0,0-.114.176c-.051.29-.1.58-.15.886m1.268,11.757c.248,0,.5.011.743,0a9.832,9.832,0,0,0,1.924-.225c.738-.188.78-.341.246-.9a9.735,9.735,0,0,0-1.411-1.149c-.124-.088-.194-.084-.231.076-.032.14-.07.279-.116.415-.24.713-.018.641-.819.427-.158-.042-.185-.119-.142-.261.1-.336.184-.679.3-1.011.07-.2.014-.294-.16-.4a45.443,45.443,0,0,0-6.173-3.024c-.209-.083-.291-.048-.351.171-.243.878-.5,1.75-.754,2.626-.172.6-.168.6-.769.416-.173-.052-.245-.123-.174-.306.052-.134.08-.276.12-.414q.386-1.335.772-2.67c.031-.107.088-.215-.084-.263a9.309,9.309,0,0,0-2.441-.455,1.739,1.739,0,0,0-1.724,1.132,7.119,7.119,0,0,0-.579,2.02,1.725,1.725,0,0,0,.83,1.824,5.312,5.312,0,0,0,.853.435,22.353,22.353,0,0,0,5.53,1.21c.141.018.185-.043.216-.156.068-.246.133-.494.211-.737.23-.714.027-.625.8-.422.162.043.2.12.15.278-.1.32-.183.646-.282.966-.044.143-.019.192.142.208,1.121.109,2.245.178,3.371.182M2.185,210.665a2.314,2.314,0,0,0-.632.088.873.873,0,0,0-.452,1.429,2.189,2.189,0,0,0,.7.537,7.48,7.48,0,0,0,1.449.567.444.444,0,0,1,.01.873,5.091,5.091,0,0,0-.837.356,2.015,2.015,0,0,0-.772.666.67.67,0,0,0,.074.878,1.181,1.181,0,0,0,1.266.332,2.7,2.7,0,0,0,.558-.274,11.453,11.453,0,0,0,2.1-1.848,2.66,2.66,0,0,0,.737-1.366,4.445,4.445,0,0,1,.144-.507.827.827,0,0,0,.024-.379,15.178,15.178,0,0,0-.276-1.507,7.014,7.014,0,0,0-.836-2.183,1.135,1.135,0,0,0-1.052-.544.754.754,0,0,0-.789.986,3.252,3.252,0,0,0,.7,1.352c.162.205.343.409.166.685s-.456.2-.713.129a7.4,7.4,0,0,0-1.562-.27m5.094.375a2.484,2.484,0,0,1,.739-.56.283.283,0,0,0,.179-.3q-.006-2.469,0-4.938c0-.188-.061-.251-.248-.251q-3.009.007-6.017,0c-.175,0-.24.061-.237.238.008.479,0,.959,0,1.438v2.9c0,.131-.015.275.189.246a3.691,3.691,0,0,1,1,.043c.146.019.178-.026.112-.154a2.917,2.917,0,0,1-.251-.722,1.631,1.631,0,0,1,.678-1.8,2.039,2.039,0,0,1,2.5.365,5.285,5.285,0,0,1,1,2c.148.48.249.971.358,1.5m3.825-9.342H9.4c-.326,0-.326,0-.326.336q0,3.8,0,7.6c0,.677-.093.549.6.574H9.7c.139.009.176-.056.164-.191a7.638,7.638,0,0,1,.625-3.766,4.035,4.035,0,0,1,2.454-2.439c.135-.044.158-.135.157-.258,0-.536-.008-1.071,0-1.607,0-.205-.077-.258-.268-.255-.575.009-1.151,0-1.726,0m-6.158,0c-1,0-2,0-3,0-.177,0-.261.04-.258.239.01.647.008,1.294,0,1.941,0,.173.051.24.232.24q3.019-.007,6.039,0c.181,0,.234-.066.232-.239-.007-.623-.013-1.246,0-1.869.006-.238-.057-.318-.306-.314-.982.014-1.965.006-2.948.006m-2.809-.867c.1.008.145.015.191.015q2.935,0,5.87,0a.4.4,0,0,0,.353-.2c.5-.673,1.005-1.342,1.507-2.014.04-.054.107-.1.092-.185a.542.542,0,0,0-.258-.022c-1.685,0-3.371.032-5.055-.018a1.425,1.425,0,0,0-1.448.721c-.354.583-.81,1.1-1.252,1.7M7.4,197.55c1,0,2,0,3,0,.179,0,.263-.048.257-.244-.011-.367-.008-.735,0-1.1,0-.162-.052-.228-.221-.227q-3.031.006-6.062,0c-.17,0-.223.066-.219.228.008.343,0,.687,0,1.03,0,.312,0,.313.324.313H7.4m3.694,3.3c.462,0,.925,0,1.387,0,.15,0,.17-.043.08-.162q-.678-.9-1.348-1.8c-.1-.131-.163-.115-.252.005-.442.6-.889,1.187-1.332,1.782-.031.041-.1.083-.056.143s.1.029.156.029c.454,0,.909,0,1.364,0" transform="translate(0 -195.098)" fill="#1956a7"/>
  <path id="Path_5414" data-name="Path 5414" d="M62.6,214.982a2.039,2.039,0,0,1-1.7-.881.536.536,0,0,1,0-.745,2.074,2.074,0,0,1,3.395.015.529.529,0,0,1,0,.725,2.03,2.03,0,0,1-1.689.886m-.011-.86a1.305,1.305,0,0,0,.752-.277c.079-.065.112-.119.022-.211a1.23,1.23,0,0,0-1.519-.02c-.091.086-.1.152,0,.233a1.279,1.279,0,0,0,.744.275" transform="translate(-43.535 -207.557)" fill="#1956a7"/>
</svg>
