<svg id="Group_3562" data-name="Group 3562" xmlns="http://www.w3.org/2000/svg" width="24.193" height="26.215" viewBox="0 0 24.193 26.215">
  <path id="Path_5417" data-name="Path 5417" d="M110.467,222.781a.658.658,0,0,1-.225-.568q.007-4.144,0-8.289a.809.809,0,0,1,.261-.634c.456-.437.892-.893,1.349-1.328a.306.306,0,0,0,.059-.472,3.9,3.9,0,0,1-.7-2.285,2.891,2.891,0,0,1,1.054-2.162,15.905,15.905,0,0,1,2.937-1.99q1.552-.868,3.176-1.595c.33-.148.388-.28.325-.643-.027-.158-.143-.166-.258-.2a3.023,3.023,0,0,1-2.321-2.428,3.054,3.054,0,0,1,2.285-3.545.408.408,0,0,1,.454.151.376.376,0,0,1,.025.454,2.951,2.951,0,0,0-.348.68,1.856,1.856,0,0,0,.652,1.988,1.835,1.835,0,0,0,2.088.1c.217-.136.425-.323.692-.116s.151.459.066.7a3,3,0,0,1-2.2,2.01c-.126.033-.3.012-.288.214s-.09.436.2.567c1.115.495,2.211,1.029,3.272,1.631a16.708,16.708,0,0,1,2.98,2.018,2.934,2.934,0,0,1,.994,2.92,4.125,4.125,0,0,1-.641,1.547.283.283,0,0,0,.053.433c.468.448.918.915,1.384,1.366a.761.761,0,0,1,.246.589q-.008,4.157,0,8.314a.681.681,0,0,1-.224.569Zm.618-4.891c0,1.245.006,2.491,0,3.735,0,.252.066.343.331.341q2.328-.016,4.656,0c.241,0,.325-.066.323-.317-.012-1.228,0-2.456-.009-3.684a.8.8,0,0,1,.245-.615c.687-.688,1.363-1.386,2.044-2.08.382-.388.554-.389.935,0,.688.7,1.371,1.4,2.062,2.1a.747.747,0,0,1,.231.569c-.007,1.245,0,2.49-.007,3.735,0,.223.067.3.292.3q2.354-.011,4.708,0c.235,0,.308-.078.307-.311q-.01-3.748,0-7.5a.575.575,0,0,0-.191-.449c-.435-.421-.868-.845-1.288-1.281a.706.706,0,0,0-.56-.234c-2.243.008-4.486,0-6.729,0a1.475,1.475,0,0,1-.33-.022.389.389,0,0,1-.328-.425.384.384,0,0,1,.349-.38,1.568,1.568,0,0,1,.306-.014h6.243c.893,0,.915.009,1.269-.814a2.3,2.3,0,0,0-.16-2.534,5.094,5.094,0,0,0-1.07-.946,33.738,33.738,0,0,0-5.422-2.968.34.34,0,0,0-.314.011c-.988.463-1.979.919-2.937,1.445a20.265,20.265,0,0,0-2.951,1.881,2.282,2.282,0,0,0-1.039,1.819,3.375,3.375,0,0,0,.58,1.827.539.539,0,0,0,.517.285c1-.013,2-.006,2.993-.005.425,0,.638.145.632.426s-.225.416-.624.416c-1.032,0-2.064,0-3.1,0a.548.548,0,0,0-.429.176q-.663.676-1.343,1.334a.6.6,0,0,0-.194.474c.006,1.236,0,2.473,0,3.71m9.971,2.052c0-.588,0-1.176,0-1.764a.5.5,0,0,0-.151-.388c-.54-.544-1.077-1.091-1.607-1.645-.127-.133-.2-.123-.324,0-.53.554-1.068,1.1-1.607,1.646a.482.482,0,0,0-.148.364c0,1.176.005,2.351,0,3.527,0,.215.082.28.288.279q1.635-.01,3.271,0c.212,0,.284-.076.281-.284-.009-.579,0-1.159,0-1.738m-.3-18.83A2.734,2.734,0,0,1,117.653,198a2.137,2.137,0,0,0-.706,2.065,2.29,2.29,0,0,0,1.758,1.76,2.131,2.131,0,0,0,2.055-.711" transform="translate(-110.241 -196.566)" fill="#1956a7"/>
  <path id="Path_5418" data-name="Path 5418" d="M174.948,222.626a.611.611,0,0,1-.227-.539c.012-.46,0-.921,0-1.381,0-.333.063-.424.381-.509.164-.043.187-.139.186-.281,0-.529,0-1.057,0-1.586q0-5.68,0-11.359c0-.22-.02-.371-.286-.411a.347.347,0,0,1-.281-.379c0-.546,0-1.092,0-1.637a.36.36,0,0,1,.332-.391c.222-.019.234-.134.233-.3-.005-.674,0-1.347-.005-2.021a.994.994,0,0,1,.2-.618c.535-.75,1.058-1.508,1.6-2.255a.883.883,0,0,0,.175-.569c-.01-.435,0-.87,0-1.3a1.688,1.688,0,0,1,.026-.3.394.394,0,0,1,.418-.364.4.4,0,0,1,.387.426c.008.5.012,1.006,0,1.509a.922.922,0,0,0,.186.591c.553.768,1.092,1.546,1.641,2.317a.893.893,0,0,1,.168.55c-.006.691,0,1.381,0,2.072,0,.152.014.254.211.271a.373.373,0,0,1,.353.4c.007.537.005,1.074,0,1.612a.385.385,0,0,1-.339.416.243.243,0,0,0-.228.3,4.088,4.088,0,0,1,0,.537.417.417,0,1,1-.833,0c-.013-.2-.01-.392,0-.588,0-.151-.059-.217-.212-.216q-1.343,0-2.686,0c-.137,0-.207.058-.2.2,0,.06,0,.12,0,.179q0,6.4,0,12.792c0,.389,0,.389.4.39h2.3c.4,0,.4,0,.4-.389q0-5.13,0-10.259a1.544,1.544,0,0,1,.025-.355.406.406,0,0,1,.792,0,1.545,1.545,0,0,1,.025.355q0,5.142,0,10.285c0,.215.011.373.281.416a.366.366,0,0,1,.287.4c0,.529,0,1.058,0,1.586a.575.575,0,0,1-.222.414Zm4.286-19.705c0-.332,0-.665,0-1a.536.536,0,0,0-.105-.333c-.44-.618-.879-1.236-1.311-1.859-.1-.144-.16-.167-.27-.007-.43.624-.871,1.242-1.307,1.862a.439.439,0,0,0-.1.255q0,1.061,0,2.122c0,.08.012.164.118.161s.108-.091.108-.169c0-.264.005-.528,0-.792a.537.537,0,0,1,.223-.464c.257-.2.514-.394.769-.593a.481.481,0,0,1,.654,0c.255.2.51.4.768.595a.553.553,0,0,1,.231.485c-.005.256,0,.511,0,.767,0,.076-.005.168.1.173.127.006.122-.1.122-.18,0-.341,0-.682,0-1.023m-1.549,2.851c.553,0,1.106,0,1.659,0,.488,0,.447.066.466-.472.009-.265-.088-.332-.34-.329-1.132.011-2.263,0-3.4,0-.528,0-.518,0-.518.53,0,.219.087.274.29.271.612-.01,1.225,0,1.838,0m0,15.236c-.621,0-1.242,0-1.863,0-.183,0-.276.055-.258.247,0,.042,0,.085,0,.127,0,.426,0,.427.414.427q1.659,0,3.318,0c.551,0,.5.055.514-.506.005-.218-.059-.3-.288-.3-.612.013-1.225,0-1.838,0m.007-16.875c.1,0,.2,0,.307,0a.147.147,0,0,0,.158-.1.911.911,0,0,0-.36-1.039.168.168,0,0,0-.21-.009.678.678,0,0,0-.393.649c.039.566-.033.494.5.5" transform="translate(-156.453 -196.41)" fill="#1956a7"/>
  <path id="Path_5419" data-name="Path 5419" d="M118.578,261.009c-.409,0-.818,0-1.227,0-.326,0-.492-.129-.5-.45-.019-.681-.01-1.363,0-2.044a.56.56,0,0,1,.249-.453c.394-.3.781-.606,1.174-.9a.443.443,0,0,1,.647-.006c.409.307.809.625,1.215.935a.586.586,0,0,1,.225.493c0,.622.012,1.244,0,1.866-.01.447-.151.565-.6.566h-1.176m.008-.839c.239,0,.477,0,.716,0,.165,0,.226-.068.223-.23-.007-.323,0-.647,0-.971a1.775,1.775,0,0,0-.907-.974h-.025a3.477,3.477,0,0,0-.911.75.379.379,0,0,0,0,.076c0,.383,0,.767,0,1.15,0,.141.061.2.2.2.239,0,.477,0,.715,0" transform="translate(-114.97 -239.843)" fill="#1956a7"/>
  <path id="Path_5420" data-name="Path 5420" d="M155.75,261.008c-.409,0-.818,0-1.226,0-.321,0-.477-.117-.494-.427-.039-.7-.029-1.4,0-2.094a.553.553,0,0,1,.246-.428c.393-.3.78-.606,1.174-.9a.443.443,0,0,1,.647-.007c.409.306.81.623,1.215.935a.5.5,0,0,1,.205.418c0,.681,0,1.363,0,2.044,0,.316-.155.458-.481.462-.426,0-.852,0-1.278,0m0-.839h.714c.1,0,.2-.017.205-.14a4.189,4.189,0,0,0-.035-1.342c-.1-.3-.487-.426-.738-.64a.17.17,0,0,0-.065-.039c-.031-.007-.075-.017-.1,0a5.405,5.405,0,0,0-.855.679c-.029.03-.024.1-.024.147,0,.374,0,.748,0,1.122,0,.151.057.219.209.216.229,0,.459,0,.689,0" transform="translate(-141.606 -239.842)" fill="#1956a7"/>
</svg>
