<svg id="Group_3826" data-name="Group 3826" xmlns="http://www.w3.org/2000/svg" xmlns:xlink="http://www.w3.org/1999/xlink" width="20.626" height="18.208" viewBox="0 0 20.626 18.208">
  <defs>
    <clipPath id="clip-path">
      <rect id="Rectangle_1198" data-name="Rectangle 1198" width="20.626" height="18.208" fill="#1956a7"/>
    </clipPath>
  </defs>
  <g id="Group_3826-2" data-name="Group 3826" clip-path="url(#clip-path)">
    <path id="Path_5513" data-name="Path 5513" d="M0,16.264V.7A1.043,1.043,0,0,1,1.1,0c1.4.015,2.8,0,4.206,0H17.277a.945.945,0,0,1,1.031,1.022c0,.355.008.71,0,1.064,0,.179.05.255.241.248.328-.012.658.01.986-.006a1.014,1.014,0,0,1,1.094.7V16.264c-.019.064-.04.128-.058.192a2.335,2.335,0,0,1-2.281,1.751q-7.974,0-15.948,0A2.323,2.323,0,0,1,.7,17.552,2.5,2.5,0,0,1,0,16.264m10.306.961h4.431c1.2,0,2.4,0,3.605-.007a1.3,1.3,0,0,0,1.195-.785,1.666,1.666,0,0,0,.124-.786q0-5.98,0-11.96c0-.047,0-.094,0-.141.01-.161-.062-.232-.226-.229-.268.006-.537,0-.806,0-.32,0-.321,0-.321.328q0,4.563,0,9.126c0,.724,0,1.447,0,2.171,0,.308.024.406.344.464a.452.452,0,0,1,.353.456.485.485,0,0,1-.378.461.861.861,0,0,1-.622-.1,1.223,1.223,0,0,1-.669-1.206q.01-6.834,0-13.669c0-.359,0-.36-.369-.36H1.347c-.381,0-.382,0-.382.373q0,4.392,0,8.784,0,2.774,0,5.548a1.566,1.566,0,0,0,.145.781,1.4,1.4,0,0,0,1.342.753c2.618-.006,5.237,0,7.855,0" transform="translate(0 0)" fill="#1956a7"/>
    <path id="Path_5514" data-name="Path 5514" d="M53.292,90.787c0,.73,0,1.46,0,2.19,0,.453-.183.636-.635.637q-2.214,0-4.428,0c-.446,0-.636-.189-.637-.638q0-2.2,0-4.4c0-.457.193-.651.649-.651q2.2,0,4.408,0c.457,0,.643.192.644.653q0,1.1,0,2.21M50.46,88.91c-.55,0-1.1,0-1.65,0-.175,0-.235.06-.234.234q.008,1.627,0,3.254c0,.174.061.235.235.234q1.63-.008,3.26,0c.175,0,.235-.062.235-.235q-.008-1.627,0-3.254c0-.175-.061-.236-.235-.233-.537.008-1.073,0-1.61,0" transform="translate(-44.82 -82.806)" fill="#1956a7"/>
    <path id="Path_5515" data-name="Path 5515" d="M54.26,48.889H48.52c-.343,0-.534-.117-.6-.361a.464.464,0,0,1,.344-.587A1.521,1.521,0,0,1,48.6,47.9q5.659,0,11.319,0a1.562,1.562,0,0,1,.339.036.478.478,0,0,1,.365.451.49.49,0,0,1-.328.46,1.024,1.024,0,0,1-.358.037H54.26" transform="translate(-45.115 -45.116)" fill="#1956a7"/>
    <path id="Path_5516" data-name="Path 5516" d="M171.727,88.92q-1.1,0-2.193,0c-.4,0-.637-.184-.636-.487s.237-.5.631-.5q2.213,0,4.426,0a1.052,1.052,0,0,1,.12.005.509.509,0,0,1,.506.5.5.5,0,0,1-.54.48c-.771.007-1.542,0-2.313,0Z" transform="translate(-159.07 -82.816)" fill="#1956a7"/>
    <path id="Path_5517" data-name="Path 5517" d="M171.747,208.061q1.1,0,2.193,0c.4,0,.637.179.641.483s-.238.5-.647.5q-2.193,0-4.386,0a1.146,1.146,0,0,1-.22-.019.481.481,0,0,1,.045-.96c.173-.015.348-.007.523-.007h1.851" transform="translate(-159.069 -195.952)" fill="#1956a7"/>
    <path id="Path_5518" data-name="Path 5518" d="M50.664,208.046h2.152c.067,0,.134,0,.2,0a.5.5,0,0,1,.489.47.5.5,0,0,1-.437.5.836.836,0,0,1-.16.017q-2.243,0-4.486,0a.546.546,0,0,1-.552-.294.486.486,0,0,1,.458-.687c.247-.014.5,0,.744,0h1.589" transform="translate(-45.042 -195.937)" fill="#1956a7"/>
    <path id="Path_5519" data-name="Path 5519" d="M171.761,248.154h2.152a1.61,1.61,0,0,1,.221.008.5.5,0,0,1,.447.467.485.485,0,0,1-.422.484,1.646,1.646,0,0,1-.3.025q-2.122,0-4.244,0a1.372,1.372,0,0,1-.339-.033.475.475,0,0,1-.026-.923.956.956,0,0,1,.3-.03h2.213" transform="translate(-159.07 -233.714)" fill="#1956a7"/>
    <path id="Path_5520" data-name="Path 5520" d="M50.683,248.152h2.152a2,2,0,0,1,.2,0,.5.5,0,0,1,.474.462.484.484,0,0,1-.431.5,1.707,1.707,0,0,1-.3.023q-2.112,0-4.224,0a1.419,1.419,0,0,1-.339-.031.485.485,0,0,1-.385-.454.475.475,0,0,1,.362-.472,1.141,1.141,0,0,1,.278-.028c.738,0,1.475,0,2.213,0" transform="translate(-45.047 -233.712)" fill="#1956a7"/>
    <path id="Path_5521" data-name="Path 5521" d="M171.74,128.973q-1.1,0-2.193,0c-.41,0-.655-.19-.649-.5s.242-.49.658-.49q2.183,0,4.365,0a1.306,1.306,0,0,1,.181.008.487.487,0,1,1-.029.974c-.227.013-.456,0-.684.005H171.74" transform="translate(-159.07 -120.538)" fill="#1956a7"/>
    <path id="Path_5522" data-name="Path 5522" d="M171.735,168.032h2.092c.06,0,.121,0,.181,0,.344.011.571.212.566.5a.506.506,0,0,1-.56.484q-2.283.008-4.566,0a.506.506,0,0,1-.556-.508c.011-.279.233-.464.57-.474.06,0,.121,0,.181,0h2.092" transform="translate(-159.063 -158.254)" fill="#1956a7"/>
  </g>
</svg>
