<svg id="Group_3558" data-name="Group 3558" xmlns="http://www.w3.org/2000/svg" width="23.967" height="23.967" viewBox="0 0 23.967 23.967">
  <path id="Path_5410" data-name="Path 5410" d="M108.49,38.073h-6.314c-.134-.129-.251-.266-.175-.47s.251-.251.454-.251q1.777,0,3.554,0c.308,0,.325-.01.31-.315-.039-.778-.089-1.555-.131-2.332q-.093-1.715-.181-3.43a3.955,3.955,0,0,1,0-.537.341.341,0,0,1,.338-.328.347.347,0,0,1,.38.279.823.823,0,0,1,.033.184c.008.159.069.22.239.177q.589-.149,1.184-.27c.186-.038.212-.142.192-.3-.049-.4-.1-.8-.131-1.207a1.861,1.861,0,0,0-1.513-1.86c-.272-.074-.282-.067-.333.209a3.506,3.506,0,0,1-6.885-.068c-.035-.171-.1-.207-.248-.167A1.837,1.837,0,0,0,97.7,29.071c-.055.5-.111.99-.171,1.484-.018.144.056.192.179.219.4.086.792.17,1.184.273.206.054.279.006.286-.212a.391.391,0,0,1,.4-.427c.226.014.371.21.358.49-.008.171-.023.342-.032.513-.038.731-.074,1.462-.112,2.193q-.093,1.785-.19,3.57c-.007.135.044.183.173.182.28,0,.561,0,.842,0,.194,0,.366.04.438.238a.391.391,0,0,1-.185.482H91.979c-.131-.141-.249-.287-.152-.5s.276-.223.472-.223c1.138,0,2.276,0,3.413,0,.22,0,.285-.075.267-.29-.041-.512-.06-1.026-.089-1.539-.041-.723-.086-1.446-.122-2.169q-.064-1.272-.114-2.544a.367.367,0,0,1,.356-.41.379.379,0,0,1,.378.37c.022.233.034.466.048.7.008.124.006.249.017.373,0,.051.008.123.075.13s.069-.069.084-.117a.438.438,0,0,0,.019-.091c.066-.6.124-1.208.2-1.81A5.977,5.977,0,0,1,97.217,28c.058-.119,0-.194-.091-.256a2.288,2.288,0,0,0-.542-.271c-.339-.124-.339-.123-.554.169a4.306,4.306,0,0,1-6.919-.089c-.07-.1-.132-.177-.284-.146a1.78,1.78,0,0,0-1.438,1.426c-.144.977-.235,1.962-.35,2.944-.021.18.05.257.235.254.405-.007.811-.01,1.216,0,.219.006.287-.1.293-.3.01-.311.027-.622.049-.933a.384.384,0,0,1,.375-.4.377.377,0,0,1,.362.429c0,.327-.024.653-.043.98-.1,1.764-.189,3.53-.286,5.295-.01.185.059.252.241.247.319-.009.639,0,.958,0a.389.389,0,0,1,.43.248.377.377,0,0,1-.2.473h-3.6a2.023,2.023,0,0,1-.739-.386,1.875,1.875,0,0,1-.53-1.629c.1-1.015.219-2.027.335-3.041.149-1.3.317-2.6.449-3.9a2.519,2.519,0,0,1,1.943-2.4c.612-.182,1.235-.325,1.855-.48.419-.1.42-.1.421-.535a.31.31,0,0,1,0-.047.533.533,0,0,0-.309-.581,3.768,3.768,0,0,1-1.8-2.941.445.445,0,0,0-.307-.445,1.2,1.2,0,0,1-.733-1.576,1.728,1.728,0,0,0,.137-.769,5.448,5.448,0,0,1,.261-2.05,4.83,4.83,0,0,1,5.32-3.118,4.654,4.654,0,0,1,3.82,3.367,6.993,6.993,0,0,1,.214,2.038.8.8,0,0,0,.056.389,1.227,1.227,0,0,1-.7,1.736.348.348,0,0,0-.252.339,3.74,3.74,0,0,1-1.684,2.934.855.855,0,0,0-.449.909c.017.177.069.261.246.3.659.158,1.315.327,1.97.5a2.7,2.7,0,0,1,1.011.469.239.239,0,0,0,.349,0,2.273,2.273,0,0,1,.723-.374c.629-.207,1.278-.346,1.918-.51.662-.17.561-.026.577-.741a.391.391,0,0,0-.224-.391,3.6,3.6,0,0,1-1.6-1.86.869.869,0,0,0-.149-.315.52.52,0,0,0-.138.268,3.662,3.662,0,0,0-.127,1.571.786.786,0,0,1-.869.925,8.725,8.725,0,0,1-.96-.2.928.928,0,0,1-.677-1.2,6.566,6.566,0,0,1,1.38-2.574.371.371,0,0,0,.131-.216,4.159,4.159,0,0,0,.029-.978,6.569,6.569,0,0,1,.1-2.644,5.1,5.1,0,0,1,4.3-3.769,4.877,4.877,0,0,1,3.586.96.4.4,0,0,1,.139.567.387.387,0,0,1-.562.053c-.033-.02-.065-.043-.1-.065a4.16,4.16,0,0,0-4.284-.379,4.1,4.1,0,0,0-2.475,3.655c-.02.287.009.321.27.2a2.1,2.1,0,0,1,1.206-.183,2.172,2.172,0,0,0,2.2-.825.669.669,0,0,1,1.2.005,1.908,1.908,0,0,0,.827.664,2.939,2.939,0,0,0,1.493.15c.244-.026.5-.12.728.036a2.069,2.069,0,0,0,.424.186c.187.075.227.028.215-.166a4.649,4.649,0,0,0-.611-2.064c-.142-.249-.1-.458.1-.573s.4-.047.548.191a4.734,4.734,0,0,1,.524,1.22,8.73,8.73,0,0,1,.187,2.461,2.426,2.426,0,0,1-.092.573,1.012,1.012,0,0,0,.167.9,7.18,7.18,0,0,1,1.382,2.551.951.951,0,0,1-.727,1.284c-.25.06-.5.107-.755.155a.781.781,0,0,1-1-.86c.01-.311.019-.624.007-.935a1.887,1.887,0,0,0-.234-.886c-.105.049-.1.137-.132.205a3.754,3.754,0,0,1-1.492,1.811.666.666,0,0,0-.369.694c.029.4.008.4.411.5a17.536,17.536,0,0,1,2.207.6,2.343,2.343,0,0,1,1.528,1.781c.1.474.135.955.19,1.434q.2,1.787.4,3.573.131,1.148.265,2.3v.842a1.7,1.7,0,0,1-1.263,1.31m-2.356-17.215q0-.4,0-.795c0-.373,0-.358-.387-.337a2.994,2.994,0,0,1-2.659-.963c-.093-.11-.156-.129-.253-.005a2.008,2.008,0,0,1-.291.3,3.175,3.175,0,0,1-2.411.662c-.3-.025-.332-.009-.336.282-.008.639-.028,1.278.009,1.917a3.161,3.161,0,0,0,6.213.658,7.146,7.146,0,0,0,.115-1.72m-10.378.22c0-.458,0-.816,0-1.174a.269.269,0,0,0-.176-.293,2.534,2.534,0,0,1-1.175-1c-.12-.18-.186-.144-.3,0A3.4,3.4,0,0,1,93,19.5a4.867,4.867,0,0,1-3.313.418c-.2-.04-.272.01-.27.213.006.545-.005,1.09.006,1.635a3.418,3.418,0,0,0,.125.876,3.168,3.168,0,0,0,6.122-.133,7.167,7.167,0,0,0,.082-1.435m-7.2-2.309a1.05,1.05,0,0,0-.011.163c.009.112-.064.259.051.327s.233-.031.337-.1a.614.614,0,0,1,.517-.061,5.082,5.082,0,0,0,1.666.163,3.113,3.113,0,0,0,2.612-1.436.608.608,0,0,1,.59-.3.669.669,0,0,1,.554.41,2.2,2.2,0,0,0,.913.942,2.339,2.339,0,0,1,.627.35c.125.119.228.058.232-.121a4.786,4.786,0,0,0-.034-.722A4.041,4.041,0,0,0,90.8,15.295a3.966,3.966,0,0,0-2.245,3.474m9.724,18.6v-.011c.117,0,.234,0,.351,0,.149.006.2-.064.212-.211q.066-1.424.143-2.847c.038-.723.077-1.446.128-2.169.013-.181-.033-.273-.219-.311-.4-.08-.792-.169-1.184-.271-.206-.054-.315-.011-.319.214,0,.047-.009.093-.014.139-.119,1.068-.244,2.135-.356,3.2a8.951,8.951,0,0,0-.115,1.372.819.819,0,0,0,.792.846c.194.019.388.03.582.045m9.394-.014h0c.133,0,.265.007.4,0a.865.865,0,0,0,.892-.616,1.288,1.288,0,0,0,.038-.509q-.093-.94-.2-1.879c-.094-.874-.192-1.747-.286-2.621-.018-.169-.091-.229-.263-.186-.294.075-.593.13-.887.2-.619.155-.569,0-.536.731q.1,2.168.231,4.334c.041.67.011.531.563.542h.047M87.815,32.8c-.2,0-.405.009-.607,0s-.3.064-.319.288c-.056.635-.146,1.266-.21,1.9a9.5,9.5,0,0,0-.116,1.533.806.806,0,0,0,.731.8,8.87,8.87,0,0,0,.908.03c.194.015.258-.07.267-.256.053-1.04.114-2.08.172-3.121.017-.31.028-.621.049-.932.012-.184-.066-.254-.245-.247-.21.008-.42,0-.63,0m15.153-4.284a1.546,1.546,0,0,0,1.525-1.395.283.283,0,0,0-.171-.339.551.551,0,0,1-.292-.374,1.757,1.757,0,0,1-.045-.533c0-.306-.008-.311-.3-.252a3.55,3.55,0,0,1-1.253.033c-.517-.076-.521-.076-.521.45a.709.709,0,0,1-.368.7c-.112.058-.111.157-.111.26a1.523,1.523,0,0,0,1.533,1.448M92.641,27.4a2.269,2.269,0,0,0,1.263-.406c.116-.079.187-.146.01-.244a.539.539,0,0,1-.228-.316,1.533,1.533,0,0,1-.037-.6c.014-.225-.074-.272-.274-.222a3.387,3.387,0,0,1-1.322.05c-.477-.071-.478-.073-.482.406a.758.758,0,0,1-.28.683c-.16.111-.1.175.02.253a2.342,2.342,0,0,0,1.329.4M103,29.676a2.948,2.948,0,0,0,.928-.185,2.746,2.746,0,0,0,1.74-2.1c.048-.229-.072-.283-.258-.312-.217-.034-.169.126-.186.238a2.293,2.293,0,0,1-4.541-.037c-.014-.112-.012-.248-.2-.2-.157.039-.271.069-.235.287A2.778,2.778,0,0,0,103,29.676m-10.15-1.1a3.292,3.292,0,0,0,1.584-.5,3.193,3.193,0,0,0,.866-.739c.039-.048.121-.1.046-.177a.453.453,0,0,0-.508.024,3.046,3.046,0,0,1-4.46.016.448.448,0,0,0-.084-.081.37.37,0,0,0-.432.062c-.094.085.052.174.113.241a3.635,3.635,0,0,0,2.874,1.156M98,24.95c.159.012.206-.03.185-.245a3.788,3.788,0,0,1,.286-2c.062-.134-.015-.205-.108-.269s-.154.019-.2.085a6.84,6.84,0,0,0-.99,1.994.205.205,0,0,0,.158.287c.224.062.454.1.673.151m9.728-.2c-.013.17.024.224.164.2.229-.039.458-.087.683-.147a.214.214,0,0,0,.161-.306,6.842,6.842,0,0,0-.98-1.973c-.057-.075-.11-.159-.225-.075-.091.066-.146.133-.091.252a3.84,3.84,0,0,1,.288,2.049m-8.7-4.369h0c0-.085,0-.17,0-.256,0-.045.01-.1-.039-.125s-.1.02-.139.054a.428.428,0,0,0-.062.585c.048.067.106.165.2.136s.037-.136.045-.209a1.706,1.706,0,0,0,0-.186m-2.5.15h0c0,.092,0,.185,0,.278,0,.045-.007.1.047.119s.085-.025.119-.055a.434.434,0,0,0,.1-.544c-.049-.086-.109-.208-.213-.182s-.043.16-.057.245a.855.855,0,0,0,0,.139m-7.869.022a.344.344,0,0,0,0-.092c-.031-.106.082-.3-.086-.3-.139,0-.217.177-.228.336a.4.4,0,0,0,.044.247c.053.084.105.2.214.178s.045-.147.055-.227a1.125,1.125,0,0,0,0-.139m18.236-.2h0c0,.092,0,.185,0,.278,0,.045,0,.1.056.117s.087-.018.12-.05a.428.428,0,0,0,.117-.466c-.036-.109-.1-.248-.225-.229s-.055.168-.071.259a.55.55,0,0,0,0,.092" transform="translate(-85.786 -14.106)" fill="#1956a7"/>
</svg>
