<svg id="Group_3563" data-name="Group 3563" xmlns="http://www.w3.org/2000/svg" width="24.522" height="16.72" viewBox="0 0 24.522 16.72">
  <path id="Path_5421" data-name="Path 5421" d="M264.8,213.195c.09-.049.1-.149.149-.227a3.514,3.514,0,0,1,3.138-1.9,7.761,7.761,0,0,0,4.308-1.431c.384-.262.582-.23.848.151.243.348.492.693.725,1.048.087.133.156.137.284.056.366-.231.541-.191.788.159.235.333.472.665.7,1.006.1.152.2.194.347.072a1.963,1.963,0,0,1,.32-.208.42.42,0,0,1,.638.366c.01.62.025,1.242-.007,1.86a1.845,1.845,0,0,1-.762,1.36c-.472.377-.989.689-1.489,1.026q-4.48,3.018-8.964,6.032c-.243.164-.243.164-.007.323l3.444,2.322a.526.526,0,0,0,.3.116c.756,0,1.511,0,2.3,0a.513.513,0,0,0-.213-.184q-1.721-1.139-3.444-2.276a2.25,2.25,0,0,1-.208-.146.414.414,0,0,1-.092-.569.4.4,0,0,1,.575-.136c.348.213.686.441,1.026.666q1.957,1.291,3.912,2.585a2.437,2.437,0,0,1,.227.163.4.4,0,0,1,.123.462.387.387,0,0,1-.383.284c-.255,0-.51,0-.765,0-1.045,0-2.09-.005-3.135,0a1.065,1.065,0,0,1-.639-.2c-1.265-.859-2.538-1.7-3.8-2.567a.369.369,0,0,0-.492.005c-1.271.866-2.551,1.717-3.823,2.58a1,1,0,0,1-.593.18q-1.886-.011-3.772,0c-.24,0-.452-.037-.532-.293s.057-.429.269-.569q3.81-2.509,7.615-5.024c.293-.193.293-.2,0-.389q-5.03-3.32-10.061-6.638c-.067-.044-.133-.14-.219-.09-.07.041-.025.141-.035.215a1.7,1.7,0,0,0,.925,1.781c2.41,1.576,4.785,3.2,7.174,4.812.176.118.334.247.293.49a.438.438,0,0,1-.725.265c-.785-.522-1.565-1.052-2.347-1.579q-2.547-1.715-5.1-3.429a2.151,2.151,0,0,1-1.08-2.025c.027-.449,0-.9.006-1.351a.435.435,0,0,1,.714-.391c.456.276.457.276.772-.168.181-.256.357-.517.539-.773.219-.309.429-.363.732-.153.177.123.253.071.354-.085.218-.334.454-.657.681-.985.282-.406.455-.435.859-.162a7.624,7.624,0,0,0,3.191,1.336c.478.068.965.067,1.444.125a3.571,3.571,0,0,1,2.852,1.934c.031.057.045.13.119.16m8.515-1.755c-.023-.039-.047-.084-.076-.126-.145-.21-.3-.414-.433-.63-.1-.155-.186-.153-.328-.059a7.862,7.862,0,0,1-4.525,1.329,2.653,2.653,0,0,0-2.267,1.47,4.577,4.577,0,0,0-.469,1.733.407.407,0,0,1-.427.411.416.416,0,0,1-.425-.415c-.032-.235-.056-.472-.1-.7a2.893,2.893,0,0,0-2.763-2.513c-.473-.047-.949-.024-1.42-.109a7.9,7.9,0,0,1-2.933-1.182c-.193-.126-.29-.1-.4.085a3.864,3.864,0,0,1-.349.5c-.142.174-.138.271.07.407q4.059,2.662,8.1,5.346a.343.343,0,0,0,.449,0q2.29-1.525,4.591-3.034,1.765-1.164,3.53-2.33c.068-.045.158-.071.174-.18m1.79,1.244c-.025-.039-.051-.083-.079-.124q-.173-.253-.346-.5c-.194-.281-.195-.28-.485-.089q-4.5,2.97-8.992,5.944a.651.651,0,0,1-.815,0c-1.6-1.07-3.216-2.127-4.826-3.19q-2.116-1.4-4.228-2.8c-.172-.115-.275-.12-.383.066a3.035,3.035,0,0,1-.333.482c-.174.2-.136.3.082.448q4.952,3.253,9.89,6.525a.329.329,0,0,0,.428-.012q3.26-2.161,6.528-4.311,1.691-1.116,3.38-2.234c.073-.049.175-.079.18-.2m-17.365,12.593.02.048c.7,0,1.409-.006,2.113,0a.9.9,0,0,0,.542-.17q7.424-5,14.861-9.99a1.688,1.688,0,0,0,.917-1.758c-.011-.081.043-.191-.04-.237s-.151.052-.219.1q-3.276,2.157-6.55,4.318l-9.78,6.453q-.934.616-1.865,1.236" transform="translate(-252.527 -209.46)" fill="#1956a7"/>
</svg>
