<svg xmlns="http://www.w3.org/2000/svg" width="21.123" height="21.12" viewBox="0 0 21.123 21.12">
  <g id="Group_3565" data-name="Group 3565" transform="translate(-485.589 -251.377)">
    <path id="Path_5430" data-name="Path 5430" d="M491.382,37.394H481.327a.815.815,0,0,1-.5-.8c.011-.217-.086-.264-.28-.27-.625-.018-.875-.283-.881-.91,0-.261-.007-.279-.268-.263a.813.813,0,0,1-.873-.513V16.789a.81.81,0,0,1,.829-.515c2.348.009,4.7,0,7.045,0q2.451,0,4.9,0a.744.744,0,0,1,.6.255.869.869,0,0,1,.187.656c-.013.19.063.25.251.25.645,0,.892.245.906.893,0,.161.061.229.22.215.055,0,.11,0,.165,0a.723.723,0,0,1,.773.772c0,.453.007.906,0,1.359,0,.185.041.281.248.282a4.139,4.139,0,0,1,.593.055,5.114,5.114,0,0,1,3.935,7.207,4.57,4.57,0,0,1-.782,1.2.331.331,0,0,1-.584-.119.371.371,0,0,1,.118-.354,4.4,4.4,0,0,0,.7-1.157c.1-.244.093-.258-.155-.324-1.22-.324-2.441-.645-3.66-.973a.313.313,0,0,0-.345.1q-1.335,1.346-2.678,2.682c-.176.176-.177.195.023.341a4.436,4.436,0,0,0,3.64.817,4.764,4.764,0,0,0,1.232-.456.32.32,0,0,1,.455.139.316.316,0,0,1-.137.44,2.32,2.32,0,0,1-.255.134,5.006,5.006,0,0,1-1.982.5c-.363.011-.364.018-.364.38,0,.844,0,1.689,0,2.533a.632.632,0,0,1-.2.491q-1.416,1.395-2.823,2.8m-9.88-9.429q0,4.244,0,8.489c0,.291.014.306.277.306h8.839c.25,0,.264-.015.264-.273,0-.577,0-1.154,0-1.731a.78.78,0,0,1,.878-.876c.57,0,1.14,0,1.71,0,.282,0,.284,0,.284-.292,0-.714-.008-1.429.005-2.143,0-.222-.066-.306-.286-.352a5.1,5.1,0,0,1-3.79-6.676,4.972,4.972,0,0,1,3.83-3.353c.181-.04.251-.112.245-.3-.013-.4,0-.8,0-1.195,0-.366,0-.368-.367-.368H481.872c-.369,0-.37,0-.37.361q0,4.2,0,8.406m-2.343-2.25v8.468c0,.146-.019.3.2.309.27.015.306-.012.306-.292q0-7.881,0-15.761c0-.1,0-.192,0-.288a.73.73,0,0,1,.717-.711c.714-.011,1.428-.006,2.143,0a.318.318,0,0,1,.353.321.33.33,0,0,1-.334.345,1.963,1.963,0,0,1-.226.007c-.563,0-1.126,0-1.689,0-.273,0-.287.017-.289.3,0,.048,0,.1,0,.144V35.2c0,.069.005.138,0,.206-.015.191.078.246.259.249s.234-.094.223-.256c-.005-.075,0-.151,0-.226q0-7.86,0-15.72a.83.83,0,0,1,.906-.913c3.5.016,6.991.007,10.487.007h.206c.1,0,.146-.053.157-.152.027-.224-.03-.281-.3-.281h-7.705a1.235,1.235,0,0,1-.348-.025.306.306,0,0,1-.237-.34.3.3,0,0,1,.262-.3,1.524,1.524,0,0,1,.267-.011h6.634c.255,0,.263-.022.274-.264s-.13-.243-.3-.243q-5.81,0-11.62,0c-.322,0-.333.012-.333.34q0,4.223,0,8.447m10.914.362a4.446,4.446,0,0,0,.915,2.72c.115.155.191.162.331.021.927-.938,1.861-1.868,2.794-2.8a.938.938,0,0,0,.2-.283c.545-1.215,1.089-2.43,1.641-3.642.076-.166.038-.227-.128-.276a4.538,4.538,0,0,0-1.954-.146,4.44,4.44,0,0,0-3.8,4.4m8.9-.028a4.4,4.4,0,0,0-2.085-3.744c-.216-.142-.244-.131-.347.1-.485,1.077-.967,2.154-1.455,3.23-.066.145-.079.235.11.284q1.753.456,3.5.926c.161.043.221-.018.234-.158.018-.2.026-.4.041-.636m-5.756,8.51c-.494,0-.96,0-1.425,0-.183,0-.239.077-.235.249.007.419,0,.837,0,1.256,0,.05-.024.111.006.129l1.652-1.632" transform="translate(7.064 235.104)" fill="#1956a7"/>
    <path id="Path_5431" data-name="Path 5431" d="M504.352,84.738H501.8c-.076,0-.152,0-.227,0a.356.356,0,0,1-.365-.324.333.333,0,0,1,.336-.344c.167-.017.179-.109.179-.238q0-.927,0-1.854c0-.334.107-.447.441-.455.275-.007.549,0,.824,0,.247,0,.266-.022.267-.275,0-.467,0-.934,0-1.4,0-.393.115-.509.5-.511q.618,0,1.236,0c.368,0,.477.108.489.479.008.233.007.467,0,.7,0,.158.067.222.224.219.275-.005.549,0,.824,0,.383,0,.493.111.493.49,0,.858,0,1.717,0,2.575,0,.169.027.266.226.284a.3.3,0,0,1,.277.327.314.314,0,0,1-.289.321,1.316,1.316,0,0,1-.246.014h-2.637m.459-2.686c0-.6,0-1.209,0-1.813,0-.182-.065-.25-.241-.236-.123.009-.247,0-.371,0-.261,0-.269.008-.269.266q0,1.576,0,3.152c0,.649,0,.644.641.64.177,0,.243-.058.241-.239-.008-.59,0-1.181,0-1.772m1.536.679c0-.37,0-.74,0-1.11,0-.159-.063-.225-.221-.217a2.988,2.988,0,0,1-.39,0c-.189-.015-.254.066-.252.251.007.6,0,1.193,0,1.789.007.722-.111.6.641.618.16,0,.221-.063.219-.22,0-.37,0-.74,0-1.11m-3.1.4h0c0-.11,0-.219,0-.329-.016-.734.138-.6-.68-.615a.155.155,0,0,0-.18.173q0,.76,0,1.52a.156.156,0,0,0,.179.174c.164,0,.329,0,.493,0,.129,0,.188-.056.187-.185,0-.246,0-.493,0-.739" transform="translate(-10.912 185.129)" fill="#1956a7"/>
    <path id="Path_5432" data-name="Path 5432" d="M504.475,41.453h-2.821a1.18,1.18,0,0,1-.266-.019.328.328,0,0,1-.01-.633,1,1,0,0,1,.244-.025q2.862,0,5.725,0a1.037,1.037,0,0,1,.245.022.329.329,0,0,1-.009.639,1.14,1.14,0,0,1-.246.017h-2.862" transform="translate(-10.862 215.684)" fill="#1956a7"/>
    <path id="Path_5433" data-name="Path 5433" d="M503.787,52.381H501.6a.651.651,0,0,1-.264-.032.332.332,0,0,1,0-.611.732.732,0,0,1,.284-.035q2.162,0,4.324,0a1,1,0,0,1,.264.03.328.328,0,0,1,0,.619.985.985,0,0,1-.264.027q-1.081,0-2.162,0" transform="translate(-10.86 207.023)" fill="#1956a7"/>
    <path id="Path_5434" data-name="Path 5434" d="M503.458,63.317c-.618,0-1.235,0-1.853,0a.867.867,0,0,1-.243-.026.3.3,0,0,1-.221-.312.292.292,0,0,1,.225-.307,1.158,1.158,0,0,1,.285-.03q1.811,0,3.623,0c.356,0,.5.1.5.343s-.149.334-.508.335h-1.811" transform="translate(-10.86 198.354)" fill="#1956a7"/>
  </g>
</svg>
