<svg xmlns="http://www.w3.org/2000/svg" width="21.945" height="22.664" viewBox="0 0 21.945 22.664">
  <g id="Group_3573" data-name="Group 3573" transform="translate(-434.881 -156.131)">
    <path id="Path_5452" data-name="Path 5452" d="M6.726,44.273A1.461,1.461,0,0,1,5.611,42.7q0-3.946,0-7.892c0-.527.144-.672.666-.672h4.112c.238,0,.239,0,.128-.215a2.322,2.322,0,0,1-.22-.553.68.68,0,0,0-.35-.452c-.861-.527-1.716-1.063-2.571-1.6a6.8,6.8,0,0,0-.875-.471,4.365,4.365,0,0,1-2.025-1.812,2.608,2.608,0,0,0-.707-.751c-.123-.091-.2-.095-.3.04A1.121,1.121,0,0,1,2,28.626q-.7-.361-1.384-.739a1.115,1.115,0,0,1-.478-1.535Q1.23,24.268,2.347,22.2a1.107,1.107,0,0,1,1.468-.473c.516.253,1.02.529,1.522.809a1.084,1.084,0,0,1,.558.946.256.256,0,0,0,.133.254c.386.2.765.413,1.152.611a7.148,7.148,0,0,0,2.521.6,15.389,15.389,0,0,1,2.4.353,3.626,3.626,0,0,1,2.312,1.784c.551.992,1.116,1.975,1.677,2.961.054.1.12.185.183.276a3.379,3.379,0,0,1,.3,3.594c-.108.229-.113.227.146.227h4.6c.462,0,.624.162.624.626q0,3.957,0,7.914a1.467,1.467,0,0,1-1.114,1.6Zm7.045-9.2H10.1c-1.091,0-2.181,0-3.272,0-.213,0-.286.067-.277.279.014.338,0,.678,0,1.017,0,.379,0,.379.386.379.641,0,1.282,0,1.923,0a.482.482,0,0,1,.516.466.491.491,0,0,1-.511.474c-.066,0-.133,0-.2,0-.612,0-1.223.01-1.835,0-.228-.005-.286.072-.285.291.008,1.584,0,3.169,0,4.753,0,.471.166.64.636.64q6.588,0,13.176,0c.458,0,.63-.174.63-.626q0-2.365,0-4.731c0-.322,0-.323-.332-.323H13.128a1.61,1.61,0,0,1-.329-.022.461.461,0,0,1-.379-.475.481.481,0,0,1,.425-.44,2.062,2.062,0,0,1,.265-.007q3.8,0,7.6,0c.222,0,.3-.061.288-.287-.017-.353,0-.707,0-1.061,0-.327,0-.328-.33-.328h-6.9m.693-6.014c-.29-.511-.558-.95-.794-1.406a2.859,2.859,0,0,0-2.115-1.541c-.824-.162-1.664-.2-2.5-.31a7.022,7.022,0,0,1-2.546-.751c-.283-.157-.572-.3-.856-.461-.091-.051-.152-.067-.211.046q-.676,1.279-1.36,2.554a.141.141,0,0,0,.056.219,3.93,3.93,0,0,1,1.264,1.335,2.821,2.821,0,0,0,1.187,1.1,38.627,38.627,0,0,1,3.384,2c.3.183.6.376.908.546.222.122.322.066.365-.185a1.037,1.037,0,0,0,.007-.308,2.234,2.234,0,0,0-.618-1.314q-.718-.735-1.426-1.479a2.221,2.221,0,0,1-.252-.307.8.8,0,0,1,.323-1.226,2.458,2.458,0,0,1,.894-.226,2.277,2.277,0,0,1,2.261.947c.133.185.251.381.378.571.039.059.065.139.162.124a3.628,3.628,0,0,1,1.485.079m-.923,5.072c.5,0,1-.006,1.5,0a.45.45,0,0,0,.379-.175,2.478,2.478,0,0,0-3.429-3.546c-.129.107-.184.2-.093.37a2.574,2.574,0,0,1,.3,1.19,1.354,1.354,0,0,1-.648,1.315c-.249.141-.254.135-.1.383.043.069.1.131.139.2a.543.543,0,0,0,.536.266c.471-.019.943-.006,1.414-.006M4.946,23.525c.008-.146-.1-.2-.2-.26-.41-.218-.819-.437-1.23-.652-.209-.109-.293-.081-.407.133q-1.049,1.97-2.1,3.942c-.112.212-.09.3.118.412.4.219.8.433,1.208.646.282.148.327.137.482-.152q1.03-1.93,2.054-3.863a.457.457,0,0,0,.074-.206M10.5,28.258c-.154.016-.307.033-.461.047-.186.017-.22.08-.081.222q.595.609,1.182,1.225c.064.067.118.077.187.013a3.018,3.018,0,0,1,.558-.4.113.113,0,0,0,.044-.182c-.325-.541-.7-1-1.429-.93" transform="translate(434.881 134.523)" fill="#1956a7"/>
    <path id="Path_5453" data-name="Path 5453" d="M158.693,317.866h-4c-.539,0-.671-.13-.671-.658q0-.984,0-1.967c0-.391.17-.562.565-.572.169,0,.339,0,.508,0h7.559a1.859,1.859,0,0,1,.33.019.442.442,0,0,1,.394.46q.008,1.127,0,2.254c0,.3-.2.462-.53.463-.832,0-1.665,0-2.5,0h-1.658m.005-.944c1.171,0,2.342,0,3.513,0,.188,0,.268-.05.257-.249a6.843,6.843,0,0,1,0-.8c.013-.214-.061-.276-.274-.274-1.318.009-2.637,0-3.955,0-1.009,0-2.018,0-3.027,0-.2,0-.3.046-.28.268a5.877,5.877,0,0,1,0,.773c-.013.212.059.28.273.278,1.164-.009,2.328,0,3.491,0" transform="translate(289.958 -141.224)" fill="#1956a7"/>
    <path id="Path_5454" data-name="Path 5454" d="M177.117,278.921a.466.466,0,1,1,.462-.473.5.5,0,0,1-.462.473" transform="translate(268.67 -106.713)" fill="#1956a7"/>
  </g>
</svg>
