<svg xmlns="http://www.w3.org/2000/svg" width="21.123" height="22.896" viewBox="0 0 21.123 22.896">
  <g id="Group_3567" data-name="Group 3567" transform="translate(-437.552 -249.006)">
    <path id="Path_5438" data-name="Path 5438" d="M295.958,27.422a.75.75,0,0,1-.4-.721c0-1.169,0-2.337,0-3.506,0-.2.035-.4.265-.466.251-.077.455.094.457.39,0,.67,0,1.34,0,2.01,0,.462,0,.923,0,1.385,0,.157.039.226.212.226q3.26-.007,6.521,0c.095,0,.214.018.216-.126a13.29,13.29,0,0,0-.049-1.471c-.171.169-.343.338-.513.508-.582.58-.733.58-1.311,0-.68-.677-1.368-1.347-2.041-2.033a2.14,2.14,0,0,1-.557-2.222,1.835,1.835,0,0,1,2.8-1.12c.349.209.586.262.9-.012a1.144,1.144,0,0,1,.556-.22.233.233,0,0,0,.224-.27q-.01-1.016,0-2.032c0-.193-.081-.239-.256-.238-.923.005-1.846,0-2.769,0H296.6c-.312,0-.312,0-.312.3q0,1.753,0,3.506a1.6,1.6,0,0,1-.007.245.332.332,0,0,1-.333.3.32.32,0,0,1-.354-.274,1.962,1.962,0,0,1-.03-.377q0-1.764,0-3.528a.869.869,0,0,1,.279-.806c.082-.059.022-.12-.018-.17a2.771,2.771,0,0,1-.536-1.761q-.013-3.193,0-6.387a1.129,1.129,0,0,1,1.345-1.172c.126.018.177-.008.173-.143-.007-.268-.006-.536,0-.8a1.247,1.247,0,0,1,1.675-1.186c.138.047.2.038.277-.1a1.238,1.238,0,0,1,2.3.4c.025.155.065.177.212.14a1.233,1.233,0,0,1,1.584,1.235c0,1.392,0,2.784,0,4.176v.245c.111.015.158-.065.223-.108a1.6,1.6,0,0,1,1.485-.229.826.826,0,0,1,.588,1.068,7.55,7.55,0,0,1-.343.991,13.448,13.448,0,0,0-.664,2.405,3.7,3.7,0,0,1-.412,1.174c-.065.115-.074.19.039.283a.628.628,0,0,1,.2.523c0,.774,0,1.548,0,2.322a.306.306,0,0,0,.212.335,1.952,1.952,0,0,1,1.172,1.716,2.036,2.036,0,0,1-.73,1.857,1.649,1.649,0,0,0-.661,1.6c.056.462,0,.937.014,1.405a.7.7,0,0,1-.418.72Zm.054-15.567h0c0,1.079-.008,2.158,0,3.238a1.72,1.72,0,0,0,.782,1.542.6.6,0,0,0,.338.145q2.746-.006,5.493,0a.3.3,0,0,0,.276-.148,3.144,3.144,0,0,0,.5-1.162,15.961,15.961,0,0,1,.85-2.977c.07-.18.122-.367.187-.549.049-.14-.011-.212-.14-.248a.907.907,0,0,0-.788.127,1.547,1.547,0,0,0-.659,1.257.443.443,0,0,1-.235.4,3.162,3.162,0,0,0-1.507,1.434.309.309,0,0,1-.439.147.341.341,0,0,1-.2-.424,1.268,1.268,0,0,1,.186-.4,3.841,3.841,0,0,1,1.222-1.158.454.454,0,0,0,.247-.446c-.008-1.853,0-3.707-.005-5.56a2.214,2.214,0,0,0-.009-.245.479.479,0,0,0-.455-.439.517.517,0,0,0-.584.532c-.018.2-.008.4-.008.6,0,.893,0,1.786,0,2.68,0,.257-.133.4-.352.4s-.341-.142-.348-.4c0-.067,0-.134,0-.2q0-2.021,0-4.042a.964.964,0,0,0-.052-.373.511.511,0,0,0-.465-.33.534.534,0,0,0-.5.315.925.925,0,0,0-.039.375q0,2.188,0,4.377a1.408,1.408,0,0,1-.031.331.324.324,0,0,1-.366.258.332.332,0,0,1-.322-.29,1.187,1.187,0,0,1-.01-.245q0-1.652,0-3.3c0-.223.008-.447-.005-.67a.526.526,0,0,0-.447-.488.532.532,0,0,0-.561.317.8.8,0,0,0-.037.33q0,1.864,0,3.729c0,.372-.124.561-.365.561s-.366-.188-.366-.56c0-.6,0-1.191,0-1.786a.366.366,0,0,0-.378-.406.4.4,0,0,0-.4.413c0,.067,0,.134,0,.2v3.148m8.643,10.169a1.682,1.682,0,0,0-.253-.8,1.031,1.031,0,0,0-1.128-.491,1.756,1.756,0,0,0-.876.459c-.3.276-.472.278-.769,0a1.875,1.875,0,0,0-.7-.42,1.06,1.06,0,0,0-1.327.482,1.49,1.49,0,0,0,.214,1.848c.68.687,1.376,1.359,2.06,2.042.1.1.167.108.272,0,.684-.683,1.375-1.36,2.062-2.04a1.574,1.574,0,0,0,.447-1.083" transform="translate(153.314 244.48)" fill="#1956a7"/>
    <path id="Path_5439" data-name="Path 5439" d="M241.232,44.04a.7.7,0,0,1-.4-.708c0-.6,0-1.206,0-1.809a.951.951,0,0,1,.011-.156.354.354,0,0,1,.377-.333.349.349,0,0,1,.338.371c.007.476,0,.953,0,1.429,0,.545-.076.492.483.492q2.758,0,5.517,0c.311,0,.312,0,.312-.307,0-1.824,0-3.648.005-5.472,0-.226-.061-.29-.288-.289-1.913.009-3.827,0-5.74.005-.289,0-.289,0-.289.3q0,.994,0,1.988a1.027,1.027,0,0,1-.013.222.337.337,0,0,1-.326.287.341.341,0,0,1-.355-.252.992.992,0,0,1-.036-.332c0-.715,0-1.429,0-2.144a.775.775,0,0,1,.224-.651c.07-.06.044-.112,0-.172a2.657,2.657,0,0,1-.461-1.645c0-1.913,0-3.827,0-5.74a1.051,1.051,0,0,1,1.232-1.168c.127.008.157-.03.155-.143,0-.231,0-.462,0-.692a1.151,1.151,0,0,1,1.5-1.124.233.233,0,0,0,.319-.116,1.159,1.159,0,0,1,2.1.343c.043.166.086.217.279.176a1.152,1.152,0,0,1,1.379,1.005,6.164,6.164,0,0,1,.024.8q0,1.552,0,3.1v.279a2.011,2.011,0,0,1,.781-.363,1.4,1.4,0,0,1,.554.007.84.84,0,0,1,.7,1.222c-.213.666-.5,1.307-.663,1.99q-.111.466-.205.937a3.675,3.675,0,0,1-.369,1.072.186.186,0,0,0,.032.271.543.543,0,0,1,.165.424q0,3.149,0,6.3a.663.663,0,0,1-.374.589ZM241.292,32c0,.938,0,1.876,0,2.814a2.231,2.231,0,0,0,.172.982c.188.384.453.748.912.755,1.63.025,3.261.008,4.891.012a.313.313,0,0,0,.3-.153,2.875,2.875,0,0,0,.443-1.04,13.7,13.7,0,0,1,.583-2.2c.109-.3.225-.6.327-.9.086-.255.038-.313-.233-.332a.831.831,0,0,0-.6.19,1.29,1.29,0,0,0-.5.959.535.535,0,0,1-.257.508,2.861,2.861,0,0,0-1.362,1.3.308.308,0,0,1-.421.15.33.33,0,0,1-.219-.412,1.36,1.36,0,0,1,.258-.516,3.517,3.517,0,0,1,1.053-.952.392.392,0,0,0,.215-.393c-.006-1.69,0-3.38,0-5.07a1.343,1.343,0,0,0-.008-.223.452.452,0,0,0-.9.013,1.6,1.6,0,0,0-.006.223q0,1.363,0,2.725a1.117,1.117,0,0,1-.009.222.335.335,0,0,1-.319.294.321.321,0,0,1-.365-.259,1.514,1.514,0,0,1-.034-.354q0-1.809,0-3.618a2.361,2.361,0,0,0-.008-.268.406.406,0,0,0-.419-.38c-.291-.005-.457.173-.458.505q0,2.044,0,4.087a1.241,1.241,0,0,1-.021.288.332.332,0,0,1-.353.28.34.34,0,0,1-.342-.3,1.1,1.1,0,0,1-.014-.244q0-1.206,0-2.412c0-.387,0-.774,0-1.162a.446.446,0,0,0-.885-.092,1.29,1.29,0,0,0-.023.288q0,1.664,0,3.328a1.676,1.676,0,0,1-.006.223.344.344,0,0,1-.353.306.335.335,0,0,1-.335-.3,1.321,1.321,0,0,1-.007-.223c0-.536,0-1.072,0-1.608,0-.244-.127-.372-.325-.373s-.341.136-.354.375c0,.067,0,.134,0,.2q0,1.373,0,2.747" transform="translate(196.963 227.862)" fill="#1956a7"/>
    <path id="Path_5440" data-name="Path 5440" d="M270.171,7.394a1.515,1.515,0,0,1,.749-1.309,1.438,1.438,0,0,1,1.545.062c.121.07.213.122.361.03a1.433,1.433,0,0,1,1.847.1,1.7,1.7,0,0,1,.269,2.017,1.942,1.942,0,0,1-.314.4c-.5.5-1,1-1.5,1.493-.345.341-.564.339-.91,0L270.7,8.708a1.777,1.777,0,0,1-.533-1.314m4.267.089a.842.842,0,0,0-.415-.787.794.794,0,0,0-.841.105,1.893,1.893,0,0,0-.192.152.413.413,0,0,1-.648,0,1.354,1.354,0,0,0-.494-.294.676.676,0,0,0-.846.351.936.936,0,0,0,.15,1.114c.452.462.918.912,1.372,1.372.1.1.174.1.276,0,.441-.442.89-.876,1.332-1.317a.96.96,0,0,0,.3-.7" transform="translate(173.352 243.393)" fill="#1956a7"/>
  </g>
</svg>
