<svg id="Group_3564" data-name="Group 3564" xmlns="http://www.w3.org/2000/svg" width="19.323" height="24.591" viewBox="0 0 19.323 24.591">
  <path id="Path_5422" data-name="Path 5422" d="M296.427,115.149a9.715,9.715,0,0,1-2.074-.469,8.8,8.8,0,0,1-5.948-7.252,8.674,8.674,0,0,1,1.547-6.41c1.7-2.489,3.372-5,5.056-7.5.594-.881,1.187-1.764,1.787-2.642.3-.435.682-.429.976.007q1.856,2.754,3.71,5.51c.161.24.162.239.326,0,.345-.51.687-1.022,1.034-1.53a.529.529,0,0,1,.976.005q1.536,2.277,3.068,4.555a4.266,4.266,0,0,1-.446,5.346.747.747,0,0,0-.229.648,8.99,8.99,0,0,1-7.94,9.7.828.828,0,0,0-.115.03Zm-7.1-8.958a7.469,7.469,0,0,0,.094,1.289,7.953,7.953,0,0,0,8.191,6.663,7.748,7.748,0,0,0,5.253-2.3,7.864,7.864,0,0,0,2.367-5.808c0-.328-.025-.343-.319-.226a4.287,4.287,0,0,1-5.217-6.286c.376-.575.758-1.148,1.157-1.707a.388.388,0,0,0,.009-.525c-1.147-1.685-2.282-3.378-3.42-5.068-.17-.252-.17-.252-.337,0q-3.211,4.762-6.421,9.524a7.731,7.731,0,0,0-1.357,4.446m17.262-4.395a3.069,3.069,0,0,0-.556-1.813c-.854-1.274-1.717-2.542-2.568-3.818-.122-.183-.178-.161-.289.005-.857,1.282-1.727,2.555-2.581,3.839a3.16,3.16,0,0,0-.522,2.234,3.271,3.271,0,0,0,6.516-.447" transform="translate(-288.298 -90.558)" fill="#1956a7"/>
  <path id="Path_5423" data-name="Path 5423" d="M295.4,136.017a6.745,6.745,0,0,1,1.241-4.069c.231-.321.547-.378.795-.152a.516.516,0,0,1,.031.734,5.722,5.722,0,0,0-.9,1.972,5.6,5.6,0,0,0,3.525,6.56c.09.033.182.062.269.1a.5.5,0,1,1-.337.949,6.163,6.163,0,0,1-1.855-.932,6.481,6.481,0,0,1-2.772-5.162" transform="translate(-293.39 -120.015)" fill="#1956a7"/>
  <path id="Path_5424" data-name="Path 5424" d="M316.331,167.505a.53.53,0,0,1-.5-.515.506.506,0,0,1,1.012.01.527.527,0,0,1-.51.5" transform="translate(-308.03 -144.979)" fill="#1956a7"/>
  <path id="Path_5425" data-name="Path 5425" d="M331.842,126.486a2.848,2.848,0,0,1,.209-1.036.514.514,0,0,1,.656-.327.5.5,0,0,1,.294.669,1.652,1.652,0,0,0,.582,2.021.506.506,0,1,1-.628.79,2.625,2.625,0,0,1-1.113-2.117" transform="translate(-319.506 -115.309)" fill="#1956a7"/>
  <path id="Path_5426" data-name="Path 5426" d="M340.626,136.455a.495.495,0,1,1-.488-.507.486.486,0,0,1,.488.507" transform="translate(-325.092 -123.089)" fill="#1956a7"/>
</svg>
