<svg xmlns="http://www.w3.org/2000/svg" width="22.191" height="22.204" viewBox="0 0 22.191 22.204">
  <g id="Group_3568" data-name="Group 3568" transform="translate(-412.401 -249.653)">
    <path id="Path_5435" data-name="Path 5435" d="M184.836,34.132c0,1,0,1.995,0,2.992a.886.886,0,0,1-.114.446q-.988,1.8-1.968,3.606a1.665,1.665,0,0,1-.29.392c-.854.851-1.7,1.708-2.561,2.555a1.347,1.347,0,0,0-.431,1.036c.009.439,0,.878,0,1.318,0,.305-.13.433-.438.434q-2.077,0-4.153,0c-.318,0-.442-.128-.442-.452q0-2.21,0-4.421a1.749,1.749,0,0,1,.522-1.221c.483-.516.964-1.035,1.451-1.547a.583.583,0,0,0,.174-.437c-.007-1.042,0-2.084,0-3.126a1.252,1.252,0,0,1,1.606-1.288c.144.033.184,0,.183-.142-.005-.61,0-1.221,0-1.831a1.25,1.25,0,0,1,1.584-1.248c.165.04.211.005.2-.16-.01-.253,0-.506,0-.759a1.262,1.262,0,0,1,2.39-.575c.078.156.134.2.313.125a1.432,1.432,0,0,1,1.971,1.313c.007,1,0,1.995,0,2.992m-.746-.023v-.4c0-.819.005-1.637,0-2.456a.7.7,0,0,0-1.056-.665.753.753,0,0,0-.34.708c0,1.459,0,2.917,0,4.376a.773.773,0,0,1-.173.512q-1.771,2.242-3.534,4.491c-.317.4-.312.4-.711.095-.16-.122-.176-.21-.045-.373.72-.9,1.427-1.812,2.143-2.716a.981.981,0,0,0,.085-.932.322.322,0,0,0-.431-.168.634.634,0,0,0-.242.192q-2.132,2.285-4.266,4.568a1.129,1.129,0,0,0-.327.784c-.008,1.288,0,2.575-.006,3.863,0,.138.057.18.188.18q1.585,0,3.17,0c.153,0,.19-.067.187-.2-.006-.3.007-.6,0-.893a1.84,1.84,0,0,1,.6-1.436c.843-.831,1.675-1.672,2.512-2.508a1.533,1.533,0,0,0,.271-.352q.938-1.726,1.882-3.448a.8.8,0,0,0,.1-.4c0-.938,0-1.875,0-2.813m-3.185-.967c0,.782.011,1.563,0,2.345a1.359,1.359,0,0,0,.251.936c.1.123.129.1.2.007.141-.183.276-.371.428-.544a.651.651,0,0,0,.167-.465c-.006-1.653,0-3.305,0-4.958,0-.445-.189-.695-.52-.7s-.52.25-.52.695q0,1.34,0,2.68m-1.787,3.137.049.031a1.18,1.18,0,0,1,.77-.493c.192-.019.226-.1.224-.268-.006-.988,0-1.977,0-2.966,0-.425-.194-.671-.519-.672s-.517.247-.521.67c0,.037,0,.074,0,.111V36.28Zm-1.782,1.99.973-1.036a.226.226,0,0,0,.062-.162c0-.475.011-.951-.008-1.426a.509.509,0,0,0-.509-.517.5.5,0,0,0-.512.513c-.015.853-.005,1.706-.005,2.629" transform="translate(249.754 224.945)" fill="#1956a7"/>
    <path id="Path_5436" data-name="Path 5436" d="M126.419,44.213c0,.744,0,1.489,0,2.233,0,.339-.121.462-.454.463q-2.065,0-4.131,0c-.322,0-.446-.125-.448-.446,0-.447,0-.893,0-1.34a1.3,1.3,0,0,0-.407-.978c-.867-.859-1.727-1.725-2.592-2.587a1.522,1.522,0,0,1-.267-.355q-.991-1.824-1.989-3.645a.85.85,0,0,1-.109-.425c0-1.987,0-3.975,0-5.962a1.433,1.433,0,0,1,2-1.335c.152.063.2.024.267-.106a1.263,1.263,0,0,1,2.407.577c0,.253,0,.506,0,.759,0,.132.035.164.17.135a1.255,1.255,0,0,1,1.618,1.3c0,.588,0,1.176,0,1.764,0,.154.038.189.194.151a1.25,1.25,0,0,1,1.595,1.257c0,1.035.006,2.069,0,3.1a.681.681,0,0,0,.2.518c.458.478.9.972,1.361,1.448a1.942,1.942,0,0,1,.593,1.464c-.018.669,0,1.34,0,2.009M118.167,33.5q0-1.127,0-2.255a.721.721,0,0,0-.408-.691.639.639,0,0,0-.713.08.777.777,0,0,0-.277.675q0,2.813,0,5.626a.765.765,0,0,0,.1.382q.949,1.733,1.893,3.468a1.45,1.45,0,0,0,.257.335c.838.836,1.669,1.677,2.513,2.508a1.855,1.855,0,0,1,.605,1.455c-.011.282.008.566-.005.848-.009.188.06.242.243.24q1.529-.011,3.059,0c.178,0,.249-.044.247-.236-.007-1.243,0-2.486,0-3.729a1.222,1.222,0,0,0-.337-.871q-1.711-1.823-3.41-3.657c-.3-.327-.607-.655-.919-.975-.212-.217-.531-.2-.606.056a.943.943,0,0,0,.082.911c.668.847,1.339,1.693,2,2.547.334.432.4.309-.1.711-.154.124-.232.109-.353-.046q-1.848-2.367-3.711-4.722a.68.68,0,0,1-.154-.451c.006-.737,0-1.474,0-2.21m1.787-.349c0-.915,0-1.831,0-2.747a.558.558,0,0,0-.339-.6c-.386-.139-.7.127-.7.608q0,2.535,0,5.069a.384.384,0,0,0,.055.256c.188.24.375.482.564.721.028.036.087.112.117.039.087-.216.313-.352.309-.625-.013-.908,0-1.816,0-2.724m1.78,3.209c0-1.366.008-2.658-.006-3.949a.493.493,0,0,0-.526-.5.519.519,0,0,0-.5.556c-.009,1.055,0,2.111,0,3.166,0,.067,0,.152.084.158a1.341,1.341,0,0,1,.949.564m1.789,1.912c0-.922.006-1.775,0-2.628a.483.483,0,0,0-.339-.478c-.364-.126-.679.117-.689.548s0,.876,0,1.315a.277.277,0,0,0,.062.207l.973,1.036" transform="translate(296.379 224.947)" fill="#1956a7"/>
    <path id="Path_5437" data-name="Path 5437" d="M155.041,10.886a3.2,3.2,0,0,1-1.111,2.451q-1.925,1.747-3.847,3.5c-.357.324-.492.323-.852,0-1.292-1.177-2.593-2.345-3.877-3.532a3.064,3.064,0,0,1-.93-3.329,3.1,3.1,0,0,1,5.054-1.424c.145.129.226.116.367,0a3,3,0,0,1,3.144-.6,3.045,3.045,0,0,1,2.022,2.513,3.82,3.82,0,0,1,.03.434M147.608,8.52a2.06,2.06,0,0,0-.7.039,2.285,2.285,0,0,0-1.758,1.634,2.326,2.326,0,0,0,.556,2.378c.217.234.464.44.7.655q1.526,1.39,3.052,2.78c.125.114.222.167.375.027,1.233-1.132,2.48-2.249,3.705-3.389a2.269,2.269,0,0,0,.717-2.023,2.347,2.347,0,0,0-3.835-1.568c-.163.13-.315.273-.479.4a.4.4,0,0,1-.567,0c-.123-.1-.243-.2-.36-.3a2.249,2.249,0,0,0-1.406-.631" transform="translate(273.838 241.922)" fill="#1956a7"/>
  </g>
</svg>
