<svg xmlns="http://www.w3.org/2000/svg" width="23.431" height="22.896" viewBox="0 0 23.431 22.896">
  <g id="Group_3571" data-name="Group 3571" transform="translate(-492.463 -154.795)">
    <path id="Path_5455" data-name="Path 5455" d="M930.746,238.451a.779.779,0,0,1,.749-.381c1.348.009,2.7,0,4.046,0,.57,0,.783.215.787.79,0,.6,0,.59.592.6.739.008,1.477-.02,2.216.021a2.793,2.793,0,0,1,2.335,1.382.421.421,0,0,0,.42.228c.556-.012,1.112,0,1.668-.005a1.194,1.194,0,0,1,.839.3.291.291,0,0,0,.331.054c.975-.324,1.95-.652,2.93-.961a1.291,1.291,0,0,1,.966,2.389c-1.3.622-2.6,1.234-3.9,1.85-.647.306-1.3.6-1.941.92a3.249,3.249,0,0,1-2.261.27c-1.306-.3-2.619-.565-3.929-.846-.257-.055-.261-.05-.266.225a3.38,3.38,0,0,1-.024.638.559.559,0,0,1-.57.492q-2.217.007-4.434,0a.612.612,0,0,1-.553-.379Zm.7,3.795c0,1.074,0,2.149,0,3.223,0,.178.054.238.235.238q1.829-.009,3.658,0c.191,0,.249-.063.247-.25-.008-.731,0-1.463,0-2.195,0-.276.136-.433.36-.436s.37.144.382.42a5.562,5.562,0,0,1,0,.708c-.02.242.083.329.309.376,1.387.285,2.771.583,4.156.876a2.284,2.284,0,0,0,1.5-.147l.64-.3q2.665-1.259,5.33-2.52a.567.567,0,0,0,.33-.734.548.548,0,0,0-.718-.313c-.957.307-1.911.625-2.867.937a.216.216,0,0,0-.167.211,1.268,1.268,0,0,1-1.388,1.239q-2.7,0-5.4,0c-.36,0-.549-.133-.547-.378s.182-.37.549-.37h4.823c.244,0,.488.008.731,0a.5.5,0,1,0-.072-.99q-1.086-.006-2.172,0a.315.315,0,0,1-.346-.22,2.136,2.136,0,0,0-2.092-1.41q-1.074,0-2.149,0c-.493,0-.446-.065-.45.455,0,.3.008.595-.008.891a.366.366,0,0,1-.389.388.374.374,0,0,1-.349-.4c0-.068,0-.137,0-.206,0-.739-.007-1.478,0-2.217,0-.211-.049-.295-.278-.293q-1.795.015-3.589,0c-.207,0-.276.057-.274.272.01,1.051,0,2.1,0,3.155" transform="translate(-438.283 -68.732)" fill="#1956a7"/>
    <path id="Path_5456" data-name="Path 5456" d="M1072.964,0h3.086c.076,0,.153,0,.229,0a.368.368,0,0,1,.349.356.37.37,0,0,1-.353.354c-.083.008-.167,0-.251,0-1.974,0-3.948,0-5.921,0a1.182,1.182,0,0,0-.934.38c-.566.6-1.155,1.173-1.743,1.748a.9.9,0,0,0-.29.67c0,.381,0,.762,0,1.143,0,.144.037.2.186.144a2.307,2.307,0,0,1,.852-.141c.129,0,.183-.052.17-.178a.676.676,0,0,1,0-.069c0-.98-.074-.781.623-1.486.188-.19.373-.382.568-.564a.8.8,0,0,1,1.167.009c.388.377.769.761,1.149,1.147a.794.794,0,0,1,.041,1.184c-.433.47-.9.914-1.347,1.368-.118.119-.238.236-.355.356a.661.661,0,0,0-.052.973.652.652,0,0,0,.972-.061q.981-.975,1.955-1.957a.888.888,0,0,1,.528-.28,3.294,3.294,0,0,0,1.84-.9,1.6,1.6,0,0,1,1.2-.46c.99.016,1.981,0,2.972.009.2,0,.263-.059.26-.26-.01-.838-.011-1.677,0-2.515,0-.219-.074-.271-.277-.267-.549.011-1.1.005-1.646,0-.275,0-.441-.137-.445-.352s.171-.364.437-.365c.678,0,1.356-.005,2.035,0a.581.581,0,0,1,.607.605q.007,1.635,0,3.269a.574.574,0,0,1-.494.6,1.75,1.75,0,0,1-.34.028c-1.059,0-2.119,0-3.178,0a.828.828,0,0,0-.615.24,4.046,4.046,0,0,1-2,1.048,1,1,0,0,0-.542.3c-.565.578-1.139,1.146-1.712,1.715a1.2,1.2,0,0,1-.349.289.944.944,0,0,0-.5.6,2.858,2.858,0,0,1-5.438-.753,2.753,2.753,0,0,1,.824-2.457.579.579,0,0,0,.189-.46c-.011-.548,0-1.1,0-1.646a1.271,1.271,0,0,1,.377-.928q1.03-1.039,2.069-2.07a1.274,1.274,0,0,1,.949-.381h3.155m-6.848,7.277a2.2,2.2,0,0,0,1.527,2.282,2.121,2.121,0,0,0,2.424-.961c.164-.28.164-.279-.131-.436a.636.636,0,0,1-.136-.083c-.134-.124-.2-.113-.287.069a1.425,1.425,0,1,1-.643-1.911c.134.067.279.232.382.206s.152-.246.25-.356c.128-.143.1-.221-.051-.318a2.052,2.052,0,0,0-2.187-.14,1.975,1.975,0,0,0-1.148,1.649m2.12.921a.682.682,0,1,0-.694-.693.676.676,0,0,0,.694.693m1.911-2.79,1.181-1.175c.067-.067.056-.124,0-.2-.419-.544-.466-.549-.936-.079l-.161.162a.227.227,0,0,0-.083.157c0,.355,0,.71,0,1.133m-1.054-1.166c0,.168,0,.289,0,.411,0,.14.1.189.21.195.14.008.082-.117.087-.185a2.914,2.914,0,0,0,0-.41.652.652,0,0,1,.229-.567c.192-.173.369-.362.55-.547.053-.054.151-.1.055-.2s-.171-.062-.251.019c-.187.189-.366.388-.567.562a.7.7,0,0,0-.315.726" transform="translate(-564.683 154.794)" fill="#1956a7"/>
    <path id="Path_5457" data-name="Path 5457" d="M1100.321,181.255a2.862,2.862,0,1,1,2.571-4.054,1.582,1.582,0,0,1,.094.257.334.334,0,0,1-.209.428.337.337,0,0,1-.451-.156c-.055-.091-.092-.192-.14-.288a2.126,2.126,0,1,0,.082,1.732c.014-.035.027-.071.042-.106a.373.373,0,0,1,.493-.244.362.362,0,0,1,.192.5,2.8,2.8,0,0,1-1.685,1.753,2.382,2.382,0,0,1-.989.183" transform="translate(-594.774 -10.012)" fill="#1956a7"/>
    <path id="Path_5458" data-name="Path 5458" d="M1123.664,200.57a1.422,1.422,0,0,1-1.422,1.428,1.459,1.459,0,0,1-1.435-1.43,1.438,1.438,0,0,1,1.449-1.428,1.4,1.4,0,0,1,1.408,1.431m-1.408.678a.7.7,0,0,0,.686-.7.731.731,0,0,0-.7-.681.7.7,0,0,0-.69.7.685.685,0,0,0,.7.681" transform="translate(-616.734 -32.179)" fill="#1956a7"/>
    <path id="Path_5459" data-name="Path 5459" d="M1169.275,136.22a.488.488,0,0,1,.162-.387c.264-.264.523-.532.793-.79a.5.5,0,0,1,.785,0q.394.381.775.775a.508.508,0,0,1,0,.786q-.389.4-.792.791a.5.5,0,0,1-.768,0c-.268-.259-.529-.526-.792-.79a.491.491,0,0,1-.166-.387m1.367.494c.058-.055.124-.116.188-.178.319-.318.319-.318,0-.636-.211-.211-.211-.211-.416-.008-.328.326-.329.327,0,.65a.477.477,0,0,0,.227.173" transform="translate(-662.238 28.174)" fill="#1956a7"/>
    <path id="Path_5460" data-name="Path 5460" d="M1052.431,169.191a.475.475,0,0,1,.382.146c.2.2.4.393.6.6a.489.489,0,0,1,0,.733q-.289.308-.6.6a.5.5,0,0,1-.719.008c-.214-.194-.419-.4-.614-.613a.471.471,0,0,1-.027-.681c.211-.239.446-.458.676-.68a.383.383,0,0,1,.3-.109" transform="translate(-551.49 -4.059)" fill="#1956a7"/>
  </g>
</svg>
